<svg xmlns="http://www.w3.org/2000/svg" xmlns:xlink="http://www.w3.org/1999/xlink" width="1024" height="1024" viewBox="0 0 1024 1024">
  <defs>
    <linearGradient id="botw-3-c" x1="4.236%" x2="97.698%" y1="2.594%" y2="100%">
      <stop offset="0%" stop-color="#3862BB"/>
      <stop offset="100%" stop-color="#1C1784"/>
    </linearGradient>
    <linearGradient id="botw-3-d" x1="0%" y1="0%" y2="100%">
      <stop offset="0%" stop-color="#FFF" stop-opacity=".18"/>
      <stop offset="48.762%" stop-color="gray" stop-opacity=".08"/>
      <stop offset="100%" stop-opacity=".183"/>
    </linearGradient>
    <rect id="botw-3-b" width="710.606" height="865.103" x="64.697" y="51.949" rx="22.663"/>
    <filter id="botw-3-a" width="110%" height="108.2%" x="-5.4%" y="-3.8%" filterUnits="objectBoundingBox">
      <feMorphology in="SourceAlpha" operator="dilate" radius="22" result="shadowSpreadOuter1"/>
      <feOffset dx="-3" dy="3" in="shadowSpreadOuter1" result="shadowOffsetOuter1"/>
      <feGaussianBlur in="shadowOffsetOuter1" result="shadowBlurOuter1" stdDeviation="4"/>
      <feComposite in="shadowBlurOuter1" in2="SourceAlpha" operator="out" result="shadowBlurOuter1"/>
      <feColorMatrix in="shadowBlurOuter1" values="0 0 0 0 0   0 0 0 0 0   0 0 0 0 0  0 0 0 0.12 0"/>
    </filter>
    <filter id="botw-3-e" width="111.1%" height="109.1%" x="-6%" y="-4.2%" filterUnits="objectBoundingBox">
      <feGaussianBlur in="SourceAlpha" result="shadowBlurInner1" stdDeviation="9"/>
      <feOffset dy="1" in="shadowBlurInner1" result="shadowOffsetInner1"/>
      <feComposite in="shadowOffsetInner1" in2="SourceAlpha" k2="-1" k3="1" operator="arithmetic" result="shadowInnerInner1"/>
      <feColorMatrix in="shadowInnerInner1" values="0 0 0 0 0   0 0 0 0 0   0 0 0 0 0  0 0 0 0.5 0"/>
    </filter>
    <filter id="botw-3-f" width="107.4%" height="108.3%" x="-3.7%" y="-2.9%" filterUnits="objectBoundingBox">
      <feOffset dy="6" in="SourceAlpha" result="shadowOffsetOuter1"/>
      <feGaussianBlur in="shadowOffsetOuter1" result="shadowBlurOuter1" stdDeviation="6"/>
      <feColorMatrix in="shadowBlurOuter1" result="shadowMatrixOuter1" values="0 0 0 0 0   0 0 0 0 0   0 0 0 0 0  0 0 0 0.395380435 0"/>
      <feMerge>
        <feMergeNode in="shadowMatrixOuter1"/>
        <feMergeNode in="SourceGraphic"/>
      </feMerge>
    </filter>
    <linearGradient id="botw-3-h" x1="100%" x2="50%" y1="0%" y2="5.905%">
      <stop offset="0%" stop-opacity=".3"/>
      <stop offset="100%" stop-opacity="0"/>
    </linearGradient>
    <polygon id="botw-3-g" points="143.41 736.002 750.015 835.92 929.682 725.124"/>
  </defs>
  <g fill="none" fill-rule="evenodd" transform="translate(57 23)">
    <g transform="rotate(-9.2 420 484.5)">
      <use fill="#000" filter="url(#botw-3-a)" xlink:href="#botw-3-b"/>
      <use fill="url(#botw-3-c)" xlink:href="#botw-3-b"/>
      <use fill="url(#botw-3-d)" xlink:href="#botw-3-b"/>
      <use fill="#000" filter="url(#botw-3-e)" xlink:href="#botw-3-b"/>
      <rect width="732.606" height="887.103" x="53.697" y="40.949" stroke="#F3F3F3" stroke-width="22" rx="22.663"/>
    </g>
    <g filter="url(#botw-3-f)" transform="rotate(-9 1587.516 -501.52)">
      <g fill="#EB0000" transform="translate(0 215.795)">
        <path d="M206.553463,33.1344725 C206.553463,33.1344725 175.845383,76.3087667 201.793007,104.775334 C215.983329,120.340119 232.508738,117.669465 242.02506,123.087296 C257.285758,131.780312 250.518443,161.371768 218.127906,148.88321 C217.822631,148.760773 208.407302,178.214487 203.60706,188.131872 C199.633893,196.335141 168.930403,195.187296 168.930403,195.187296 L204.302537,141.950223 C204.302537,141.950223 196.263624,138.25416 191.886483,133.984175 C191.464148,133.570951 150.62996,168.871025 139.721919,171.189673 C125.574443,174.197028 95.6750738,154.752526 96.656698,154.622437 C139.647705,149.112779 182.931745,122.543982 182.931745,122.543982 C182.931745,122.543982 177.95094,117.080238 176.559221,108.968796 C176.439101,108.272437 95.9696376,129.461664 73.4412483,126.484918 C57.6664027,124.403492 39.474604,89.241159 41.2014362,89.746211 C71.7098255,98.6152303 173.110148,95.577266 173.110148,95.577266 C173.110148,95.577266 171.800295,88.9809807 172.21651,80.8159733 C172.254,80.0813522 68.5224161,71.770951 39.8671007,58.5401189 C19.1558255,48.97474 -1.98467114,-1.49372957 1.0313557,0.0581575037 C52.9334899,26.7754086 174.595973,69.0008172 175.453651,66.2306835 C183.125315,41.4448737 206.553463,33.1344725 206.553463,33.1344725 Z"/>
        <path d="M206.553463,33.1344725 C206.553463,33.1344725 175.845383,76.3087667 201.793007,104.775334 C215.983329,120.340119 232.508738,117.669465 242.02506,123.087296 C257.285758,131.780312 250.518443,161.371768 218.127906,148.88321 C217.822631,148.760773 208.407302,178.214487 203.60706,188.131872 C199.633893,196.335141 168.930403,195.187296 168.930403,195.187296 L204.302537,141.950223 C204.302537,141.950223 196.263624,138.25416 191.886483,133.984175 C191.464148,133.570951 150.62996,168.871025 139.721919,171.189673 C125.574443,174.197028 95.6750738,154.752526 96.656698,154.622437 C139.647705,149.112779 182.931745,122.543982 182.931745,122.543982 C182.931745,122.543982 177.95094,117.080238 176.559221,108.968796 C176.439101,108.272437 95.9696376,129.461664 73.4412483,126.484918 C57.6664027,124.403492 39.474604,89.241159 41.2014362,89.746211 C71.7098255,98.6152303 173.110148,95.577266 173.110148,95.577266 C173.110148,95.577266 171.800295,88.9809807 172.21651,80.8159733 C172.254,80.0813522 68.5224161,71.770951 39.8671007,58.5401189 C19.1558255,48.97474 -1.98467114,-1.49372957 1.0313557,0.0581575037 C52.9334899,26.7754086 174.595973,69.0008172 175.453651,66.2306835 C183.125315,41.4448737 206.553463,33.1344725 206.553463,33.1344725 Z" transform="matrix(-1 0 0 1 569.832 0)"/>
      </g>
      <path fill="#EB0000" d="M99.4630872,0.650445765 L99.4630872,180.44896 C99.4630872,180.44896 99.4630872,0.650445765 99.4630872,0.650445765 C99.4630872,0.650445765 99.4630872,0.650445765 99.4638523,0.650445765 C99.5380671,0.849405646 104.137852,13.2078752 116.142282,21.8779346 C123.820067,27.4258544 123.158255,36.3254829 125.159758,39.8302377 C130.321893,48.8599554 141.755557,51.5918276 141.755557,51.5918276 C141.755557,51.5918276 113.88753,56.4816493 110.223463,71.2123328 C106.313034,86.9301634 115.429973,94.6589896 115.429973,94.6589896 C115.429973,94.6589896 107.999315,101.018053 108.130913,114.26419 C108.241852,125.474814 115.872201,136.088559 115.872201,136.088559 C115.872201,136.088559 109.17757,142.394056 104.902188,153.964339 C101.343705,163.598588 99.4630872,180.44896 99.4630872,180.44896 C99.4562013,180.387741 97.5755839,163.575632 94.0239866,153.956686 C89.748604,142.386404 83.0539732,136.080906 83.0539732,136.080906 C83.0539732,136.080906 90.6843221,125.467162 90.7952617,114.256538 C90.9268591,101.010401 83.4962013,94.6589896 83.4962013,94.6589896 C83.4962013,94.6589896 92.6131409,86.9225111 88.7027114,71.2046805 C85.0386443,56.473997 57.1706174,51.5841753 57.1706174,51.5841753 C57.1706174,51.5841753 68.6042819,48.8523031 73.7664161,39.8225854 C75.7679195,36.3178306 75.1061074,27.4182021 82.7838926,21.8779346 C94.9099732,13.1160475 99.4630872,0.650445765 99.4630872,0.650445765 Z M153.121128,103.948886 C153.121128,103.948886 140.10906,77.326523 137.817584,74.3421248 C135.415168,71.2199851 130.224725,66.8275632 125.012094,70.5236256 C121.307477,73.1407132 122.198819,79.7599554 123.971557,82.4459138 C127.894993,88.4070579 139.679074,104.438633 139.679074,104.438633 C139.679074,104.438633 130.233906,104.545765 127.53157,104.56107 C125.308188,104.576374 126.610389,111.394577 127.424456,112.259287 C131.947732,117.064933 147.096725,128.971917 147.096725,128.971917 L143.737168,114.669762 L174.820913,115.205423 L166.44306,134.083655 C166.44306,134.083655 192.323356,114.692719 196.503101,111.325706 C200.846577,107.820951 196.688255,104.316196 196.688255,104.316196 L153.121128,103.948886 Z M45.805047,103.948886 C45.805047,103.948886 58.8171141,77.3188707 61.1085906,74.3344725 C63.5110067,71.2123328 68.7014497,66.8275632 73.9140805,70.5159733 C77.618698,73.1407132 76.7273557,79.7523031 74.9546174,82.4459138 C71.0311812,88.3994056 59.2471007,104.430981 59.2471007,104.430981 C59.2471007,104.430981 68.6922685,104.545765 71.394604,104.56107 C73.6179866,104.568722 72.3157852,111.386924 71.5017181,112.251634 C66.978443,117.064933 51.8294497,128.971917 51.8294497,128.971917 L55.1890067,114.669762 L24.1052617,115.197771 L32.4831141,134.083655 C32.4831141,134.083655 6.60281879,114.685067 2.42307383,111.318053 C-1.92040268,107.813299 2.23791946,104.308544 2.23791946,104.308544 L45.805047,103.948886 Z" transform="translate(185.154 334.406)"/>
      <path fill="#EB0000" d="M33.6361208,62.1137444 C29.0654094,61.9606984 27.4609933,70.8756315 27.4609933,70.8756315 C23.7395436,65.0904903 25.6859597,59.5043091 25.6859597,59.5043091 C19.106094,58.7237741 16.2430872,68.5034175 16.2430872,68.5034175 C13.0656242,58.5860327 15.9990201,52.1351412 15.9990201,52.1351412 C4.20958389,54.1170877 1.37412081,66.0852897 1.37412081,66.0852897 C-4.23024161,48.6150817 16.1719329,32.9125557 16.1719329,32.9125557 C30.377557,23.2630015 39.0201342,0.420876672 39.0201342,0.420876672 C39.0201342,0.420876672 48.1064698,23.5690936 61.8683356,32.9125557 C61.8683356,32.9125557 82.2705101,48.6150817 76.6661477,66.0852897 C76.6661477,66.0852897 73.8306846,54.1170877 62.0412483,52.1351412 C62.0412483,52.1351412 64.9746443,58.5860327 61.7971812,68.5034175 C61.7971812,68.5034175 58.9341745,58.7237741 52.3543087,59.5043091 C52.3543087,59.5043091 54.3007248,65.0904903 50.5792752,70.8756315 C50.5792752,70.8756315 48.9748591,61.9606984 44.4041477,62.1137444 L39.0201342,82.3923477 L33.6361208,62.1137444 Z" transform="translate(245.597 240.282)"/>
      <g fill="#969696" transform="translate(40.55)">
        <polygon points="113.646 206.938 171.6 90.542 135.545 62.29 148.179 36.317 189.998 41.611 210.739 29.256 135.436 .18 91.824 66.575 121.61 99.869 87.257 149.6 38.902 149.693 38.502 97.892 70.794 28.662 41.075 39.113 5.92 92.757 .347 187.349"/>
        <polygon points="113.646 206.938 171.6 90.542 135.545 62.29 148.179 36.317 189.998 41.611 210.739 29.256 135.436 .18 91.824 66.575 121.61 99.869 87.257 149.6 38.902 149.693 38.502 97.892 70.794 28.662 41.075 39.113 5.92 92.757 .347 187.349" transform="matrix(-1 0 0 1 490.215 0)"/>
      </g>
      <path fill="#FAC83B" d="M174.298349,149.955297 L87.2214765,149.955297 L130.760295,75.1915305 L174.298349,149.955297 Z M87.1220134,149.955297 L0.0451409396,149.955297 L43.5831946,75.1915305 L87.1220134,149.955297 Z M130.660832,75.1915305 L43.5831946,75.1915305 L87.1220134,0.427763744 L130.660832,75.1915305 Z" transform="translate(197.446 42.403)"/>
    </g>
    <use fill="#F3F3F3" xlink:href="#botw-3-g"/>
    <use fill="url(#botw-3-h)" xlink:href="#botw-3-g"/>
    <polygon fill="#F3F3F3" points="627.533 67.582 829.853 115.571 929.622 725.137 750.289 835.332"/>
  </g>
</svg>
