<svg xmlns="http://www.w3.org/2000/svg" xmlns:xlink="http://www.w3.org/1999/xlink" width="1024" height="1024" viewBox="0 0 1024 1024">
  <defs>
    <linearGradient id="botw-c" x1="4.236%" x2="97.698%" y1="2.594%" y2="100%">
      <stop offset="0%" stop-color="#3862BB"/>
      <stop offset="100%" stop-color="#1C1784"/>
    </linearGradient>
    <linearGradient id="botw-d" x1="0%" y1="0%" y2="100%">
      <stop offset="0%" stop-color="#FFF" stop-opacity=".18"/>
      <stop offset="48.762%" stop-color="gray" stop-opacity=".08"/>
      <stop offset="100%" stop-opacity=".183"/>
    </linearGradient>
    <rect id="botw-b" width="710.606" height="865.103" x="64.697" y="51.949" rx="22.663"/>
    <filter id="botw-a" width="110%" height="108.2%" x="-5.4%" y="-3.8%" filterUnits="objectBoundingBox">
      <feMorphology in="SourceAlpha" operator="dilate" radius="22" result="shadowSpreadOuter1"/>
      <feOffset dx="-3" dy="3" in="shadowSpreadOuter1" result="shadowOffsetOuter1"/>
      <feGaussianBlur in="shadowOffsetOuter1" result="shadowBlurOuter1" stdDeviation="4"/>
      <feComposite in="shadowBlurOuter1" in2="SourceAlpha" operator="out" result="shadowBlurOuter1"/>
      <feColorMatrix in="shadowBlurOuter1" values="0 0 0 0 0   0 0 0 0 0   0 0 0 0 0  0 0 0 0.1 0"/>
    </filter>
    <filter id="botw-e" width="111.1%" height="109.1%" x="-6%" y="-4.2%" filterUnits="objectBoundingBox">
      <feGaussianBlur in="SourceAlpha" result="shadowBlurInner1" stdDeviation="9"/>
      <feOffset dy="1" in="shadowBlurInner1" result="shadowOffsetInner1"/>
      <feComposite in="shadowOffsetInner1" in2="SourceAlpha" k2="-1" k3="1" operator="arithmetic" result="shadowInnerInner1"/>
      <feColorMatrix in="shadowInnerInner1" values="0 0 0 0 0   0 0 0 0 0   0 0 0 0 0  0 0 0 0.5 0"/>
    </filter>
    <filter id="botw-f" width="106.6%" height="107.5%" x="-3.3%" y="-2.6%" filterUnits="objectBoundingBox">
      <feOffset dy="6" in="SourceAlpha" result="shadowOffsetOuter1"/>
      <feGaussianBlur in="shadowOffsetOuter1" result="shadowBlurOuter1" stdDeviation="6"/>
      <feColorMatrix in="shadowBlurOuter1" result="shadowMatrixOuter1" values="0 0 0 0 0   0 0 0 0 0   0 0 0 0 0  0 0 0 0.395380435 0"/>
      <feMerge>
        <feMergeNode in="shadowMatrixOuter1"/>
        <feMergeNode in="SourceGraphic"/>
      </feMerge>
    </filter>
  </defs>
  <g fill="none" fill-rule="evenodd" transform="translate(57 23)">
    <g transform="rotate(-9.2 420 484.5)">
      <use fill="#000" filter="url(#botw-a)" xlink:href="#botw-b"/>
      <use fill="url(#botw-c)" xlink:href="#botw-b"/>
      <use fill="url(#botw-d)" xlink:href="#botw-b"/>
      <use fill="#000" filter="url(#botw-e)" xlink:href="#botw-b"/>
      <rect width="732.606" height="887.103" x="53.697" y="40.949" stroke="#F3F3F3" stroke-width="22" rx="22.663"/>
    </g>
    <g filter="url(#botw-f)" transform="rotate(-9 1632.628 -274.234)">
      <g fill="#EB0000" transform="translate(0 239.679)">
        <path d="M229.383056,36.8017831 C229.383056,36.8017831 195.280925,84.7545914 224.096444,116.371828 C239.85517,133.659316 258.207072,130.693076 268.775199,136.71055 C285.722605,146.365706 278.207323,179.232333 242.23678,165.361545 C241.897764,165.225557 231.441793,197.939198 226.110999,208.954235 C221.698691,218.065438 187.601658,216.79055 187.601658,216.79055 L226.883344,157.661218 C226.883344,157.661218 217.955919,153.556077 213.094989,148.813492 C212.625974,148.354532 167.278534,187.561605 155.164868,190.13688 C139.453723,193.477088 106.249687,171.880475 107.339807,171.735988 C155.082451,165.616523 203.150517,136.107103 203.150517,136.107103 C203.150517,136.107103 197.619201,130.038633 196.073662,121.029421 C195.940264,120.255988 106.576808,143.790431 81.5584389,140.48422 C64.0400577,138.172422 43.8375866,99.1183358 45.7552792,99.6792868 C79.6356483,109.529926 192.243374,106.155721 192.243374,106.155721 C192.243374,106.155721 190.788749,98.8293611 191.250966,89.7606538 C191.2926,88.9447251 76.0959463,79.7145319 44.2734644,65.0193165 C21.2730483,54.3952452 -2.20402953,-1.65905498 1.14534765,0.0645943536 C58.7840336,29.7389004 193.893423,76.6378009 194.845897,73.5610698 C203.365482,46.0319762 229.383056,36.8017831 229.383056,36.8017831 Z"/>
        <path d="M229.383056,36.8017831 C229.383056,36.8017831 195.280925,84.7545914 224.096444,116.371828 C239.85517,133.659316 258.207072,130.693076 268.775199,136.71055 C285.722605,146.365706 278.207323,179.232333 242.23678,165.361545 C241.897764,165.225557 231.441793,197.939198 226.110999,208.954235 C221.698691,218.065438 187.601658,216.79055 187.601658,216.79055 L226.883344,157.661218 C226.883344,157.661218 217.955919,153.556077 213.094989,148.813492 C212.625974,148.354532 167.278534,187.561605 155.164868,190.13688 C139.453723,193.477088 106.249687,171.880475 107.339807,171.735988 C155.082451,165.616523 203.150517,136.107103 203.150517,136.107103 C203.150517,136.107103 197.619201,130.038633 196.073662,121.029421 C195.940264,120.255988 106.576808,143.790431 81.5584389,140.48422 C64.0400577,138.172422 43.8375866,99.1183358 45.7552792,99.6792868 C79.6356483,109.529926 192.243374,106.155721 192.243374,106.155721 C192.243374,106.155721 190.788749,98.8293611 191.250966,89.7606538 C191.2926,88.9447251 76.0959463,79.7145319 44.2734644,65.0193165 C21.2730483,54.3952452 -2.20402953,-1.65905498 1.14534765,0.0645943536 C58.7840336,29.7389004 193.893423,76.6378009 194.845897,73.5610698 C203.365482,46.0319762 229.383056,36.8017831 229.383056,36.8017831 Z" transform="matrix(-1 0 0 1 632.813 0)"/>
      </g>
      <path fill="#EB0000" d="M110.456376,0.72243685 L110.456376,200.420981 C110.456376,200.420981 110.456376,0.72243685 110.456376,0.72243685 C110.456376,0.72243685 110.456376,0.72243685 110.457226,0.72243685 C110.539643,0.943417533 115.647826,14.6697177 128.97906,24.2993759 C137.505443,30.4613373 136.770483,40.3459733 138.993205,44.238633 C144.725891,54.2677563 157.423277,57.3019911 157.423277,57.3019911 C157.423277,57.3019911 126.475099,62.7330163 122.406056,79.0940862 C118.063421,96.5515602 128.188023,105.13581 128.188023,105.13581 C128.188023,105.13581 119.936082,112.198692 120.082224,126.910906 C120.205426,139.362318 128.679129,151.150788 128.679129,151.150788 C128.679129,151.150788 121.244565,158.154175 116.49664,171.005052 C112.544851,181.705617 110.456376,200.420981 110.456376,200.420981 C110.448729,200.352987 108.360254,181.680119 104.416111,170.996553 C99.6681866,158.145676 92.2336228,151.142288 92.2336228,151.142288 C92.2336228,151.142288 100.707326,139.353819 100.830528,126.902407 C100.97667,112.190193 92.7247289,105.13581 92.7247289,105.13581 C92.7247289,105.13581 102.84933,96.5430609 98.5066953,79.0855869 C94.4376523,62.7245171 63.4894752,57.2934918 63.4894752,57.2934918 C63.4894752,57.2934918 76.1868604,54.2592571 81.9195463,44.2301337 C84.1422685,40.337474 83.4073087,30.452838 91.9336913,24.2993759 C105.400023,14.5677266 110.456376,0.72243685 110.456376,0.72243685 Z M170.045042,115.453908 C170.045042,115.453908 155.594799,85.8849926 153.050054,82.5702823 C150.382107,79.1025854 144.617984,74.2240119 138.82922,78.329153 C134.715145,81.235899 135.705004,88.5877563 137.673677,91.5709955 C142.030756,98.1919168 155.117287,115.99786 155.117287,115.99786 C155.117287,115.99786 144.62818,116.11685 141.627165,116.133848 C139.15804,116.150847 140.604169,123.723685 141.508212,124.684101 C146.531428,130.021634 163.354784,143.246478 163.354784,143.246478 L159.623907,127.361367 L194.143224,127.956315 L184.839399,148.923982 C184.839399,148.923982 213.580148,127.386865 218.221864,123.647192 C223.045409,119.754532 218.427483,115.861872 218.427483,115.861872 L170.045042,115.453908 Z M50.8677101,115.453908 C50.8677101,115.453908 65.317953,85.8764933 67.862698,82.5617831 C70.5306443,79.0940862 76.2947678,74.2240119 82.0835315,78.3206538 C86.1976067,81.235899 85.2077477,88.5792571 83.2390752,91.5709955 C78.881996,98.1834175 65.7954644,115.989361 65.7954644,115.989361 C65.7954644,115.989361 76.2845718,116.11685 79.2855866,116.133848 C81.7547114,116.142348 80.3085826,123.715186 79.4045396,124.675602 C74.3813235,130.021634 57.5579678,143.246478 57.5579678,143.246478 L61.2888443,127.361367 L26.7695275,127.947816 L36.073353,148.923982 C36.073353,148.923982 7.33260403,127.378366 2.69088725,123.638692 C-2.13265772,119.746033 2.48526846,115.853373 2.48526846,115.853373 L50.8677101,115.453908 Z" transform="translate(205.619 371.418)"/>
      <path fill="#EB0000" d="M37.3537973,68.9884695 C32.277902,68.8184844 30.4961557,78.7201189 30.4961557,78.7201189 C26.3633879,72.2946805 28.5249342,66.0902229 28.5249342,66.0902229 C21.2178201,65.2232987 18.0383758,76.0853492 18.0383758,76.0853492 C14.5097195,65.070312 17.7673329,57.9054383 17.7673329,57.9054383 C4.67485369,60.1067459 1.52599732,73.399584 1.52599732,73.399584 C-4.69779463,53.9957801 17.959357,36.5553046 17.959357,36.5553046 C33.7350765,25.8377415 43.3328859,0.467459138 43.3328859,0.467459138 C43.3328859,0.467459138 53.4235007,26.1777117 68.7064148,36.5553046 C68.7064148,36.5553046 91.3635664,53.9957801 85.1397745,73.399584 C85.1397745,73.399584 81.9909181,60.1067459 68.8984389,57.9054383 C68.8984389,57.9054383 72.1560523,65.070312 68.627396,76.0853492 C68.627396,76.0853492 65.4479517,65.2232987 58.1408376,66.0902229 C58.1408376,66.0902229 60.3023839,72.2946805 56.1696161,78.7201189 C56.1696161,78.7201189 54.3878698,68.8184844 49.3119745,68.9884695 L43.3328859,91.5115007 L37.3537973,68.9884695 Z" transform="translate(272.742 266.877)"/>
      <g fill="#969696" transform="translate(45.032)">
        <polygon points="126.207 229.842 190.566 100.563 150.527 69.184 164.556 40.337 210.998 46.216 234.032 32.494 150.405 .2 101.973 73.944 135.052 110.923 96.902 166.158 43.202 166.261 42.758 108.727 78.619 31.834 45.615 43.442 6.574 103.024 .386 208.085"/>
        <polygon points="126.207 229.842 190.566 100.563 150.527 69.184 164.556 40.337 210.998 46.216 234.032 32.494 150.405 .2 101.973 73.944 135.052 110.923 96.902 166.158 43.202 166.261 42.758 108.727 78.619 31.834 45.615 43.442 6.574 103.024 .386 208.085" transform="matrix(-1 0 0 1 544.397 0)"/>
      </g>
      <path fill="#FAC83B" d="M193.562903,166.552291 L96.861745,166.552291 L145.212749,83.5136999 L193.562903,166.552291 Z M96.7512886,166.552291 L0.0501302013,166.552291 L48.4002846,83.5136999 L96.7512886,166.552291 Z M145.102293,83.5136999 L48.4002846,83.5136999 L96.7512886,0.47510847 L145.102293,83.5136999 Z" transform="translate(219.269 47.096)"/>
    </g>
  </g>
</svg>
