<?xml version="1.0" encoding="utf-8"?>
<!-- Generator: Adobe Illustrator 21.0.2, SVG Export Plug-In . SVG Version: 6.00 Build 0)  -->
<svg version="1.1"
	 id="Brazil_v2" inkscape:export-filename="/Users/alexaquino/Downloads/Downloads/vscode-icons-master/brazil2_256.png" inkscape:export-xdpi="22.5" inkscape:export-ydpi="22.5" inkscape:version="0.91 r13725" sodipodi:docname="brazil2.svg" xmlns:cc="http://creativecommons.org/ns#" xmlns:dc="http://purl.org/dc/elements/1.1/" xmlns:inkscape="http://www.inkscape.org/namespaces/inkscape" xmlns:rdf="http://www.w3.org/1999/02/22-rdf-syntax-ns#" xmlns:sodipodi="http://sodipodi.sourceforge.net/DTD/sodipodi-0.dtd" xmlns:svg="http://www.w3.org/2000/svg"
	 xmlns="http://www.w3.org/2000/svg" xmlns:xlink="http://www.w3.org/1999/xlink" x="0px" y="0px" viewBox="0 0 1024 1024"
	 style="enable-background:new 0 0 1024 1024;" xml:space="preserve">
<style type="text/css">
	.st0{fill:#CCFF00;}
	.st1{opacity:0.4;}
	.st2{fill:#FFFFFF;}
	.st3{fill:url(#_x3C_Path_x3E__10_);}
	.st4{fill:#00AAD4;}
	.st5{filter:url(#barca-h);}
	.st6{fill:#FFFF00;}
</style>
<filter  filterUnits="objectBoundingBox" height="1.1830001" id="barca-h" width="1.1799999" x="-0.090000004" y="-0.058000002">
	<feOffset  dy="13" id="feOffset28" in="SourceAlpha" result="shadowOffsetOuter1"></feOffset>
	<feGaussianBlur  id="feGaussianBlur30" in="shadowOffsetOuter1" result="shadowBlurOuter1" stdDeviation="9.5"></feGaussianBlur>
	<feColorMatrix  id="feColorMatrix32" in="shadowBlurOuter1" values="0 0 0 0 0   0 0 0 0 0   0 0 0 0 0  0 0 0 0.1 0">
		</feColorMatrix>
</filter>
<g id="_x3C_Group_x3E_" transform="translate(39.701183,0)">
	<g id="_x3C_Group_x3E__13_" transform="matrix(0.98713627,-0.15988119,0.15988119,0.98713627,-68.441461,76.970832)">
		<g id="_x3C_Group_x3E__14_">
			<path id="_x3C_Path_x3E__11_" class="st0" d="M91.8,54.8l697.4,0c13.1,0,23.8,10.6,23.8,23.8l0,859.5c0,13.1-10.6,23.8-23.8,23.8
				l-697.4,0c-13.1,0-23.8-10.6-23.8-23.8l0-859.5C68,65.4,78.6,54.8,91.8,54.8z"/>
		</g>
	</g>
	<g id="_x3C_Group_x3E__3_" transform="translate(7,0)">
		<g id="_x3C_Group_x3E__8_" transform="translate(7,0)" class="st1">
			<g id="_x3C_Group_x3E__12_">
				<path id="_x3C_Path_x3E__7_" inkscape:connector-curvature="0" class="st2" d="M457.2,237.7l65.3,421.2c0.4,2.4,2.6,4,4.9,3.6
					c0.6-0.1,1.2-0.3,1.7-0.6l91.6-59.3c1.4-0.9,2.2-2.6,1.9-4.3l-53.1-335.6c-0.3-1.7-1.5-3.1-3.2-3.5l-103.8-26.4
					c-2.3-0.6-4.7,0.8-5.2,3.1C457.1,236.6,457.1,237.1,457.2,237.7z"/>
			</g>
			<g id="_x3C_Group_x3E__11_">
				<path id="_x3C_Path_x3E__6_" inkscape:connector-curvature="0" class="st2" d="M457.2,237.7l65.3,421.2c0.4,2.4,2.6,4,4.9,3.6
					c0.6-0.1,1.2-0.3,1.7-0.6l91.6-59.3c1.4-0.9,2.2-2.6,1.9-4.3l-53.1-335.6c-0.3-1.7-1.5-3.1-3.2-3.5l-103.8-26.4
					c-2.3-0.6-4.7,0.8-5.2,3.1C457.1,236.6,457.1,237.1,457.2,237.7z"/>
			</g>
		</g>
		<g id="_x3C_Group_x3E__7_" transform="translate(7,0)">
			<path id="_x3C_Path_x3E__2_" inkscape:connector-curvature="0" class="st2" d="M627.5,602.7L531,665.4c-1.5,1-3.4,0.9-4.9-0.1
				L157,397.1c-1.9-1.4-2.4-4.1-1-6c0.4-0.5,0.8-0.9,1.4-1.2l33.3-18.8c1.3-0.7,2.8-0.7,4.1-0.1l432.3,224.3
				c2.1,1.1,2.9,3.7,1.8,5.8C628.6,601.8,628.1,602.3,627.5,602.7L627.5,602.7z"/>
		</g>
		<g id="_x3C_Group_x3E__2_" transform="translate(7,0)">
			
				<linearGradient id="_x3C_Path_x3E__10_" gradientUnits="userSpaceOnUse" x1="5.5891" y1="539.8527" x2="173.1993" y2="366.4353" gradientTransform="matrix(1.2668 0 0 -0.7894 178.415 804.2358)">
				<stop  offset="0" style="stop-color:#000000;stop-opacity:9.000000e-02"/>
				<stop  offset="1" style="stop-color:#000000;stop-opacity:0"/>
			</linearGradient>
			<path id="_x3C_Path_x3E__1_" inkscape:connector-curvature="0" class="st3" d="M627.5,602.7L531,665.4c-1.5,1-3.4,0.9-4.9-0.1
				L157,397.1c-1.9-1.4-2.4-4.1-1-6c0.4-0.5,0.8-0.9,1.4-1.2l33.3-18.8c1.3-0.7,2.8-0.7,4.1-0.1l432.3,224.3
				c2.1,1.1,2.9,3.7,1.8,5.8C628.6,601.8,628.1,602.3,627.5,602.7L627.5,602.7z"/>
		</g>
		<circle id="_x3C_Path_x3E_" class="st4" cx="411.1" cy="460.9" r="180.2"/>
		<g id="_x3C_Group_x3E__1_" transform="translate(7,0)">
			<g id="_x3C_Group_x3E__10_" class="st5">
				<path id="barca-i_1_" inkscape:connector-curvature="0" class="st2" d="M568.2,265.5L226.7,612.6c-0.9,1-2.3,1.4-3.6,1.3
					l-38.8-4.8c-2.4-0.3-4.1-2.4-3.8-4.8c0.1-0.7,0.4-1.5,0.8-2.1l276.5-368.7c1-1.4,2.8-2,4.5-1.6l103.8,26.4
					c2.3,0.6,3.7,2.9,3.1,5.2C569.2,264.3,568.8,264.9,568.2,265.5z"/>
			</g>
			<g id="_x3C_Group_x3E__9_">
				<path id="_x3C_Path_x3E__9_" inkscape:connector-curvature="0" class="st2" d="M568.2,266.5L226.7,613.6c-0.9,1-2.3,1.4-3.6,1.3
					l-38.8-4.8c-2.4-0.3-4.1-2.4-3.8-4.8c0.1-0.7,0.4-1.5,0.8-2.1l276.5-368.7c1-1.4,2.8-2,4.5-1.6l103.8,26.4
					c2.3,0.6,3.7,2.9,3.1,5.2C569.2,265.3,568.8,265.9,568.2,266.5z"/>
			</g>
		</g>
	</g>
	<g id="_x3C_Group_x3E__4_" transform="translate(7,0)">
		<g id="_x3C_Group_x3E__6_">
			<polygon id="_x3C_Path_x3E__5_" class="st6" points="949.7,749.1 163.4,760 770,859.9 			"/>
		</g>
		<g id="_x3C_Group_x3E__5_">
			<polygon id="_x3C_Path_x3E__4_" class="st6" points="949.7,749.1 163.4,760 770,859.9 			"/>
		</g>
		<polygon id="_x3C_Path_x3E__3_" class="st6" points="949.6,749.1 770.3,859.3 647.5,91.6 849.9,139.6 		"/>
	</g>
</g>
</svg>
