<svg xmlns="http://www.w3.org/2000/svg" width="947" height="1009" viewBox="0 0 947 1009">
  <defs>
    <linearGradient id="vscode-city-lights-a" x1="5.234%" x2="50%" y1="3.683%" y2="50%">
      <stop offset="0%" stop-opacity=".09"/>
      <stop offset="100%" stop-opacity="0"/>
    </linearGradient>
    <linearGradient id="vscode-city-lights-b" x1="100%" x2="50%" y1="0%" y2="5.905%">
      <stop offset="0%" stop-opacity=".3"/>
      <stop offset="100%" stop-opacity="0"/>
    </linearGradient>
  </defs>
  <g fill="none" fill-rule="evenodd" transform="translate(-3 -4)">
    <rect width="744.89" height="907.021" x=".167" y=".799" fill="#181E24" rx="23.755" transform="rotate(-9.2 742.19 58.73)"/>
    <g fill-rule="nonzero" transform="translate(464 232)">
      <path fill="#6A8397" d="M0.151711,5.712251 L65.482558,426.898473 C65.848189,429.255685 68.055489,430.870181 70.412701,430.50455 C71.01317,430.41141 71.587228,430.192617 72.097364,429.862466 L163.678747,370.592707 C165.11266,369.664705 165.865022,367.978865 165.598153,366.291833 L112.517132,30.736516 C112.247327,29.030929 110.987572,27.649954 109.313876,27.225029 L5.482667,0.863882 C3.170618,0.276888 0.820479,1.675322 0.233485,3.987371 C0.090397,4.550965 0.062584,5.137648 0.151711,5.712251 Z"/>
      <path fill="#E0E0E0" d="M0.151711,5.712251 L65.482558,426.898473 C65.848189,429.255685 68.055489,430.870181 70.412701,430.50455 C71.01317,430.41141 71.587228,430.192617 72.097364,429.862466 L163.678747,370.592707 C165.11266,369.664705 165.865022,367.978865 165.598153,366.291833 L112.517132,30.736516 C112.247327,29.030929 110.987572,27.649954 109.313876,27.225029 L5.482667,0.863882 C3.170618,0.276888 0.820479,1.675322 0.233485,3.987371 C0.090397,4.550965 0.062584,5.137648 0.151711,5.712251 Z" style="mix-blend-mode:multiply"/>
    </g>
    <g fill-rule="nonzero" transform="translate(155 370)">
      <path fill="#6A8397" d="M472.510916,232.73068 L375.970663,295.366129 C374.471239,296.338957 372.527506,296.28773 371.081406,295.237271 L1.957803,27.102934 C0.02785,25.701001 -0.400194,22.999974 1.001739,21.070021 C1.366546,20.567815 1.835314,20.150139 2.376109,19.845449 L35.724601,1.056504 C36.9946,0.340972 38.53984,0.314311 39.833766,0.985608 L472.149131,225.273441 C474.266532,226.371961 475.092498,228.978981 473.993978,231.096381 C473.649489,231.760384 473.138453,232.323533 472.510916,232.73068 Z"/>
      <path fill="url(#vscode-city-lights-a)" d="M472.510916,232.73068 L375.970663,295.366129 C374.471239,296.338957 372.527506,296.28773 371.081406,295.237271 L1.957803,27.102934 C0.02785,25.701001 -0.400194,22.999974 1.001739,21.070021 C1.366546,20.567815 1.835314,20.150139 2.376109,19.845449 L35.724601,1.056504 C36.9946,0.340972 38.53984,0.314311 39.833766,0.985608 L472.149131,225.273441 C474.266532,226.371961 475.092498,228.978981 473.993978,231.096381 C473.649489,231.760384 473.138453,232.323533 472.510916,232.73068 Z"/>
    </g>
    <g transform="translate(187 232)">
      <path fill="#000" fill-rule="nonzero" d="M388.234009,34.486126 L46.696791,381.592348 C45.755338,382.549153 44.422544,383.013857 43.090289,382.849824 L4.285709,378.072051 C1.918187,377.780552 0.235237,375.624989 0.526736,373.257467 C0.618914,372.508802 0.905556,371.797331 1.358133,371.193865 L277.868442,2.49517 C278.914621,1.100196 280.696978,0.471108 282.387011,0.900328 L386.2185,27.270575 C388.530501,27.857758 389.928743,30.208011 389.34156,32.520012 C389.153129,33.261951 388.770899,33.940481 388.234009,34.486126 Z"/>
      <path fill="#6A8397" d="M388.234009,34.486126 L46.696791,381.592348 C45.755338,382.549153 44.422544,383.013857 43.090289,382.849824 L4.285709,378.072051 C1.918187,377.780552 0.235237,375.624989 0.526736,373.257467 C0.618914,372.508802 0.905556,371.797331 1.358133,371.193865 L277.868442,2.49517 C278.914621,1.100196 280.696978,0.471108 282.387011,0.900328 L386.2185,27.270575 C388.530501,27.857758 389.928743,30.208011 389.34156,32.520012 C389.153129,33.261951 388.770899,33.940481 388.234009,34.486126 Z"/>
    </g>
    <g fill-rule="nonzero" transform="translate(163 749)">
      <polygon fill="#6A8397" points=".41 11.002 607.015 110.92 786.682 .124"/>
      <polygon fill="url(#vscode-city-lights-b)" points=".41 11.002 607.015 110.92 786.682 .124"/>
    </g>
    <polygon fill="#6A8397" fill-rule="nonzero" points="647.533 91.582 849.853 139.571 949.622 749.137 770.289 859.332"/>
  </g>
</svg>
