<svg width="1024" height="1024" viewBox="0 0 1024 1024" fill="none" xmlns="http://www.w3.org/2000/svg">
<g filter="url(#filter0_d)">
<rect x="100" y="100" width="824" height="824" rx="184" fill="#282A36"/>
<rect x="100" y="100" width="824" height="824" rx="184" fill="url(#paint0_linear)"/>
</g>
<g filter="url(#filter1_d)">
<path d="M255.702 664.241L218.397 630.571C209.616 622.646 209.594 608.874 218.348 600.921L601.5 252.844C612 243.344 623 240.344 637 243.844V395.043L281.2 665.32C273.546 671.135 262.838 670.681 255.702 664.241Z" fill="#66E0FA"/>
<path d="M255.702 664.241L218.397 630.571C209.616 622.646 209.594 608.874 218.348 600.921L601.5 252.844C612 243.344 623 240.344 637 243.844V395.043L281.2 665.32C273.546 671.135 262.838 670.681 255.702 664.241Z" fill="black" fill-opacity="0.3"/>
<path d="M255.702 380.447L218.397 414.117C209.616 422.042 209.594 435.815 218.348 443.768L601.5 791.844C612 801.344 623 804.344 637 800.844V649.645L281.2 379.368C273.546 373.554 262.838 374.007 255.702 380.447Z" fill="#66E0FA"/>
<path d="M255.702 380.447L218.397 414.117C209.616 422.042 209.594 435.815 218.348 443.768L601.5 791.844C612 801.344 623 804.344 637 800.844V649.645L281.2 379.368C273.546 373.554 262.838 374.007 255.702 380.447Z" fill="black" fill-opacity="0.2"/>
<path d="M763.37 304.921L637.202 243.568C630.944 241.056 617.552 240.679 606.539 249.221C615.3 244.615 633.447 244.824 637.202 264.925V776.23C637.202 793.19 621.019 802.894 606 795.984C618.515 805.406 633.447 803.24 637.202 801.356L763.37 740.003C772.32 735.651 778 726.572 778 716.621V328.303C778 318.352 772.32 309.273 763.37 304.921Z" fill="#66E0FA"/>
</g>
<defs>
<filter id="filter0_d" x="78" y="89" width="868" height="868" filterUnits="userSpaceOnUse" color-interpolation-filters="sRGB">
<feFlood flood-opacity="0" result="BackgroundImageFix"/>
<feColorMatrix in="SourceAlpha" type="matrix" values="0 0 0 0 0 0 0 0 0 0 0 0 0 0 0 0 0 0 127 0"/>
<feOffset dy="11"/>
<feGaussianBlur stdDeviation="11"/>
<feColorMatrix type="matrix" values="0 0 0 0 0 0 0 0 0 0 0 0 0 0 0 0 0 0 0.28 0"/>
<feBlend mode="normal" in2="BackgroundImageFix" result="effect1_dropShadow"/>
<feBlend mode="normal" in="SourceGraphic" in2="effect1_dropShadow" result="shape"/>
</filter>
<filter id="filter1_d" x="181.797" y="230" width="626.203" height="621" filterUnits="userSpaceOnUse" color-interpolation-filters="sRGB">
<feFlood flood-opacity="0" result="BackgroundImageFix"/>
<feColorMatrix in="SourceAlpha" type="matrix" values="0 0 0 0 0 0 0 0 0 0 0 0 0 0 0 0 0 0 127 0"/>
<feOffset dy="18"/>
<feGaussianBlur stdDeviation="15"/>
<feColorMatrix type="matrix" values="0 0 0 0 0 0 0 0 0 0 0 0 0 0 0 0 0 0 0.24 0"/>
<feBlend mode="normal" in2="BackgroundImageFix" result="effect1_dropShadow"/>
<feBlend mode="normal" in="SourceGraphic" in2="effect1_dropShadow" result="shape"/>
</filter>
<linearGradient id="paint0_linear" x1="512" y1="100" x2="512" y2="924" gradientUnits="userSpaceOnUse">
<stop stop-opacity="0"/>
<stop offset="1" stop-opacity="0.2"/>
</linearGradient>
</defs>
</svg>
