<?xml version="1.0" encoding="utf-8"?>
<svg width="1024px" height="1024px" viewBox="0 0 1024 1024" version="1.1" xmlns:xlink="http://www.w3.org/1999/xlink" xmlns="http://www.w3.org/2000/svg">
  <desc>Created with Lunacy</desc>
  <defs>
    <linearGradient x1="0" y1="0" x2="1" y2="1" id="gradient_1">
      <stop offset="0" stop-color="#FFFFFF" stop-opacity="0.180392161" />
      <stop offset="0.487623572" stop-color="#808080" stop-opacity="0.0784313753" />
      <stop offset="1" stop-color="#000000" stop-opacity="0.184313729" />
    </linearGradient>
    <filter filterUnits="userSpaceOnUse" color-interpolation-filters="sRGB" id="filter_1">
      <feFlood flood-opacity="0" result="BackgroundImageFix" />
      <feColorMatrix in="SourceAlpha" type="matrix" values="0 0 0 0 0 0 0 0 0 0 0 0 0 0 0 0 0 0 127 0" />
      <feOffset dx="-3" dy="3" />
      <feGaussianBlur stdDeviation="4.5" />
      <feColorMatrix type="matrix" values="0 0 0 0 0 0 0 0 0 0 0 0 0 0 0 0 0 0 0.1215686 0" />
      <feBlend mode="normal" in2="BackgroundImageFix" result="effect0_dropShadow" />
      <feBlend mode="normal" in="SourceGraphic" in2="effect0_dropShadow" result="shape" />
    </filter>
    <path d="M23.7543 1.83129e-14L721.132 1.83129e-14Q721.715 1.83129e-14 722.298 0.0286131Q722.88 0.0572262 723.46 0.114384Q724.041 0.171541 724.617 0.257105Q725.194 0.342668 725.766 0.456433Q726.338 0.570197 726.904 0.711887Q727.469 0.853578 728.027 1.02285Q728.585 1.19213 729.135 1.38858Q729.684 1.58503 730.222 1.80819Q730.761 2.03135 731.288 2.28067Q731.815 2.52999 732.33 2.80488Q732.844 3.07977 733.344 3.37956Q733.844 3.67935 734.329 4.00332Q734.814 4.3273 735.282 4.67467Q735.751 5.02205 736.202 5.39198Q736.652 5.76192 737.084 6.15353Q737.516 6.54514 737.929 6.95748Q738.341 7.36982 738.733 7.80189Q739.124 8.23397 739.494 8.68474Q739.864 9.13551 740.212 9.60389Q740.559 10.0723 740.883 10.5571Q741.207 11.042 741.507 11.5422Q741.807 12.0423 742.081 12.5566Q742.356 13.0709 742.606 13.598Q742.855 14.1252 743.078 14.6639Q743.301 15.2027 743.498 15.7517Q743.694 16.3008 743.863 16.8588Q744.033 17.4168 744.174 17.9825Q744.316 18.5482 744.43 19.1201Q744.544 19.692 744.629 20.2688Q744.715 20.8457 744.772 21.426Q744.829 22.0063 744.858 22.5888Q744.886 23.1712 744.886 23.7543L744.886 883.267Q744.886 883.85 744.858 884.433Q744.829 885.015 744.772 885.595Q744.715 886.176 744.629 886.752Q744.544 887.329 744.43 887.901Q744.316 888.473 744.174 889.039Q744.033 889.604 743.863 890.162Q743.694 890.72 743.498 891.269Q743.301 891.818 743.078 892.357Q742.855 892.896 742.606 893.423Q742.356 893.95 742.081 894.465Q741.807 894.979 741.507 895.479Q741.207 895.979 740.883 896.464Q740.559 896.949 740.212 897.417Q739.864 897.886 739.494 898.336Q739.124 898.787 738.733 899.219Q738.341 899.651 737.929 900.064Q737.516 900.476 737.084 900.868Q736.652 901.259 736.202 901.629Q735.751 901.999 735.282 902.346Q734.814 902.694 734.329 903.018Q733.844 903.342 733.344 903.642Q732.844 903.941 732.33 904.216Q731.815 904.491 731.288 904.74Q730.761 904.99 730.222 905.213Q729.684 905.436 729.135 905.633Q728.586 905.829 728.027 905.998Q727.469 906.168 726.904 906.309Q726.338 906.451 725.766 906.565Q725.194 906.679 724.617 906.764Q724.041 906.85 723.46 906.907Q722.88 906.964 722.298 906.993Q721.715 907.021 721.132 907.021L23.7543 907.021Q23.1712 907.021 22.5887 906.993Q22.0063 906.964 21.426 906.907Q20.8457 906.85 20.2688 906.764Q19.692 906.679 19.1201 906.565Q18.5482 906.451 17.9825 906.309Q17.4168 906.168 16.8588 905.998Q16.3008 905.829 15.7517 905.633Q15.2027 905.436 14.6639 905.213Q14.1252 904.99 13.598 904.74Q13.0709 904.491 12.5566 904.216Q12.0423 903.941 11.5422 903.642Q11.042 903.342 10.5571 903.018Q10.0723 902.694 9.60389 902.347Q9.13551 901.999 8.68474 901.629Q8.23397 901.259 7.80189 900.868Q7.36982 900.476 6.95748 900.064Q6.54514 899.651 6.15353 899.219Q5.76192 898.787 5.39198 898.337Q5.02204 897.886 4.67467 897.417Q4.3273 896.949 4.00332 896.464Q3.67935 895.979 3.37956 895.479Q3.07977 894.979 2.80488 894.465Q2.52999 893.95 2.28067 893.423Q2.03135 892.896 1.80819 892.357Q1.58503 891.819 1.38858 891.27Q1.19213 890.721 1.02285 890.163Q0.853578 889.604 0.711887 889.039Q0.570197 888.473 0.456433 887.901Q0.342668 887.329 0.257105 886.753Q0.171541 886.176 0.114384 885.595Q0.0572262 885.015 0.0286131 884.433Q0 883.85 0 883.267L0 23.7543Q0 23.1712 0.0286131 22.5887Q0.0572262 22.0063 0.114384 21.426Q0.171541 20.8457 0.257105 20.2688Q0.342668 19.692 0.456433 19.1201Q0.570197 18.5482 0.711887 17.9825Q0.853578 17.4168 1.02285 16.8588Q1.19213 16.3008 1.38858 15.7517Q1.58503 15.2027 1.80819 14.6639Q2.03135 14.1252 2.28067 13.598Q2.52999 13.0709 2.80488 12.5566Q3.07977 12.0423 3.37956 11.5422Q3.67935 11.042 4.00332 10.5571Q4.3273 10.0723 4.67467 9.60389Q5.02204 9.13551 5.39198 8.68474Q5.76192 8.23397 6.15353 7.80189Q6.54514 7.36982 6.95748 6.95748Q7.36982 6.54514 7.80189 6.15353Q8.23397 5.76192 8.68474 5.39198Q9.13551 5.02204 9.60389 4.67467Q10.0723 4.3273 10.5571 4.00332Q11.042 3.67935 11.5422 3.37956Q12.0423 3.07977 12.5566 2.80488Q13.0709 2.52999 13.598 2.28067Q14.1252 2.03135 14.6639 1.80819Q15.2027 1.58503 15.7517 1.38858Q16.3008 1.19213 16.8588 1.02285Q17.4168 0.853578 17.9825 0.711887Q18.5482 0.570197 19.1201 0.456433Q19.692 0.342668 20.2688 0.257105Q20.8457 0.171541 21.426 0.114384Q22.0063 0.0572262 22.5887 0.0286131Q23.1712 1.83129e-14 23.7543 1.83129e-14L23.7543 1.83129e-14Z" transform="matrix(0.9871362 -0.1598812 0.1598812 0.9871362 0 119.0938)" id="path_1" />
    <path d="M1.00118 6.45456L66.3325 427.644Q66.3531 427.777 66.3819 427.908Q66.4107 428.039 66.4477 428.168Q66.4846 428.298 66.5295 428.424Q66.5744 428.551 66.6271 428.675Q66.6797 428.798 66.74 428.918Q66.8003 429.039 66.8679 429.155Q66.9355 429.271 67.0102 429.383Q67.085 429.494 67.1665 429.601Q67.248 429.708 67.336 429.81Q67.424 429.911 67.5182 430.007Q67.6123 430.103 67.7122 430.193Q67.8122 430.283 67.9175 430.366Q68.0228 430.45 68.1332 430.526Q68.2435 430.603 68.3584 430.673Q68.4732 430.743 68.5922 430.805Q68.7112 430.868 68.8339 430.923Q68.9565 430.978 69.0824 431.025Q69.2082 431.072 69.3367 431.111Q69.4652 431.151 69.5959 431.182Q69.7267 431.213 69.8591 431.236Q69.9915 431.259 70.1251 431.274Q70.2586 431.289 70.3929 431.295Q70.5271 431.302 70.6615 431.3Q70.7959 431.298 70.9299 431.287Q71.0639 431.277 71.197 431.259Q71.3301 431.24 71.4618 431.213Q71.5935 431.186 71.7233 431.151Q71.853 431.116 71.9804 431.073Q72.1077 431.03 72.2321 430.98Q72.3566 430.929 72.4776 430.87Q72.5986 430.812 72.7158 430.746Q72.8329 430.68 72.9458 430.607L164.529 371.336Q164.66 371.252 164.784 371.158Q164.908 371.064 165.025 370.962Q165.143 370.859 165.252 370.748Q165.362 370.638 165.463 370.52Q165.564 370.401 165.657 370.276Q165.749 370.151 165.832 370.019Q165.916 369.888 165.989 369.75Q166.063 369.613 166.126 369.471Q166.19 369.329 166.243 369.182Q166.296 369.036 166.338 368.886Q166.38 368.736 166.412 368.584Q166.443 368.431 166.464 368.277Q166.484 368.123 166.493 367.967Q166.503 367.812 166.501 367.656Q166.499 367.5 166.485 367.345Q166.472 367.19 166.448 367.036L113.367 31.4797Q113.342 31.3243 113.306 31.1711Q113.271 31.0179 113.224 30.8678Q113.177 30.7176 113.119 30.5712Q113.061 30.4249 112.993 30.2831Q112.925 30.1413 112.847 30.0049Q112.768 29.8684 112.68 29.7381Q112.592 29.6077 112.495 29.4841Q112.398 29.3604 112.292 29.2442Q112.186 29.128 112.072 29.0198Q111.957 28.9116 111.836 28.812Q111.714 28.7124 111.585 28.6219Q111.456 28.5314 111.322 28.4505Q111.187 28.3697 111.046 28.2988Q110.906 28.228 110.76 28.1676Q110.615 28.1071 110.466 28.0574Q110.317 28.0077 110.164 27.969L6.3309 1.60732Q6.20181 1.57454 6.07095 1.54979Q5.94008 1.52503 5.80795 1.50839Q5.67581 1.49174 5.54289 1.48328Q5.40998 1.47481 5.27679 1.47454Q5.14361 1.47428 5.01066 1.48223Q4.87772 1.49017 4.74551 1.5063Q4.61331 1.52242 4.48235 1.54666Q4.35139 1.5709 4.22217 1.60317Q4.09296 1.63543 3.96598 1.6756Q3.83899 1.71577 3.71473 1.76369Q3.59046 1.8116 3.46939 1.86709Q3.34831 1.92257 3.23088 1.98541Q3.11346 2.04825 3.00012 2.11821Q2.88679 2.18816 2.77799 2.26497Q2.66918 2.34178 2.56532 2.42515Q2.46146 2.50851 2.36293 2.59812Q2.2644 2.68773 2.17158 2.78324Q2.07876 2.87876 1.992 2.97981Q1.90524 3.08086 1.82488 3.18706Q1.74451 3.29327 1.67085 3.40422Q1.59718 3.51518 1.53049 3.63046Q1.4638 3.74574 1.40435 3.86492Q1.34489 3.98409 1.29289 4.10671Q1.24089 4.22932 1.19654 4.35491Q1.1522 4.48049 1.11568 4.60857Q1.07915 4.73665 1.0506 4.86673Q1.02204 4.99682 1.00155 5.12842Q0.981061 5.26002 0.968722 5.39263Q0.956383 5.52524 0.95224 5.65836Q0.948097 5.79147 0.952165 5.9246Q0.956234 6.05772 0.968498 6.19034Q0.980763 6.32295 1.00118 6.45456L1.00118 6.45456Z" transform="translate(462.7024 231.1699)" id="path_2" />
    <path d="M472.335 232.23L375.793 294.866Q375.657 294.955 375.514 295.033Q375.371 295.111 375.223 295.178Q375.075 295.245 374.923 295.3Q374.77 295.356 374.613 295.4Q374.457 295.444 374.298 295.477Q374.138 295.509 373.977 295.529Q373.816 295.549 373.654 295.557Q373.491 295.565 373.329 295.561Q373.166 295.556 373.005 295.54Q372.843 295.523 372.683 295.495Q372.523 295.466 372.366 295.426Q372.208 295.385 372.054 295.333Q371.9 295.281 371.751 295.217Q371.601 295.153 371.457 295.078Q371.313 295.004 371.174 294.918Q371.036 294.833 370.905 294.738L1.77933 26.6019Q1.6701 26.5226 1.56605 26.4366Q1.46199 26.3505 1.36351 26.2582Q1.26502 26.1659 1.1725 26.0675Q1.07998 25.9692 0.993781 25.8653Q0.907582 25.7614 0.828042 25.6523Q0.748502 25.5432 0.675932 25.4294Q0.603362 25.3156 0.538045 25.1974Q0.472728 25.0793 0.41492 24.9572Q0.357111 24.8352 0.307036 24.7099Q0.256962 24.5845 0.214817 24.4562Q0.172672 24.328 0.138622 24.1973Q0.104572 24.0667 0.0787485 23.9342Q0.0529255 23.8017 0.0354306 23.6678Q0.0179358 23.5339 0.00883753 23.3992Q-0.000260736 23.2645 -0.000926903 23.1295Q-0.00159307 22.9945 0.00617546 22.8598Q0.013944 22.725 0.0301169 22.5909Q0.0462898 22.4569 0.0708039 22.3241Q0.0953179 22.1914 0.128077 22.0604Q0.160837 21.9294 0.201714 21.8008Q0.242591 21.6721 0.291426 21.5462Q0.34026 21.4204 0.396862 21.2978Q0.453464 21.1753 0.517612 21.0565Q0.58176 20.9377 0.653203 20.8231Q0.724646 20.7086 0.803105 20.5987Q0.881565 20.4888 0.966734 20.3841Q1.0519 20.2793 1.14345 20.1801Q1.235 20.0809 1.33256 19.9876Q1.43013 19.8943 1.53333 19.8072Q1.63654 19.7202 1.74498 19.6398Q1.85342 19.5593 1.96667 19.4859Q2.07992 19.4124 2.19754 19.3461L35.5479 0.556135Q35.7813 0.424595 36.0293 0.32293Q36.2772 0.221265 36.5358 0.151037Q36.7944 0.080808 37.0598 0.0430928Q37.3251 0.00537765 37.593 0.000754867Q37.8609 -0.00386791 38.1274 0.0246726Q38.3938 0.0532132 38.6547 0.114479Q38.9156 0.175745 39.1669 0.268796Q39.4182 0.361847 39.6561 0.485255L471.973 224.774Q472.098 224.839 472.219 224.912Q472.34 224.985 472.455 225.065Q472.571 225.146 472.681 225.234Q472.791 225.322 472.895 225.417Q472.999 225.512 473.097 225.613Q473.194 225.715 473.285 225.823Q473.376 225.93 473.46 226.044Q473.543 226.157 473.619 226.276Q473.695 226.394 473.764 226.518Q473.832 226.641 473.892 226.768Q473.952 226.896 474.003 227.027Q474.055 227.158 474.098 227.292Q474.141 227.426 474.175 227.563Q474.209 227.7 474.234 227.839Q474.259 227.977 474.275 228.117Q474.291 228.257 474.298 228.398Q474.305 228.539 474.302 228.679Q474.3 228.82 474.288 228.961Q474.277 229.101 474.256 229.241Q474.236 229.38 474.206 229.518Q474.176 229.655 474.138 229.791Q474.099 229.926 474.052 230.059Q474.004 230.192 473.948 230.321Q473.892 230.45 473.828 230.576Q473.764 230.701 473.692 230.822Q473.619 230.943 473.539 231.059Q473.459 231.175 473.372 231.286Q473.284 231.396 473.19 231.501Q473.096 231.605 472.995 231.703Q472.894 231.802 472.786 231.893Q472.679 231.984 472.566 232.069Q472.453 232.153 472.335 232.23Z" transform="translate(154.7292 369.4141)" id="path_3" />
    <path d="M387.741 33.7179L46.2023 380.826Q46.0287 381.002 45.8361 381.158Q45.6435 381.313 45.4344 381.445Q45.2253 381.578 45.0025 381.685Q44.7796 381.793 44.546 381.875Q44.3123 381.956 44.0708 382.01Q43.8293 382.064 43.5833 382.091Q43.3372 382.117 43.0897 382.115Q42.8422 382.113 42.5966 382.083L3.78983 377.305Q3.64971 377.288 3.51101 377.261Q3.37231 377.235 3.23563 377.199Q3.09895 377.164 2.96487 377.12Q2.83079 377.076 2.69989 377.023Q2.56898 376.97 2.44181 376.909Q2.31464 376.847 2.19175 376.778Q2.06886 376.708 1.95077 376.631Q1.83268 376.553 1.7199 376.469Q1.60712 376.384 1.50013 376.292Q1.39313 376.199 1.29238 376.1Q1.19164 376.002 1.09757 375.896Q1.00349 375.791 0.916499 375.68Q0.829505 375.569 0.749961 375.452Q0.670416 375.335 0.59866 375.214Q0.526905 375.092 0.463245 374.966Q0.399585 374.84 0.344292 374.71Q0.289 374.58 0.242311 374.447Q0.195623 374.314 0.157737 374.178Q0.119852 374.042 0.090931 373.904Q0.0620104 373.765 0.0421784 373.626Q0.0223464 373.486 0.0116876 373.345Q0.00102882 373.204 -0.000411223 373.063Q-0.00185126 372.922 0.0059336 372.781Q0.0137185 372.64 0.030695 372.5Q0.0476715 372.36 0.0737671 372.221Q0.0998628 372.082 0.134966 371.945Q0.170069 371.809 0.214031 371.674Q0.257992 371.54 0.310623 371.409Q0.363254 371.278 0.42433 371.151Q0.485406 371.024 0.554666 370.901Q0.623927 370.778 0.701076 370.659Q0.778225 370.541 0.862932 370.428L277.375 1.72763Q277.47 1.60062 277.574 1.48094Q277.679 1.36126 277.791 1.24956Q277.904 1.13787 278.025 1.03477Q278.146 0.931659 278.274 0.837698Q278.402 0.743736 278.536 0.659427Q278.671 0.575117 278.811 0.500915Q278.951 0.426712 279.097 0.363018Q279.242 0.299323 279.392 0.246481Q279.542 0.193638 279.695 0.151932Q279.848 0.110227 280.004 0.0798838Q280.16 0.0495407 280.317 0.0307239Q280.475 0.0119071 280.634 0.00471822Q280.792 -0.00247069 280.951 0.0020071Q281.11 0.00648488 281.268 0.0226052Q281.426 0.0387255 281.582 0.0664013Q281.738 0.0940771 281.892 0.133159L385.726 26.504Q385.863 26.5389 385.998 26.5827Q386.133 26.6265 386.264 26.679Q386.396 26.7316 386.524 26.7927Q386.652 26.8537 386.775 26.923Q386.899 26.9924 387.018 27.0696Q387.136 27.1469 387.25 27.2318Q387.363 27.3167 387.471 27.4088Q387.579 27.501 387.68 27.6Q387.781 27.699 387.876 27.8044Q387.971 27.9098 388.058 28.0212Q388.146 28.1327 388.226 28.2496Q388.306 28.3665 388.378 28.4884Q388.45 28.6103 388.515 28.7367Q388.579 28.8631 388.634 28.9934Q388.69 29.1237 388.737 29.2574Q388.784 29.3911 388.822 29.5276Q388.86 29.664 388.889 29.8027Q388.918 29.9414 388.938 30.0817Q388.958 30.222 388.969 30.3633Q388.98 30.5046 388.981 30.6463Q388.982 30.788 388.974 30.9294Q388.967 31.0709 388.949 31.2116Q388.932 31.3522 388.906 31.4915Q388.88 31.6307 388.844 31.7679Q388.809 31.9051 388.765 32.0397Q388.72 32.1743 388.667 32.3057Q388.614 32.4371 388.553 32.5647Q388.491 32.6924 388.421 32.8157Q388.352 32.939 388.274 33.0575Q388.196 33.176 388.111 33.2891Q388.026 33.4023 387.933 33.5096Q387.84 33.6169 387.741 33.7179L387.741 33.7179Z" transform="translate(187.0461 231.6816)" id="path_4" />
    <path d="M0 10.878L606.605 110.796L786.272 0L0 10.878Z" transform="translate(162.9622 748.0371)" id="path_5" />
    <path d="M0 0L202.32 47.9894L302.089 657.555L122.756 767.75L0 0Z" transform="translate(647.0852 90.49609)" id="path_6" />
    <rect width="1024" height="1024" id="artboard_1" />
    <clipPath id="clip_1">
      <use xlink:href="#artboard_1" clip-rule="evenodd" />
    </clipPath>
  </defs>
  <g id="GERMANY" clip-path="url(#clip_1)">
    <g id="icon" transform="translate(37.448 5.085938)">
      <g filter="url(#filter_1)">
        <g id="Rectangle">
          <use stroke="none" fill="#000000" xlink:href="#path_1" />
          <use stroke="none" fill="url(#gradient_1)" xlink:href="#path_1" />
        </g>
      </g>
      <g filter="url(#filter_1)">
        <g id="Path-2">
          <use stroke="none" fill="#FFC000" xlink:href="#path_2" />
          <use stroke="none" fill="url(#gradient_1)" xlink:href="#path_2" />
        </g>
      </g>
      <g filter="url(#filter_1)">
        <g id="Path-4">
          <use stroke="none" fill="#FFCE00" xlink:href="#path_3" />
          <use stroke="none" fill="url(#gradient_1)" xlink:href="#path_3" />
        </g>
      </g>
      <g filter="url(#filter_1)">
        <g id="Path-3">
          <use stroke="none" fill="#FFCE00" xlink:href="#path_4" />
          <use stroke="none" fill="url(#gradient_1)" xlink:href="#path_4" />
        </g>
      </g>
      <g filter="url(#filter_1)">
        <g id="Path-6">
          <use stroke="none" fill="#DD0000" xlink:href="#path_5" />
          <use stroke="none" fill="url(#gradient_1)" xlink:href="#path_5" />
        </g>
      </g>
      <g filter="url(#filter_1)">
        <g id="Path-5">
          <use stroke="none" fill="#DD0000" xlink:href="#path_6" />
          <use stroke="none" fill="url(#gradient_1)" xlink:href="#path_6" />
        </g>
      </g>
    </g>
  </g>
</svg>