<svg xmlns="http://www.w3.org/2000/svg" xmlns:xlink="http://www.w3.org/1999/xlink" width="1024" height="1024" viewBox="0 0 1024 1024">
  <defs>
    <linearGradient id="github-c" x1="4.118%" x2="102%" y1="4.078%" y2="101%">
      <stop offset="0%" stop-color="#8A4792"/>
      <stop offset="100%" stop-color="#563A83"/>
    </linearGradient>
    <linearGradient id="github-d" x1="0%" y1="0%" y2="100%">
      <stop offset="0%" stop-color="#FFF" stop-opacity=".18"/>
      <stop offset="48.762%" stop-color="gray" stop-opacity=".08"/>
      <stop offset="100%" stop-opacity=".183"/>
    </linearGradient>
    <rect id="github-b" width="744.886" height="907.021" x="68.165" y="53.799" rx="23.755"/>
    <filter id="github-a" width="104%" height="103.3%" x="-2.4%" y="-1.3%" filterUnits="objectBoundingBox">
      <feOffset dx="-3" dy="3" in="SourceAlpha" result="shadowOffsetOuter1"/>
      <feGaussianBlur in="shadowOffsetOuter1" result="shadowBlurOuter1" stdDeviation="4.5"/>
      <feColorMatrix in="shadowBlurOuter1" values="0 0 0 0 0   0 0 0 0 0   0 0 0 0 0  0 0 0 0.12 0"/>
    </filter>
    <path id="github-e" d="M464.151711,236.712251 L529.482558,657.898473 C529.848189,660.255685 532.055489,661.870181 534.412701,661.50455 C535.01317,661.41141 535.587228,661.192617 536.097364,660.862466 L627.678747,601.592707 C629.11266,600.664705 629.865022,598.978865 629.598153,597.291833 L576.517132,261.736516 C576.247327,260.030929 574.987572,258.649954 573.313876,258.225029 L469.482667,231.863882 C467.170618,231.276888 464.820479,232.675322 464.233485,234.987371 C464.090397,235.550965 464.062584,236.137648 464.151711,236.712251 Z"/>
    <linearGradient id="github-g" x1="5.234%" x2="50%" y1="3.683%" y2="50%">
      <stop offset="0%" stop-opacity=".09"/>
      <stop offset="100%" stop-opacity="0"/>
    </linearGradient>
    <path id="github-f" d="M627.510916,601.73068 L530.970663,664.366129 C529.471239,665.338957 527.527506,665.28773 526.081406,664.237271 L156.957803,396.102934 C155.02785,394.701001 154.599806,391.999974 156.001739,390.070021 C156.366546,389.567815 156.835314,389.150139 157.376109,388.845449 L190.724601,370.056504 C191.9946,369.340972 193.53984,369.314311 194.833766,369.985608 L627.149131,594.273441 C629.266532,595.371961 630.092498,597.978981 628.993978,600.096381 C628.649489,600.760384 628.138453,601.323533 627.510916,601.73068 Z"/>
    <path id="github-i" d="M575.234009,265.486126 L233.696791,612.592348 C232.755338,613.549153 231.422544,614.013857 230.090289,613.849824 L191.285709,609.072051 C188.918187,608.780552 187.235237,606.624989 187.526736,604.257467 C187.618914,603.508802 187.905556,602.797331 188.358133,602.193865 L464.868442,233.49517 C465.914621,232.100196 467.696978,231.471108 469.387011,231.900328 L573.2185,258.270575 C575.530501,258.857758 576.928743,261.208011 576.34156,263.520012 C576.153129,264.261951 575.770899,264.940481 575.234009,265.486126 Z"/>
    <filter id="github-h" width="118%" height="118.3%" x="-9%" y="-5.8%" filterUnits="objectBoundingBox">
      <feOffset dy="13" in="SourceAlpha" result="shadowOffsetOuter1"/>
      <feGaussianBlur in="shadowOffsetOuter1" result="shadowBlurOuter1" stdDeviation="9.5"/>
      <feColorMatrix in="shadowBlurOuter1" values="0 0 0 0 0   0 0 0 0 0   0 0 0 0 0  0 0 0 0.1 0"/>
    </filter>
    <linearGradient id="github-k" x1="100%" x2="50%" y1="0%" y2="5.905%">
      <stop offset="0%" stop-opacity=".3"/>
      <stop offset="100%" stop-opacity="0"/>
    </linearGradient>
    <polygon id="github-j" points="163.41 759.002 770.015 858.92 949.682 748.124"/>
  </defs>
  <g fill="none" fill-rule="evenodd" transform="translate(37)">
    <g transform="rotate(-9.2 440.608 507.31)">
      <use fill="#000" filter="url(#github-a)" xlink:href="#github-b"/>
      <use fill="url(#github-c)" xlink:href="#github-b"/>
      <use fill="url(#github-d)" xlink:href="#github-b"/>
    </g>
    <use fill="#FFF" xlink:href="#github-e"/>
    <use fill="#E0E0E0" xlink:href="#github-e" style="mix-blend-mode:multiply"/>
    <use fill="#FFF" xlink:href="#github-f"/>
    <use fill="url(#github-g)" xlink:href="#github-f"/>
    <use fill="#000" filter="url(#github-h)" xlink:href="#github-i"/>
    <use fill="#FFF" xlink:href="#github-i"/>
    <use fill="#FFF" xlink:href="#github-j"/>
    <use fill="url(#github-k)" xlink:href="#github-j"/>
    <polygon fill="#FFF" points="647.533 90.582 849.853 138.571 949.622 748.137 770.289 858.332"/>
  </g>
</svg>
