<?xml version="1.0" encoding="UTF-8"?>
<svg width="950px" height="1016px" viewBox="0 0 950 1016" version="1.1" xmlns="http://www.w3.org/2000/svg" xmlns:xlink="http://www.w3.org/1999/xlink">
    <!-- Generator: Sketch 52.6 (67491) - http://www.bohemiancoding.com/sketch -->
    <title>hacktoberfest-2019</title>
    <desc>Created with Sketch.</desc>
    <defs>
        <linearGradient x1="50%" y1="18.6084553%" x2="50%" y2="81.5862786%" id="linearGradient-1">
            <stop stop-color="#45A2FF" offset="0%"></stop>
            <stop stop-color="#454CE2" offset="100%"></stop>
        </linearGradient>
        <linearGradient x1="50%" y1="0%" x2="50%" y2="98.959086%" id="linearGradient-2">
            <stop stop-color="#45A2FF" offset="0%"></stop>
            <stop stop-color="#454CE2" offset="100%"></stop>
        </linearGradient>
        <linearGradient x1="50%" y1="3.87452707%" x2="50%" y2="82.6521087%" id="linearGradient-3">
            <stop stop-color="#FB01AB" offset="0%"></stop>
            <stop stop-color="#9023CA" offset="100%"></stop>
        </linearGradient>
        <linearGradient x1="100%" y1="0%" x2="50%" y2="5.90452261%" id="linearGradient-4">
            <stop stop-color="#000000" stop-opacity="0.3" offset="0%"></stop>
            <stop stop-color="#000000" stop-opacity="0" offset="100%"></stop>
        </linearGradient>
        <linearGradient x1="50%" y1="0%" x2="50%" y2="98.959086%" id="linearGradient-5">
            <stop stop-color="#FB01AB" offset="8.43343569%"></stop>
            <stop stop-color="#9023CA" offset="83.0970014%"></stop>
        </linearGradient>
        <linearGradient x1="50%" y1="0%" x2="50%" y2="98.959086%" id="linearGradient-6">
            <stop stop-color="#FB01AB" offset="11.7842305%"></stop>
            <stop stop-color="#9023CA" offset="82.0222182%"></stop>
        </linearGradient>
    </defs>
    <g id="Page-1" stroke="none" stroke-width="1" fill="none" fill-rule="evenodd">
        <g id="hacktoberfest">
            <g id="Rectangle" transform="translate(440.945466, 507.941297) rotate(-9.200000) translate(-440.945466, -507.941297) translate(67.945466, 53.941297)">
                <g id="path-1-link" fill="url(#linearGradient-1)">
                    <path d="M23.9200688,0.7989054 L721.295794,0.7989054 C734.415495,0.7989054 745.051113,11.434524 745.051113,24.5542245 L745.051113,884.064863 C745.051113,897.184563 734.415495,907.820182 721.295794,907.820182 L23.9200688,907.820182 C10.8003683,907.820182 0.1647497,897.184563 0.1647497,884.064863 L0.1647497,24.5542245 C0.1647497,11.434524 10.8003683,0.7989054 23.9200688,0.7989054 Z" id="path-1"></path>
                </g>
                <g id="path-1-link" fill="url(#linearGradient-2)">
                    <path d="M23.9200688,0.7989054 L721.295794,0.7989054 C734.415495,0.7989054 745.051113,11.434524 745.051113,24.5542245 L745.051113,884.064863 C745.051113,897.184563 734.415495,907.820182 721.295794,907.820182 L23.9200688,907.820182 C10.8003683,907.820182 0.1647497,897.184563 0.1647497,884.064863 L0.1647497,24.5542245 C0.1647497,11.434524 10.8003683,0.7989054 23.9200688,0.7989054 Z" id="path-1"></path>
                </g>
            </g>
            <g id="Path-2" transform="translate(464.000000, 232.000000)" fill="#FFF922">
                <g id="path-3-link">
                    <path d="M0.151711,5.712251 L65.482558,426.898473 C65.848189,429.255685 68.055489,430.870181 70.412701,430.50455 C71.01317,430.41141 71.587228,430.192617 72.097364,429.862466 L163.678747,370.592707 C165.11266,369.664705 165.865022,367.978865 165.598153,366.291833 L112.517132,30.736516 C112.247327,29.030929 110.987572,27.649954 109.313876,27.225029 L5.482667,0.863882 C3.170618,0.276888 0.820479,1.675322 0.233485,3.987371 C0.090397,4.550965 0.062584,5.137648 0.151711,5.712251 Z" id="path-3"></path>
                </g>
                <g id="path-3-link" style="mix-blend-mode: multiply;">
                    <path d="M0.151711,5.712251 L65.482558,426.898473 C65.848189,429.255685 68.055489,430.870181 70.412701,430.50455 C71.01317,430.41141 71.587228,430.192617 72.097364,429.862466 L163.678747,370.592707 C165.11266,369.664705 165.865022,367.978865 165.598153,366.291833 L112.517132,30.736516 C112.247327,29.030929 110.987572,27.649954 109.313876,27.225029 L5.482667,0.863882 C3.170618,0.276888 0.820479,1.675322 0.233485,3.987371 C0.090397,4.550965 0.062584,5.137648 0.151711,5.712251 Z" id="path-3"></path>
                </g>
            </g>
            <path d="M627.510916,602.73068 L530.970663,665.366129 C529.471239,666.338957 527.527506,666.28773 526.081406,665.237271 L156.957803,397.102934 C155.02785,395.701001 154.599806,392.999974 156.001739,391.070021 C156.366546,390.567815 156.835314,390.150139 157.376109,389.845449 L190.724601,371.056504 C191.9946,370.340972 193.53984,370.314311 194.833766,370.985608 L627.149131,595.273441 C629.266532,596.371961 630.092498,598.978981 628.993978,601.096381 C628.649489,601.760384 628.138453,602.323533 627.510916,602.73068 Z" id="Path-4" fill="#FFF922"></path>
            <g id="Path-3" transform="translate(187.000000, 232.000000)" fill="#FFF922">
                <g id="path-4-link">
                    <path d="M388.234009,34.486126 L46.696791,381.592348 C45.755338,382.549153 44.422544,383.013857 43.090289,382.849824 L4.285709,378.072051 C1.918187,377.780552 0.235237,375.624989 0.526736,373.257467 C0.618914,372.508802 0.905556,371.797331 1.358133,371.193865 L277.868442,2.49517 C278.914621,1.100196 280.696978,0.471108 282.387011,0.900328 L386.2185,27.270575 C388.530501,27.857758 389.928743,30.208011 389.34156,32.520012 C389.153129,33.261951 388.770899,33.940481 388.234009,34.486126 Z" id="path-4"></path>
                </g>
                <g id="path-4-link">
                    <path d="M388.234009,34.486126 L46.696791,381.592348 C45.755338,382.549153 44.422544,383.013857 43.090289,382.849824 L4.285709,378.072051 C1.918187,377.780552 0.235237,375.624989 0.526736,373.257467 C0.618914,372.508802 0.905556,371.797331 1.358133,371.193865 L277.868442,2.49517 C278.914621,1.100196 280.696978,0.471108 282.387011,0.900328 L386.2185,27.270575 C388.530501,27.857758 389.928743,30.208011 389.34156,32.520012 C389.153129,33.261951 388.770899,33.940481 388.234009,34.486126 Z" id="path-4"></path>
                </g>
            </g>
            <g id="Path-6" transform="translate(163.000000, 749.000000)">
                <g id="path-7-link" fill="url(#linearGradient-3)">
                    <polygon id="path-7" points="0.409868 11.001849 607.015314 110.92013 786.681618 0.123836"></polygon>
                </g>
                <g id="path-7-link" fill="url(#linearGradient-5)">
                    <polygon id="path-7" points="0.409868 11.001849 607.015314 110.92013 786.681618 0.123836"></polygon>
                </g>
            </g>
            <polygon id="Path-5" fill="url(#linearGradient-6)" points="647.533292 91.581917 849.853183 139.571289 949.622317 749.136886 770.289418 859.33173"></polygon>
        </g>
    </g>
</svg>