<?xml version="1.0" encoding="UTF-8"?>
<svg width="1024px" height="1024px" viewBox="0 0 1024 1024" version="1.1" xmlns="http://www.w3.org/2000/svg" xmlns:xlink="http://www.w3.org/1999/xlink">
    <!-- Generator: Sketch 52.2 (67145) - http://www.bohemiancoding.com/sketch -->
    <title>India</title>
    <desc>Created with Sketch.</desc>
    <defs>
        <path d="M83.0822077,221.134882 L780.457933,221.134882 C793.577633,221.134882 804.213252,231.770501 804.213252,244.890201 L804.213252,661.400839 C804.213252,674.52054 793.577633,685.156158 780.457933,685.156158 L83.0822077,685.156158 C69.9625072,685.156158 59.3268885,674.52054 59.3268885,661.400839 L59.3268885,244.890201 C59.3268885,231.770501 69.9625072,221.134882 83.0822077,221.134882 Z" id="path-1"></path>
        <filter x="-2.4%" y="-2.6%" width="104.0%" height="106.5%" filterUnits="objectBoundingBox" id="filter-2">
            <feOffset dx="-3" dy="3" in="SourceAlpha" result="shadowOffsetOuter1"></feOffset>
            <feGaussianBlur stdDeviation="4.5" in="shadowOffsetOuter1" result="shadowBlurOuter1"></feGaussianBlur>
            <feColorMatrix values="0 0 0 0 0   0 0 0 0 0   0 0 0 0 0  0 0 0 0.12 0" type="matrix" in="shadowBlurOuter1"></feColorMatrix>
        </filter>
        <path d="M43.518267,57.9345962 L740.893992,57.9345962 C754.013693,57.9345962 764.649311,68.5702148 764.649311,81.6899153 L764.649311,336.519277 C764.649311,349.638978 754.013693,360.274596 740.893992,360.274596 L19.7629478,360.274596 L19.7629478,81.6899153 C19.7629478,68.5702148 30.3985665,57.9345962 43.518267,57.9345962 Z" id="path-3"></path>
        <filter x="-2.4%" y="-4.0%" width="104.0%" height="109.9%" filterUnits="objectBoundingBox" id="filter-4">
            <feOffset dx="-3" dy="3" in="SourceAlpha" result="shadowOffsetOuter1"></feOffset>
            <feGaussianBlur stdDeviation="4.5" in="shadowOffsetOuter1" result="shadowBlurOuter1"></feGaussianBlur>
            <feColorMatrix values="0 0 0 0 0   0 0 0 0 0   0 0 0 0 0  0 0 0 0.12 0" type="matrix" in="shadowBlurOuter1"></feColorMatrix>
        </filter>
        <path d="M114.368584,642.76581 L837.473899,643.085574 C850.589626,643.09119 861.219047,653.725162 861.219047,666.840891 L861.22922,921.670253 C861.22922,934.789953 850.593601,945.425572 837.473901,945.425572 L139.943723,945.425572 C126.884496,945.425572 116.274094,934.884157 116.188909,921.825207 L114.368584,642.76581 Z" id="path-5"></path>
        <filter x="-2.4%" y="-4.0%" width="104.0%" height="109.9%" filterUnits="objectBoundingBox" id="filter-6">
            <feOffset dx="-3" dy="3" in="SourceAlpha" result="shadowOffsetOuter1"></feOffset>
            <feGaussianBlur stdDeviation="4.5" in="shadowOffsetOuter1" result="shadowBlurOuter1"></feGaussianBlur>
            <feColorMatrix values="0 0 0 0 0   0 0 0 0 0   0 0 0 0 0  0 0 0 0.12 0" type="matrix" in="shadowBlurOuter1"></feColorMatrix>
        </filter>
        <radialGradient cx="35.1939356%" cy="5.50374947%" fx="35.1939356%" fy="5.50374947%" r="218.73406%" gradientTransform="translate(0.351939,0.055037),scale(1.000000,0.384331),rotate(80.897412),translate(-0.351939,-0.055037)" id="radialGradient-7">
            <stop stop-color="#3535AD" offset="0%"></stop>
            <stop stop-color="#000080" offset="51.9395773%"></stop>
            <stop stop-color="#3535AD" offset="100%"></stop>
        </radialGradient>
        <path d="M468.151711,228.712251 L533.482558,649.898473 C533.848189,652.255685 536.055489,653.870181 538.412701,653.50455 C539.01317,653.41141 539.587228,653.192617 540.097364,652.862466 L631.678747,593.592707 C633.11266,592.664705 633.865022,590.978865 633.598153,589.291833 L580.517132,253.736516 C580.247327,252.030929 578.987572,250.649954 577.313876,250.225029 L473.482667,223.863882 C471.170618,223.276888 468.820479,224.675322 468.233485,226.987371 C468.090397,227.550965 468.062584,228.137648 468.151711,228.712251 Z" id="path-8"></path>
        <path d="M579.234009,257.486126 L237.696791,604.592348 C236.755338,605.549153 235.422544,606.013857 234.090289,605.849824 L195.285709,601.072051 C192.918187,600.780552 191.235237,598.624989 191.526736,596.257467 C191.618914,595.508802 191.905556,594.797331 192.358133,594.193865 L468.868442,225.49517 C469.914621,224.100196 471.696978,223.471108 473.387011,223.900328 L577.2185,250.270575 C579.530501,250.857758 580.928743,253.208011 580.34156,255.520012 C580.153129,256.261951 579.770899,256.940481 579.234009,257.486126 Z" id="path-9"></path>
        <filter x="-9.0%" y="-5.8%" width="118.0%" height="118.3%" filterUnits="objectBoundingBox" id="filter-10">
            <feOffset dx="0" dy="13" in="SourceAlpha" result="shadowOffsetOuter1"></feOffset>
            <feGaussianBlur stdDeviation="9.5" in="shadowOffsetOuter1" result="shadowBlurOuter1"></feGaussianBlur>
            <feComposite in="shadowBlurOuter1" in2="SourceAlpha" operator="out" result="shadowBlurOuter1"></feComposite>
            <feColorMatrix values="0 0 0 0 0   0 0 0 0 0   0 0 0 0 0  0 0 0 0.1 0" type="matrix" in="shadowBlurOuter1"></feColorMatrix>
        </filter>
        <linearGradient x1="100%" y1="0%" x2="50%" y2="5.90452261%" id="linearGradient-11">
            <stop stop-color="#000000" stop-opacity="0.3" offset="0%"></stop>
            <stop stop-color="#000000" stop-opacity="0" offset="100%"></stop>
        </linearGradient>
        <polygon id="path-12" points="167.409868 751.001849 774.015314 850.92013 953.681618 740.123836"></polygon>
    </defs>
    <g id="India" stroke="none" stroke-width="1" fill="none" fill-rule="evenodd">
        <g id="icon" transform="translate(33.000000, 8.000000)">
            <g id="Rectangle" transform="translate(431.770070, 453.145520) rotate(-9.200000) translate(-431.770070, -453.145520) ">
                <use fill="black" fill-opacity="1" filter="url(#filter-2)" xlink:href="#path-1"></use>
                <use fill="#FFFFFF" fill-rule="evenodd" xlink:href="#path-1"></use>
            </g>
            <g id="Rectangle" transform="translate(392.206130, 209.104596) rotate(-9.200000) translate(-392.206130, -209.104596) ">
                <use fill="black" fill-opacity="1" filter="url(#filter-4)" xlink:href="#path-3"></use>
                <use fill="#FF9933" fill-rule="evenodd" xlink:href="#path-3"></use>
            </g>
            <g id="Rectangle" transform="translate(487.798902, 794.095691) rotate(-9.200000) translate(-487.798902, -794.095691) ">
                <use fill="black" fill-opacity="1" filter="url(#filter-6)" xlink:href="#path-5"></use>
                <use fill="#138808" fill-rule="evenodd" xlink:href="#path-5"></use>
            </g>
            <g id="Path-2">
                <use fill="url(#radialGradient-7)" xlink:href="#path-8"></use>
                <use fill="#D0D0D0" style="mix-blend-mode: multiply;" xlink:href="#path-8"></use>
            </g>
            <path d="M631.510916,593.73068 L534.970663,656.366129 C533.471239,657.338957 531.527506,657.28773 530.081406,656.237271 L160.957803,388.102934 C159.02785,386.701001 158.599806,383.999974 160.001739,382.070021 C160.366546,381.567815 160.835314,381.150139 161.376109,380.845449 L194.724601,362.056504 C195.9946,361.340972 197.53984,361.314311 198.833766,361.985608 L631.149131,586.273441 C633.266532,587.371961 634.092498,589.978981 632.993978,592.096381 C632.649489,592.760384 632.138453,593.323533 631.510916,593.73068 Z" id="Path-4" fill="#000080"></path>
            <g id="Path-3">
                <use fill="black" fill-opacity="1" filter="url(#filter-10)" xlink:href="#path-9"></use>
                <use fill-opacity="0.991338315" fill="#000080" fill-rule="evenodd" xlink:href="#path-9"></use>
            </g>
            <g id="Path-6">
                <use fill="#000080" xlink:href="#path-12"></use>
                <use fill="url(#linearGradient-11)" xlink:href="#path-12"></use>
            </g>
            <polygon id="Path-5" fill="#000080" points="651.533292 82.581917 853.853183 130.571289 953.622317 740.136886 774.289418 850.33173"></polygon>
        </g>
    </g>
</svg>