<svg xmlns="http://www.w3.org/2000/svg" xmlns:xlink="http://www.w3.org/1999/xlink" viewBox="0 0 1024 1024">
  <defs>
    <style>
      .cls-1 {
        clip-path: url(#clip-instagram-macOS);
      }

      .cls-2 {
        fill: url(#linear-gradient);
      }

      .cls-3 {
        fill: url(#linear-gradient-2);
      }

      .cls-4 {
        fill: #ffc600;
      }

      .cls-5 {
        fill: url(#linear-gradient-3);
      }

      .cls-6 {
        fill: #f46f30;
      }

      .cls-7 {
        fill: url(#linear-gradient-4);
      }

      .cls-8 {
        fill: url(#linear-gradient-5);
      }

      .cls-9 {
        fill: url(#linear-gradient-6);
      }

      .cls-10 {
        fill: url(#linear-gradient-7);
      }

      .cls-11 {
        filter: url(#Path_3);
      }

      .cls-12 {
        filter: url(#Rectangle);
      }
    </style>
    <linearGradient id="linear-gradient" x1="0.5" x2="0.5" y2="1" gradientUnits="objectBoundingBox">
      <stop offset="0" stop-color="#c32aa3"/>
      <stop offset="0.494" stop-color="#7132bc"/>
      <stop offset="0.5" stop-color="#7232bd"/>
      <stop offset="0.837" stop-color="#451e72"/>
      <stop offset="1" stop-color="#39195f"/>
    </linearGradient>
    <filter id="Rectangle" x="20.948" y="-10.414" width="907.32" height="1041.447" filterUnits="userSpaceOnUse">
      <feOffset dx="-3" dy="3" input="SourceAlpha"/>
      <feGaussianBlur stdDeviation="4.5" result="blur"/>
      <feFlood flood-opacity="0.122"/>
      <feComposite operator="in" in2="blur"/>
      <feComposite in="SourceGraphic"/>
    </filter>
    <linearGradient id="linear-gradient-2" x2="1" y2="1" gradientUnits="objectBoundingBox">
      <stop offset="0" stop-color="#fff" stop-opacity="0.18"/>
      <stop offset="0.488" stop-color="gray" stop-opacity="0.078"/>
      <stop offset="1" stop-opacity="0.184"/>
    </linearGradient>
    <linearGradient id="linear-gradient-3" x1="0.202" y1="0.477" x2="1.368" y2="0.449" gradientUnits="objectBoundingBox">
      <stop offset="0" stop-color="#f46f30"/>
      <stop offset="1" stop-color="#ffdc7d"/>
    </linearGradient>
    <linearGradient id="linear-gradient-4" x1="0.052" y1="0.037" x2="0.5" y2="0.5" gradientUnits="objectBoundingBox">
      <stop offset="0" stop-color="#4c5fd7" stop-opacity="0.09"/>
      <stop offset="0.635" stop-color="#212438" stop-opacity="0.055"/>
      <stop offset="0.97" stop-color="#232c62" stop-opacity="0.043"/>
      <stop offset="1" stop-opacity="0"/>
    </linearGradient>
    <filter id="Path_3" x="195.989" y="216.267" width="445.988" height="439.115" filterUnits="userSpaceOnUse">
      <feOffset dy="13" input="SourceAlpha"/>
      <feGaussianBlur stdDeviation="9.5" result="blur-2"/>
      <feFlood flood-opacity="0.102"/>
      <feComposite operator="in" in2="blur-2"/>
      <feComposite in="SourceGraphic"/>
    </filter>
    <linearGradient id="linear-gradient-5" x1="0.5" x2="-0.185" y2="-0.847" gradientUnits="objectBoundingBox">
      <stop offset="0" stop-color="#ffdc7d"/>
      <stop offset="1" stop-color="#f46f30"/>
    </linearGradient>
    <linearGradient id="linear-gradient-6" x1="1" x2="0.5" y2="0.059" gradientUnits="objectBoundingBox">
      <stop offset="0" stop-opacity="0.302"/>
      <stop offset="1" stop-opacity="0"/>
    </linearGradient>
    <linearGradient id="linear-gradient-7" x2="-0.783" y2="0.04" xlink:href="#linear-gradient-5"/>
    <clipPath id="clip-instagram-macOS">
      <rect width="1024" height="1024"/>
    </clipPath>
  </defs>
  <g id="instagram-macOS" class="cls-1">
    <g id="icon" transform="translate(37)">
      <g id="Rectangle-2" data-name="Rectangle">
        <g class="cls-12" transform="matrix(1, 0, 0, 1, -37, 0)">
          <rect id="Rectangle-3" data-name="Rectangle" class="cls-2" width="744.886" height="907.021" rx="23.755" transform="translate(37.45 119.18) rotate(-9.2)"/>
        </g>
        <rect id="Rectangle-4" data-name="Rectangle" class="cls-3" width="744.886" height="907.021" rx="23.755" transform="translate(0.448 119.179) rotate(-9.2)"/>
      </g>
      <g id="Path_2" data-name="Path 2">
        <path id="Path_2-2" data-name="Path 2" class="cls-4" d="M6.332,1.608A4.319,4.319,0,0,0,1,6.456L66.332,427.642a4.319,4.319,0,0,0,6.615,2.964l91.581-59.27a4.319,4.319,0,0,0,1.919-4.3L113.367,31.48a4.319,4.319,0,0,0-3.2-3.511Z" transform="translate(463.15 230.256)"/>
        <path id="Path_2-3" data-name="Path 2" class="cls-5" d="M6.332,1.608A4.319,4.319,0,0,0,1,6.456L66.332,427.642a4.319,4.319,0,0,0,6.615,2.964l91.581-59.27a4.319,4.319,0,0,0,1.919-4.3L113.367,31.48a4.319,4.319,0,0,0-3.2-3.511Z" transform="translate(463.15 230.256)"/>
      </g>
      <g id="Path_4" data-name="Path 4">
        <path id="Path_4-2" data-name="Path 4" class="cls-6" d="M471.972,224.773a4.319,4.319,0,0,1,.362,7.457l-96.54,62.635a4.319,4.319,0,0,1-4.889-.129L1.781,26.6A4.319,4.319,0,0,1,2.2,19.345L35.547.556A4.319,4.319,0,0,1,39.657.486Z" transform="translate(155.177 369.5)"/>
        <path id="Path_4-3" data-name="Path 4" class="cls-7" d="M471.972,224.773a4.319,4.319,0,0,1,.362,7.457l-96.54,62.635a4.319,4.319,0,0,1-4.889-.129L1.781,26.6A4.319,4.319,0,0,1,2.2,19.345L35.547.556A4.319,4.319,0,0,1,39.657.486Z" transform="translate(155.177 369.5)"/>
      </g>
      <g class="cls-11" transform="matrix(1, 0, 0, 1, -37, 0)">
        <path id="Path_3-2" data-name="Path 3" class="cls-6" d="M385.724,26.5a4.319,4.319,0,0,1,2.016,7.216L46.2,380.825a4.319,4.319,0,0,1-3.607,1.257l-38.8-4.778a4.319,4.319,0,0,1-2.928-6.878l276.51-368.7A4.319,4.319,0,0,1,281.893.133Z" transform="translate(224.49 231.77)"/>
      </g>
      <g id="Path_6" data-name="Path 6">
        <path id="Path_6-2" data-name="Path 6" class="cls-8" d="M0,10.878,606.605,110.8,786.272,0Z" transform="translate(163.41 748.124)"/>
        <path id="Path_6-3" data-name="Path 6" class="cls-9" d="M0,10.878,606.605,110.8,786.272,0Z" transform="translate(163.41 748.124)"/>
      </g>
      <path id="Path_5" data-name="Path 5" class="cls-10" d="M0,0,202.32,47.989l99.769,609.566L122.756,767.75Z" transform="translate(647.533 90.582)"/>
    </g>
  </g>
</svg>
