<svg xmlns="http://www.w3.org/2000/svg" xmlns:xlink="http://www.w3.org/1999/xlink" width="1024" height="1024" viewBox="0 0 1024 1024">
  <defs>
    <linearGradient id="lannister-c" x1="0%" y1="0%" y2="100%">
      <stop offset="0%" stop-color="#FFF" stop-opacity=".18"/>
      <stop offset="48.762%" stop-color="gray" stop-opacity=".08"/>
      <stop offset="100%" stop-opacity=".183"/>
    </linearGradient>
    <rect id="lannister-b" width="744.886" height="907.021" x="68.165" y="53.799" rx="23.755"/>
    <filter id="lannister-a" width="104%" height="103.3%" x="-2.4%" y="-1.3%" filterUnits="objectBoundingBox">
      <feOffset dx="-3" dy="3" in="SourceAlpha" result="shadowOffsetOuter1"/>
      <feGaussianBlur in="shadowOffsetOuter1" result="shadowBlurOuter1" stdDeviation="4.5"/>
      <feColorMatrix in="shadowBlurOuter1" values="0 0 0 0 0   0 0 0 0 0   0 0 0 0 0  0 0 0 0.12 0"/>
    </filter>
  </defs>
  <g fill="none" fill-rule="evenodd" transform="translate(37)">
    <g transform="rotate(-9.2 440.608 507.31)">
      <use fill="#000" filter="url(#lannister-a)" xlink:href="#lannister-b"/>
      <use fill="#7A211A" xlink:href="#lannister-b"/>
      <use fill="url(#lannister-c)" xlink:href="#lannister-b"/>
    </g>
    <path fill="#C3BC92" d="M703.648695,305.686735 C707.224357,302.323413 707.334377,298.238986 708,293.895842 C703.588184,294.440799 703.24162,294.776581 702.889555,298.233481 C702.498982,302.273871 698.257698,305.96747 694.186945,305.802332 C691.948031,305.714258 689.665109,305.306916 687.470203,305.571138 C680.032827,306.490409 673.811176,301.046341 672.446924,293.967402 C672.215881,292.778404 670.6976,291.484819 669.459871,290.895825 C666.593841,289.541689 663.496768,288.693978 660.570227,287.43342 C659.310494,286.882958 658.243297,285.853594 657.088083,285.055425 C658.303808,283.673765 659.277488,281.466413 660.740759,281.092099 C665.394619,279.897597 667.93609,277.459051 669.77893,272.824162 C673.12905,264.440628 673.459111,263.669982 667.501509,257.306643 C667.231959,257.609397 666.808381,257.884628 666.74787,258.225914 C665.053556,266.972753 660.900288,270.853509 652.269192,271.728743 C651.01496,271.85535 649.71672,271.98746 648.567007,272.444344 C644.452246,274.073711 640.414499,275.846198 636.327243,277.558134 C630.430152,280.062736 625.897314,275.74161 621.452492,273.611323 C616.331044,271.139749 610.890538,270.325066 605.730584,269.40029 C596.604396,267.776427 587.703749,270.137909 578.957131,273.875545 C573.456114,276.231521 568.901271,279.363649 564.219905,282.853577 C555.533799,289.321504 548.387977,297.005951 543.062992,306.396831 C541.858269,308.538127 540.961603,310.844562 539.910909,313.051914 C537.281423,318.58956 534.404391,324.022619 534.750955,330.479536 C534.866476,332.554778 534.376886,334.668551 534.057827,336.732783 C533.507725,340.217207 532.534045,343.668602 532.352511,347.16954 C532.093963,352.470487 533.452715,357.683361 534.085332,362.885225 C535.097519,371.263255 535.91717,379.619266 538.068068,387.821147 C539.256288,392.40099 540.037433,397.134962 541.627227,401.577189 C544.119188,408.546036 547.205258,415.294698 549.933763,422.180976 C551.182494,425.313104 552.172677,428.53881 553.641449,432.760852 C542.039803,432.948009 529.200428,430.003039 522.852254,442.90036 C515.359868,458.186685 515.376371,466.283979 521.878574,475.746418 C521.999596,473.671177 521.994095,472.206948 522.214136,470.775748 C522.577203,468.436285 522.549698,465.810582 523.6444,463.845433 C526.66996,458.500448 534.052325,455.929792 540.119948,457.581177 C544.67479,458.825221 546.946711,463.058273 544.691293,465.942693 C543.123503,467.957383 541.704241,470.08767 540.301481,472.217958 C536.478274,478.041844 537.220912,482.412511 542.754935,486.419873 C542.94197,485.583171 543.217021,484.768488 543.305037,483.9483 C544.1852,475.234489 550.082291,470.786757 558.713387,472.493189 C560.055635,472.762915 561.249356,473.731728 562.520091,474.370264 C561.700439,475.773941 561.111831,477.408813 560.011627,478.542764 C555.5393,483.177653 554.312573,487.366668 557.398644,492.755689 C558.7849,489.629066 560.033631,485.985009 561.92048,482.704256 C563.70281,479.62167 566.497327,477.948266 570.430554,479.032675 C574.693843,480.199654 579.05615,480.92076 583.286432,482.131776 C584.441646,482.462053 585.629866,483.673069 586.190969,484.790506 C587.571725,487.482265 588.484894,490.410722 589.766631,493.157526 C591.460944,496.763052 593.650349,500.175915 594.970593,503.908046 C595.43818,505.251173 594.453498,507.82183 593.27628,508.856698 C591.554461,510.397991 589.128513,511.21818 586.8951,512.060386 C579.699769,514.8182 577.59838,521.495302 574.809364,527.621943 C574.40779,528.519196 574.853372,529.801772 574.919385,531.227468 C582.884858,526.807259 583.357945,526.730195 586.510028,529.262319 C581.564614,535.532079 575.419977,539.495405 567.245465,539.853205 C560.941299,540.133941 554.604127,541.614683 548.828059,537.1064 C545.830004,534.772442 543.558084,528.232955 545.246896,524.836606 C546.193071,522.920999 546.413112,520.647591 546.968715,518.539322 C546.308592,518.319137 545.653971,518.109962 545.004851,517.889777 C543.585589,521.09897 541.907778,524.231098 540.813076,527.555887 C539.828394,530.572418 539.21228,533.776106 538.909724,536.957776 C538.656677,539.781645 538.898722,542.699093 539.21228,545.539476 C539.421319,547.300954 540.450009,548.974358 540.664549,550.730331 C541.275161,555.877149 544.575772,560.40745 549.642209,560.616626 C556.446968,560.924885 563.427759,560.732223 570.105994,559.510198 C579.716272,557.743215 589.073503,560.710204 594.046422,568.669883 C597.27552,573.838719 596.637402,584.418596 592.170575,589.025962 C585.866409,595.548935 577.240814,598.521429 568.917774,600.090245 C556.931057,602.352643 544.812316,602.776499 533.364698,595.389301 C526.901003,591.233314 523.567386,586.328699 522.038103,579.337833 C520.981908,574.438723 520.035733,569.473557 518.407432,564.750594 C517.004672,560.671672 514.716249,556.884495 512.818398,552.965206 C511.701691,550.664276 510.645496,548.324813 509.473779,546.051405 C507.867482,542.963314 505.925623,540.018344 504.583375,536.82016 C503.065094,533.236654 502.201434,529.366907 500.760168,525.750372 C499.120864,521.632918 496.837942,517.746657 495.385673,513.568652 C493.460317,508.091556 491.942037,502.460332 490.50077,496.834612 C487.992306,487.058409 485.538852,477.276702 483.321942,467.445453 C482.232741,462.59038 481.710144,457.603196 481.110533,453.816018 C483.861042,450.067373 487.211161,447.028824 488.602919,443.274674 C490.830831,437.241612 490.973857,431.004879 486.754577,425.15347 C484.807217,422.445197 483.602494,418.8727 483.068895,415.525892 C481.682639,406.971715 483.343946,405.760699 491.292916,408.733193 C497.679598,411.116693 505.804601,409.646959 509.561796,404.555187 C510.628993,403.107473 515.216842,401.725813 512.598357,399.072587 C509.935865,400.393696 507.724456,402.259761 505.364519,402.474442 C498.031663,403.134996 491.127886,394.78449 492.019051,387.083528 C492.899214,379.492659 495.5287,371.918304 492.195083,364.255875 C491.782507,363.309081 491.887026,361.96045 492.228089,360.964114 C492.382118,360.50723 494.17545,360.011815 494.406492,360.265027 C495.913771,361.921917 497.068985,363.892571 498.587266,365.532947 C499.863502,366.936625 501.310269,368.279752 502.944072,369.204527 C505.925623,370.921968 509.066704,372.424729 512.23529,373.789875 C513.374001,374.274281 514.782261,374.120152 516.069499,374.263272 C515.502894,373.063265 515.10132,371.791698 514.391689,370.701784 C513.09895,368.73113 510.584985,366.925615 510.447459,364.938448 C509.979873,357.375102 510.265926,349.773224 510.265926,342.204374 C511.591671,341.74749 512.625862,341.378681 513.671056,341.020881 C520.66835,338.631876 523.721415,333.551114 523.028286,326.141897 C522.456181,320.136358 518.511951,316.173033 515.15633,311.807871 C514.463202,310.899608 513.929603,309.886759 513.307988,308.917946 C514.584225,308.598678 515.85496,308.163813 517.147699,307.998675 C518.946531,307.767481 520.772869,307.750967 522.588205,307.640874 C522.588205,307.178486 522.588205,306.716098 522.588205,306.25371 C521.686038,305.708753 520.34379,305.378476 519.953218,304.574802 C516.66911,297.837149 512.950422,291.226102 512.790893,283.387525 C512.752386,280.849896 513.737068,280.161819 516.168518,279.732459 C519.584649,279.121446 522.852254,277.69575 526.180369,276.622349 C526.213376,276.187484 526.240881,275.763629 526.295891,275.334268 C521.031417,275.411333 515.711933,274.106739 513.951608,269.482859 C512.389319,265.343386 506.360203,263.11952 508.005008,257.928665 C512.202284,258.275456 515.788947,258.561696 519.392114,258.847936 C519.584649,258.391053 519.766183,257.934169 519.96422,257.471781 C519.018045,256.222233 518.18189,254.857088 517.09819,253.73965 C515.739438,252.330468 514.105636,251.168993 512.708378,249.776325 C510.007378,247.10108 507.817973,243.423995 504.599878,241.855179 C501.013214,240.093701 500.716159,238.23314 501.502805,235.06248 C502.278448,231.902829 502.636015,228.726664 500.82618,226.888121 C497.294527,229.618412 494.032423,232.128518 490.781322,234.644129 C490.418255,234.308347 490.060689,233.972565 489.69212,233.642288 C490.363244,230.157865 491.721996,226.634909 491.507456,223.211036 C491.292916,219.91377 489.450076,216.721091 488.316866,213.478871 C487.942797,213.627495 487.563227,213.77612 487.194658,213.924745 C486.622553,217.128433 486.77108,220.722949 485.269302,223.409202 C483.855541,225.952336 480.719961,227.543171 478.33802,229.535843 C477.716405,229.089969 477.105792,228.649599 476.489678,228.19822 C477.243318,226.122979 478.139984,224.08627 478.71759,221.966992 C479.069656,220.656893 479.284195,219.121105 478.943132,217.860547 C478.409533,215.867875 477.589882,213.853185 476.44567,212.146753 C475.367471,210.517386 473.722667,209.267837 472.319907,207.847646 C472.01185,209.432976 471.79731,211.051334 471.390235,212.603636 C470.796125,214.899062 470.735614,217.860547 469.244838,219.302757 C465.185087,223.282596 459.876605,223.464249 454.370087,222.990851 C446.003039,222.28626 437.586483,221.955983 429.19193,221.746808 C425.874816,221.675248 423.443367,223.200027 421.385986,226.32665 C419.664168,228.935839 416.528588,231.357871 413.541535,232.244115 C408.090027,233.867977 402.258948,234.374402 396.581898,235.2056 C393.803884,235.618446 390.80583,235.200095 388.258859,236.113862 C385.893421,236.967078 382.147228,236.961573 382.070214,240.869852 C382.009703,244.739599 381.861175,248.68641 382.48279,252.490102 C383.258434,257.284624 384.782216,261.952541 385.970435,266.686513 C386.26749,267.836978 386.476529,269.014966 386.823093,270.649838 C385.7779,270.903051 384.254118,271.381952 382.713833,271.602137 C376.899257,272.42783 371.541266,270.726903 366.133766,268.844323 C363.740824,268.013126 361.045325,267.892024 360.610745,264.743383 C360.203669,261.737861 359.648067,258.64977 362.882665,256.524987 C363.44927,256.150673 363.861846,254.350663 363.603298,254.152497 C361.859476,252.803865 360.04414,251.020369 358.003262,250.64055 C351.440548,249.429534 345.317916,251.091929 340.785078,256.101131 C338.870723,258.22041 337.302933,261.479144 337.23142,264.258976 C337.115899,270.016807 344.228714,276.870057 349.955274,277.651713 C351.330528,277.833365 352.645271,278.526947 354.031528,278.681076 C357.475165,279.060895 361.067329,279.941634 364.406447,279.413191 C371.057177,278.378322 377.498868,276.011337 384.144097,275.16913 C391.212905,274.249859 398.435741,274.365456 405.581563,274.200317 C410.020884,274.095729 412.512845,278.730618 410.059391,282.578346 C409.5698,283.348993 407.638943,284.086612 407.033831,283.728812 C404.948946,282.473759 403.144612,280.739804 401.125739,279.093923 C401.070728,279.126951 400.993714,279.187501 400.911199,279.220529 C396.020794,281.273752 394.871082,283.315965 390.91585,277.932448 C390.679306,277.613181 388.456895,278.020522 388.115832,278.62603 C386.795588,280.993016 385.882419,283.574682 384.782216,286.06277 C383.049395,289.982058 381.29457,293.895842 379.18218,298.618805 C388.962989,299.763765 398.083676,296.989438 406.802789,299.736242 C404.745408,312.666591 395.866766,315.892297 386.460026,313.861093 C383.093403,313.134484 379.930318,311.455575 376.563695,310.817039 C366.903909,308.984001 358.696391,312.358332 351.869628,318.974884 C349.278649,321.48499 347.479816,321.154713 345.818509,318.633597 C341.643236,312.314295 336.840848,306.523437 331.471855,301.189461 C329.221939,298.949082 326.773986,296.81329 324.898139,294.275661 C322.109123,290.493988 319.782193,286.376533 317.191213,282.45174 C315.562912,279.980166 314.220664,276.198494 311.98175,275.504912 C308.323573,274.359951 307.966007,271.365439 306.277195,269.158087 C303.774232,265.921371 301.529817,262.480984 299.241393,259.068121 C298.278715,257.647929 296.760434,256.112141 296.760434,254.614884 C296.73843,247.310256 297.00798,239.983609 297.431559,232.689989 C297.860638,225.32481 298.647283,217.976144 299.180882,210.599955 C299.263397,209.543068 298.927835,208.398108 298.608776,207.35223 C296.73843,201.418251 294.807573,195.511796 292.95373,189.566808 C292.678679,188.669555 292.453138,187.585145 292.706185,186.715416 C293.542339,183.781454 293.184773,181.194283 290.758824,179.207116 C289.048008,177.803438 287.188664,176.614441 285.461344,175.370397 C281.968198,178.79427 285.279811,180.060332 287.045638,181.684194 C284.861734,183.742922 275.554012,184.381457 273.628656,182.592456 C273.117061,182.102545 273.045548,181.100705 272.858513,180.30804 C271.472257,174.054793 267.05494,172.320838 261.047829,175.689665 C262.439586,176.994259 264.474963,178.045641 265.069073,179.65299 C265.773203,181.53557 265.855718,184.161273 265.069073,185.983301 C264.293429,187.772302 261.746458,188.735611 260.668259,190.480575 C258.594375,193.816373 256.052905,192.522788 253.824993,191.361314 C251.145997,189.968645 248.764057,187.970469 246.94322,186.709911 C243.884654,188.30625 241.585229,189.500752 238.56517,191.080578 C241.865781,193.095268 244.605287,194.746654 247.306287,196.381526 C247.306287,199.838426 247.614344,203.476979 247.229273,207.027458 C246.67367,212.410975 248.709047,216.864211 253.571946,219.611016 C260.448218,223.497276 261.295375,225.952336 258.902432,233.658802 C258.280817,235.673492 258.418342,237.919377 258.159795,240.655172 C255.959388,240.655172 253.291394,240.655172 250.034792,240.655172 C250.271336,238.579931 250.595896,236.57625 250.689413,234.567064 C250.733421,233.686325 250.573891,232.60742 250.062297,231.974389 C249.787246,231.627598 248.522012,231.897324 247.80688,232.150536 C242.580913,234.005593 240.061447,241.524902 242.624921,246.435021 C243.80764,248.691915 244.231218,251.394683 244.742813,253.95433 C245.2159,256.255261 244.462261,259.602069 245.771503,260.769048 C248.901582,263.54888 250.425364,267.853492 254.941699,269.537905 C256.790041,270.231487 260.580242,272.637005 258.423843,276.352623 C254.270575,275.89574 250.249331,275.185644 246.206084,275.125093 C243.692119,275.075551 239.511345,280.976502 239.797398,283.530645 C240.3475,283.453581 240.897602,283.448076 241.425699,283.299451 C243.912159,282.583851 245.96954,280.249893 249.061112,282.292106 C253.516936,285.253591 258.434845,287.521494 262.780649,290.609585 C264.232918,291.644453 265.718193,294.165568 263.061201,296.312369 C262.054515,297.127053 261.190855,298.365592 260.767277,299.587617 C258.330326,306.567474 260.822287,312.374846 267.572036,315.27578 C269.5414,316.123491 272.148882,315.870279 271.86833,313.162007 C271.208208,306.76564 276.098613,307.514268 279.525747,307.002339 C283.701019,306.369307 284.861734,308.224364 284.658196,312.446406 C284.542675,315.105137 284.553677,318.281302 285.851917,320.406085 C288.019318,323.951059 288.321874,326.995113 286.501037,330.600638 C285.851917,331.872205 285.147786,333.831849 285.697888,334.82268 C287.419707,338.020864 289.70813,340.905284 292.2496,344.582369 C293.151767,341.846574 293.679865,340.266748 294.174956,338.758483 C299.97853,337.888753 299.97853,337.888753 299.989532,343.464931 C299.989532,345.022738 300.138059,346.591555 299.918018,348.110829 C299.769491,349.11267 299.290902,350.285154 298.559267,350.934699 C295.423687,353.714531 292.392627,356.786108 288.800462,358.855845 C286.704574,360.050347 283.447972,360.165944 281.044027,359.543922 C279.685276,359.186122 278.805113,356.367757 278.100983,354.507196 C277.54538,353.059481 277.583887,351.375068 277.369348,349.789738 C277.077794,349.844784 276.791741,349.905335 276.511189,349.965886 C275.488,351.881493 274.475813,353.791596 273.38111,355.872341 C273.70567,356.483354 274.431804,357.419139 274.750863,358.487035 C276.384666,363.898075 279.49274,366.71644 285.213799,366.127446 C289.92267,365.643039 295.363176,364.982485 298.922334,362.323754 C302.36047,359.764107 305.017462,360.452184 308.587622,360.512735 C308.483103,362.428342 308.400587,364.0467 308.312571,365.615516 C306.057154,366.41919 304.098792,367.129286 302.151432,367.839382 C299.010351,368.962324 298.801312,370.443067 301.238263,372.859594 C306.640262,378.232102 313.285491,379.041281 320.442315,378.47981 C321.592027,378.386231 322.813253,379.19541 323.995972,379.597247 C323.027793,380.356884 322.153131,381.562396 321.058429,381.804599 C316.085509,382.933046 311.046577,383.797271 306.03515,384.74957 C305.87562,387.182611 305.760099,388.949594 305.644578,390.782632 C308.989196,390.782632 311.965247,390.782632 315.403383,390.782632 C315.122831,392.846864 315.452892,394.883573 314.600234,396.023029 C309.247744,403.129491 300.495625,403.410227 293.234282,397.035878 C292.717187,396.567986 291.721502,396.645051 290.95136,396.468903 C290.868845,397.223036 290.439765,398.379005 290.769826,398.665246 C292.370622,400.057914 294.03193,401.99554 295.902276,402.309303 C300.165564,403.030408 299.807998,405.331339 299.010351,408.358879 C293.932911,409.068974 288.442896,407.47814 284.443656,412.096515 C283.833043,412.812115 282.045213,412.569912 280.801983,412.696518 C279.16818,412.883675 277.528877,412.988263 275.906077,413.120374 C275.614523,414.898365 275.399983,416.235988 275.174442,417.579115 C272.985037,417.876364 271.037677,418.415817 269.117821,418.355266 C263.655311,418.1571 258.121287,418.184623 252.779799,417.21581 C248.334977,416.401126 244.24222,413.648817 239.8084,412.916703 C233.295195,411.843302 227.084547,410.472652 221.611034,406.531345 C219.658173,405.122163 217.584289,403.35518 215.345375,402.975362 C210.818038,402.221229 206.158676,402.248752 201.554324,402.056091 C198.908335,401.940494 195.580219,403.074445 193.720876,401.85242 C188.252864,398.252399 184.132602,400.134979 180.116859,403.834082 C178.994652,404.868951 178.417045,406.487308 177.602894,407.841445 C179.049662,407.863463 180.523935,407.747866 181.937696,407.957042 C183.516488,408.171722 185.056773,408.683651 186.602559,409.06347 C186.01395,410.406597 185.755402,412.190093 184.743215,412.999272 C182.262256,414.958916 179.434733,416.467182 176.744736,418.1571 C173.41662,420.248855 172.976539,427.272748 176.189133,430.140654 C176.651218,429.243401 176.860257,427.96633 177.542383,427.625043 C178.934141,426.931461 180.567943,426.51311 182.135733,426.430541 C182.746346,426.408523 184.055588,427.691099 183.962071,428.170001 C183.477981,430.762676 182.93338,433.426911 181.860682,435.799402 C180.782482,438.232443 178.373037,440.197592 177.762424,442.669166 C176.700727,446.957263 178.477556,450.584807 182.636325,452.940784 C182.872869,452.241697 183.246938,451.493069 183.406468,450.700404 C184.534176,445.019638 186.112968,443.907705 191.547974,445.168262 C195.360179,446.043497 199.001852,446.35726 202.021911,443.153572 C202.368475,442.790267 202.99009,442.437972 203.479681,442.454486 C210.515482,442.729716 217.413758,442.278338 223.992975,439.283825 C224.741113,438.948044 227.293585,440.428786 227.244076,440.907688 C227.112052,442.366412 226.45193,444.160917 225.357227,445.025142 C224.301032,445.872854 222.45269,445.751752 220.813387,446.065515 C219.537151,454.680243 213.051451,450.997653 207.654953,451.058204 C208.07303,452.99583 208.133541,454.685748 208.821169,456.078416 C210.383458,459.20504 214.77327,460.746333 217.050691,459.716969 C219.394124,458.649073 222.106126,457.383011 224.499069,457.619709 C230.748224,458.241731 236.595806,457.052734 241.59073,453.755467 C245.672485,451.063709 248.868576,447.034328 252.46074,443.604951 C255.266259,448.570117 254.446608,454.718776 249.770743,457.740811 C247.069743,459.496784 247.850888,460.746333 248.604527,462.694968 C252.51025,461.660099 256.421473,461.296795 259.612063,459.590363 C262.769647,457.900445 265.201097,454.856391 268.600726,451.823346 C268.496207,457.707783 270.806634,461.472942 275.840065,462.342672 C280.394907,463.146346 285.125782,462.964694 290.131708,463.239925 C289.746637,461.918817 289.724633,461.638081 289.576106,461.43441 C289.422077,461.208721 289.108519,461.104133 288.932487,460.905967 C286.016947,457.740811 282.402779,454.927951 283.717522,449.75361 C284.399648,447.006805 285.604371,444.749911 288.838969,446.197626 C290.819336,447.094879 292.337616,448.960945 294.202461,450.188475 C297.767121,452.560965 301.243764,455.2252 305.127482,456.909614 C307.322388,457.861913 310.248929,457.085761 311.82222,457.085761 C311.82222,451.740777 311.82222,447.221485 311.82222,442.795772 C319.474136,441.221451 322.241148,441.67283 323.654909,444.821472 C326.570448,451.327931 323.478876,455.720616 317.669802,459.271095 C318.95704,459.871098 319.666671,460.239908 320.409309,460.548167 C328.545314,463.999562 329.276949,463.223411 334.079337,455.775662 C335.834162,453.034362 335.971687,450.733432 336.411769,448.036169 C336.565797,447.08387 337.599988,445.817807 338.502155,445.526063 C340.300988,444.942573 342.803951,444.083853 344.09669,444.860004 C346.47313,446.302214 348.183946,448.850852 350.708913,451.487564 C350.983964,449.346268 350.879445,447.122402 351.600078,445.195786 C352.425231,443.010452 353.646456,440.670989 355.384778,439.21777 C356.347456,438.408591 358.707393,439.256302 360.445714,439.344376 C360.126655,440.885669 359.923117,442.454486 359.455531,443.951742 C359.048456,445.223309 358.31682,446.395792 357.733712,447.617818 C358.025266,447.964609 358.327822,448.322409 358.630378,448.674704 C360.951808,447.94259 363.267736,447.232494 365.50665,446.538912 C371.139692,454.977493 376.910259,463.762864 382.823853,472.449152 C387.307183,479.03818 392.472638,485.148307 398.545761,490.273106 C409.971375,499.917198 421.628031,509.297068 430.699209,521.324659 C434.681945,526.625607 438.703189,531.987105 440.369997,538.708244 C441.173146,541.900923 442.185333,545.489934 444.292223,547.801874 C447.52132,551.341344 445.62897,554.550536 445.871015,558.767074 C439.946419,554.649619 434.819471,551.192719 429.813545,547.57068 C426.776983,545.390851 424.097988,542.74313 420.978911,540.739449 C418.475948,539.148614 415.593415,537.315576 412.793397,537.172456 C401.582323,536.566948 390.327241,536.688049 379.088662,536.291717 C375.83206,536.170615 372.608464,535.09171 369.34636,534.684368 C367.399,534.442165 365.391129,534.640331 362.354567,534.640331 C364.549473,536.434837 365.759697,537.420164 367.55853,538.884392 C361.997001,540.398162 357.431156,541.950465 352.74429,542.836708 C348.117934,543.711943 343.117509,541.884409 337.787023,544.168826 C339.998432,545.390851 341.357183,546.139479 342.858961,546.970677 C342.286855,547.719305 342.110823,548.203711 341.791764,548.324813 C333.468724,551.616575 326.966522,557.214772 321.113439,563.880865 C316.399067,569.247868 311.299624,574.0534 302.998588,573.46991 C295.027614,572.913944 294.994608,573.354313 292.068067,566.1873 C290.687311,567.018497 289.295554,567.833181 287.755269,568.741443 C288.558417,569.611172 289.405574,570.216681 289.823651,571.025859 C292.57416,576.332312 295.880272,580.807566 301.826872,583.196571 C303.444171,583.857125 307.179362,586.108514 304.885437,589.290184 C300.699163,595.064528 296.001294,600.398504 288.151342,601.174655 C287.161159,601.279243 286.203982,601.664566 285.230302,601.917778 C296.204832,605.473762 307.025333,606.932486 317.900845,600.833369 C317.27923,606.260922 323.269838,609.39305 320.112254,614.693998 C317.724812,618.673837 316.20103,623.165606 314.231666,627.602328 C315.98099,628.141781 317.240723,628.532609 319.182582,629.132612 C317.730313,631.686755 316.503586,633.861079 315.65643,635.352831 C316.762134,637.136327 318.335425,638.54551 318.390435,640.009738 C318.434443,641.826262 317.207717,643.67031 316.476081,645.657477 C317.086694,645.723532 318.109883,646.18592 318.665486,645.850138 C322.175135,643.774897 325.591267,641.518004 329.364965,639.101476 C329.871059,640.312492 330.157112,641.529013 330.817234,642.497826 C335.036514,648.651989 333.089154,656.176803 326.168874,658.510761 C321.944093,659.930953 317.416755,660.921784 312.988436,661.125455 C303.466175,661.554815 294.273975,663.189687 286.071957,668.110816 C282.023209,670.549362 278.420042,673.973234 275.16344,677.452153 C271.879332,680.942081 269.65142,685.444859 266.301301,688.863227 C261.240364,694.037569 260.602246,697.731168 265.036066,703.852303 C266.873406,701.02293 268.699744,698.237593 270.51508,695.452256 C271.956347,698.441263 273.359106,700.918342 270.240029,703.169731 C269.288353,703.863313 268.820767,705.822957 268.875777,707.177093 C268.958292,709.219306 269.673424,711.250511 270.130009,713.314743 C271.64829,713.507404 272.990538,713.683552 274.327285,713.843186 C274.640843,712.500059 274.618839,711.239501 275.190945,710.375276 C276.379165,708.547743 277.622395,705.933049 279.333211,705.503689 C280.873496,705.107356 283.673514,706.714705 284.79022,708.261503 C286.220485,710.254175 286.649564,713.017493 287.298684,715.511085 C287.711261,717.10192 287.496721,718.885416 288.041322,720.4157 C289.389071,724.252419 293.421317,726.002888 296.5734,724.021226 C293.003239,722.171674 293.619353,719.490925 295.682235,717.256049 C297.084994,715.736775 299.186383,714.404657 301.183253,713.958783 C305.853616,712.934924 309.082714,710.122064 312.108273,706.769751 C315.100827,703.46698 318.159393,700.219255 321.300474,697.070613 C321.92759,696.426573 323.0663,696.299967 323.968467,695.931157 C324.172005,696.927493 324.782618,698.044931 324.513068,698.892642 C323.368856,702.547709 323.22583,706.059655 324.315031,709.824814 C324.700102,711.129409 323.742925,713.479881 322.609716,714.437685 C320.629349,716.138612 318.060374,717.151462 315.221849,718.731287 C317.60379,719.936799 319.710679,721.846901 321.817569,721.830387 C324.249019,721.824883 327.907196,720.779005 328.853371,719.006518 C331.482857,714.063371 336.703323,713.600983 340.647552,711.415649 C346.610655,708.085355 348.624027,702.52569 351.374536,697.263275 C353.063349,694.026559 353.761978,690.250391 355.494798,687.052208 C356.798539,684.64669 358.883425,682.554934 360.995816,680.760429 C362.107021,679.791616 364.021375,679.764093 365.578163,679.30721 C365.968736,680.683364 366.69487,682.065023 366.661864,683.435673 C366.595852,686.358626 365.825709,689.287083 365.952233,692.193521 C366.084257,695.424733 366.898408,698.617411 367.426505,701.837613 C368.042619,701.95321 368.675236,702.074312 369.296851,702.189909 C369.318855,693.977018 374.808871,690.965992 380.898497,688.307261 C382.614815,687.553128 384.259619,686.00633 385.255303,684.404486 C387.092643,681.437497 388.434891,678.167754 390.37675,674.242961 C392.841206,675.740217 395.877768,677.600778 399.431425,679.780607 C398.512755,675.514527 397.181509,672.277812 397.231018,669.085133 C397.418053,659.116269 392.467137,653.248346 383.687513,649.488691 C380.067844,647.941893 376.86075,645.294172 373.609649,642.965718 C373.125559,642.629937 373.037543,641.083139 373.406111,640.455612 C373.681162,639.998729 375.083922,639.817077 375.782551,640.064784 C376.789237,640.433594 377.592386,641.308828 378.516557,641.941859 C383.324446,645.211603 388.341374,647.435469 393.534334,645.547384 C392.417628,642.855626 390.855339,640.48864 390.580288,637.96202 C390.244726,634.824388 391.135891,631.582167 391.196402,628.372975 C391.229408,627.481227 390.250227,626.56746 389.733131,625.659198 C387.956303,622.532575 385.909924,619.510539 384.567676,616.202263 C384.232114,615.382075 386.003441,612.651784 387.065138,612.49215 C390.893846,611.897652 394.546522,615.723362 394.579528,619.752742 C394.579528,621.756423 394.579528,623.765609 394.579528,626.347275 C396.10331,625.62617 396.944965,625.422499 397.500568,624.916074 C401.010217,621.723396 403.887249,618.260991 403.392158,613.009585 C403.293139,611.925175 404.008272,609.844429 404.530868,609.783878 C405.94463,609.613235 407.655446,609.960026 408.854668,610.736177 C409.723829,611.292144 409.954872,612.838941 410.466466,613.94537 C411.02757,613.554542 411.594175,613.163714 412.149778,612.772886 C412.210289,611.754532 412.347814,610.736177 412.303806,609.728832 C412.006751,603.348979 414.911288,600.194833 421.198951,600.470064 C422.497192,600.530615 424.780114,601.422363 424.857128,602.132458 C425.038662,603.701275 424.351034,605.539817 423.580892,607.026064 C422.255147,609.624244 420.346294,611.947193 419.103064,614.572896 C417.232718,618.481175 415.334867,622.450005 414.146647,626.594983 C412.666873,631.796847 409.492786,636.695958 410.895546,642.547367 C411.225607,643.901504 411.104584,645.448301 410.829533,646.857484 C409.921866,651.547419 408.843666,656.193317 407.809475,660.987839 C408.843666,661.483255 410.070393,662.072249 412.105769,663.035557 C410.515975,667.631914 408.783155,672.08515 407.51242,676.664993 C407.193361,677.865 408.16154,679.505376 408.739147,680.854007 C409.305752,682.169611 410.851537,683.49072 410.686507,684.619166 C410.213419,687.767808 409.085711,690.817367 408.502603,692.865085 C408.739147,696.217398 409.78434,699.129341 408.887674,701.188068 C407.176858,705.112861 404.354836,708.553248 402.011402,712.158773 C404.453854,713.512909 406.390212,714.602823 408.139536,715.582645 C409.223236,714.019334 410.213419,711.911065 411.775708,710.424818 C417.051184,705.454147 424.152998,702.564223 427.877187,695.777028 C428.92238,693.839402 433.779778,694.208212 434.450903,696.123819 C435.589613,699.410076 435.089021,703.637623 439.929916,704.490839 C440.16646,704.529371 440.474517,705.26699 440.397502,705.597267 C439.253291,710.53491 442.685926,710.556929 445.860013,710.518396 C446.371607,712.654188 446.822691,714.514749 447.174756,716.045033 C449.100112,716.276227 451.614077,716.034024 451.883627,716.711092 C453.841989,721.516624 460.921799,721.71479 461.515909,727.621246 C461.559917,728.050606 462.698627,728.2818 463.083699,728.788225 C464.640487,730.835943 466.329299,732.828615 467.550525,735.068995 C470.136003,739.802967 469.140319,744.88373 468.007109,749.71128 C467.027928,753.905799 465.828706,758.281971 463.628299,761.926028 C457.643192,771.900397 447.152752,776.760975 438.048568,783.162846 C433.713766,786.212405 429.164425,788.948201 424.785615,791.937208 C421.275966,794.315204 418.728995,797.293202 418.101879,801.829008 C417.815826,803.920763 416.534089,806.034536 415.257852,807.829042 C411.51166,813.096962 411.154093,816.768542 414.366688,822.168573 C417.111695,819.730027 415.455889,813.757516 421.600526,813.553845 C421.600526,819.157547 421.540014,824.557577 421.62253,829.952104 C421.67754,834.097081 426.006841,837.763157 430.501172,837.515449 C430.501172,836.144799 430.732215,834.702589 430.462665,833.381481 C429.879557,830.530089 429.819046,827.871358 433.196671,826.9686 C436.453273,826.104375 440.314987,828.713564 440.645048,831.977803 C441.613227,841.809052 451.806613,844.434755 459.051453,839.733811 C457.703704,839.398029 456.498981,839.01821 455.266753,838.781512 C452.070662,838.192517 450.607391,834.570478 452.774792,832.065877 C454.315077,830.287885 456.366956,828.961272 457.962251,827.210804 C460.294683,824.640147 462.814149,822.102518 464.508462,819.119014 C466.004739,816.487807 467.225965,814.285959 470.565082,813.768525 C474.569823,813.168522 479.828796,806.997845 479.834297,802.962959 C479.845299,796.940907 483.222924,793.148224 488.190343,789.955546 C488.564412,791.821611 488.872469,793.918871 487.975803,795.162915 C485.340815,798.878532 484.884231,802.131762 488.371876,805.495084 C488.888972,806.001509 489.048501,806.981331 489.136518,807.785005 C489.615106,812.144663 489.879155,816.471293 484.884231,819.322685 C486.859096,819.741036 488.87797,820.093332 490.038684,819.278648 C492.06856,817.81442 493.878395,815.832757 495.264651,813.718984 C497.580579,810.163 498.785302,805.577653 501.761353,802.836353 C506.101656,798.851009 508.065519,794.518874 507.729957,788.88765 C507.636439,787.21975 507.009323,785.524328 507.168853,783.90597 C507.300877,782.700459 508.335069,781.605039 508.962185,780.454574 C510.34294,781.23623 512.059258,781.73715 513.016435,782.876606 C514.386188,784.522487 515.051811,786.740849 516.322546,788.485813 C516.768129,789.096825 518.72099,789.537195 518.957533,789.256459 C522.148124,785.188546 525.652272,781.230725 527.973701,776.683911 C528.826359,775.005002 526.873498,771.823332 526.02084,769.379282 C525.305708,767.293031 524.326527,765.283846 523.47937,763.258146 C522.175629,760.203083 523.429861,757.50582 526.009838,756.608567 C527.495113,756.085628 530.284129,757.560866 531.686888,758.964544 C535.735637,762.971906 536.335248,767.518721 532.517542,772.22517 C532.292,772.505905 532.594556,773.22701 532.787091,774.900414 C534.013818,773.480223 534.404391,772.599484 535.037008,772.36829 C541.533709,770.006808 544.322725,765.349901 544.091682,758.562706 C544.064177,757.610407 544.927837,756.388382 545.725485,755.683791 C548.894071,752.88194 552.249691,750.305779 555.418277,747.509433 C558.46034,744.823179 559.841096,741.333251 559.511035,737.265338 C559.445022,736.522214 559.153468,735.487346 558.61987,735.184592 C558.174287,734.931379 556.925556,735.338721 556.573491,735.828632 C553.470917,740.149758 549.026095,738.107544 545.329411,737.755249 C543.618595,737.584605 541.506204,734.711195 540.807575,732.652467 C539.70187,729.426761 543.349045,725.804722 547.249266,725.485454 C548.938079,725.347839 550.610388,725.105635 552.2937,724.89646 C552.392718,724.516641 552.491736,724.142327 552.585253,723.762508 C550.472863,722.094609 548.090922,720.674417 546.281087,718.720278 C541.555713,713.611992 536.269236,710.204633 528.930878,711.04684 C525.745789,711.40464 523.044789,710.446836 520.926898,707.711041 C519.216081,705.509194 518.880519,701.727521 520.948902,699.778886 C523.402356,697.461441 525.899818,697.863278 528.331267,700.021089 C530.135601,701.639447 532.033452,703.131198 533.903798,704.689005 C534.415393,704.40827 534.932488,704.133039 535.449584,703.857808 C534.668439,700.901828 534.431896,697.654103 533.018134,695.044914 C530.498668,690.365988 526.02084,689.099926 520.794873,688.967815 C518.352422,688.912769 515.887966,687.189823 513.572037,685.956789 C513.26398,685.797155 513.42351,683.738427 513.979113,683.165947 C516.251033,680.859512 518.985039,678.982437 521.113932,676.5549 C522.406671,675.068653 522.467183,672.376895 523.886445,671.138356 C526.202374,669.101647 525.569757,667.477784 524.739103,665.831904 C520.888391,667.477784 517.42275,669.767706 513.676557,670.400737 C504.154295,672.019095 497.030478,664.73098 497.030478,654.866704 C497.019476,651.784117 500.903194,648.71254 504.863927,648.85566 C507.960999,648.976762 510.706007,649.840987 510.381447,653.985965 C510.315435,654.83918 511.113083,655.752947 511.624677,656.908917 C516.102505,651.486868 518.335918,649.433645 513.836086,643.284986 C512.510341,641.451948 511.921732,638.826245 515.414878,637.158346 C518.390929,635.727145 520.629843,633.0519 518.731992,629.66656 C516.790133,630.569318 514.39719,630.916109 513.489522,632.270245 C511.003062,635.980358 509.704822,631.9785 508.18104,631.560149 C503.989265,630.409684 503.125605,625.147268 505.661574,621.558257 C508.632124,617.374747 511.278113,612.921511 513.682058,608.374696 C515.783446,604.367334 518.313914,602.809527 521.174444,604.532472 C525.289205,607.004046 529.233434,609.882961 533.568236,611.870129 C542.523892,615.949051 552.101164,618.618791 561.876472,618.739892 C573.676155,618.888517 584.089581,614.220601 593.897895,607.471938 C603.304635,600.998507 609.856347,592.427816 615.670922,583.031432 C618.68548,583.378223 621.744046,584.181898 624.736599,583.945199 C628.994387,583.620427 633.263176,582.723174 637.416444,581.644268 C638.824705,581.280964 640.827075,579.756184 640.970102,578.550673 C641.652228,573.194679 645.711979,570.464388 649.144614,567.359784 C650.684899,565.967115 651.157986,565.515736 649.480176,564.079031 C648.74854,563.446 648.137928,562.317553 648.060913,561.370759 C647.87938,558.568908 648.000402,555.739534 647.961895,552.926674 C647.884881,545.121125 645.574453,538.449527 639.171269,533.324727 C636.585791,531.254991 633.994812,528.315525 633.048637,525.265966 C630.705203,517.779685 625.671772,512.858556 618.977034,510.188816 C614.130637,508.256695 612.447326,504.898878 610.852031,500.764909 C609.350253,496.895162 607.622934,493.10248 606.055144,489.249247 C603.519175,482.990496 600.207562,476.896883 598.727788,470.390424 C597.286522,463.966535 597.204006,457.096771 601.43979,451.019672 C602.055904,450.122419 600.796171,446.395792 600.020527,446.258177 C592.902211,445.019638 592.753683,438.320517 590.201211,433.80673 C588.759945,431.252587 590.580781,428.142478 591.741496,425.087414 C594.029919,419.026829 599.723472,418.558937 603.783223,415.575434 C604.597374,414.980935 606.781278,416.125895 608.283056,416.610302 C609.141214,416.885533 609.861848,417.612142 610.73651,417.854346 C614.114134,418.80114 617.150696,422.725933 617.585276,426.325953 C618.36092,432.634246 615.06581,436.938858 610.098391,441.414113 C611.71019,441.683839 612.898409,442.267329 613.525525,441.904024 C620.896889,437.659963 625.825801,431.582864 625.869809,422.758961 C625.869809,419.824999 624.610076,416.747917 623.38885,413.979094 C622.206131,411.254308 620.74286,408.468971 618.707484,406.344188 C614.768755,402.215724 609.399762,400.779019 604.168295,398.659741 C597.104988,395.791835 591.312417,398.879926 585.756389,400.76801 C580.370893,402.606552 576.19012,407.918509 571.266709,411.402933 C568.780249,413.153401 567.641538,418.250678 563.295735,415.465341 C561.700439,410.813939 560.127148,406.520336 558.724389,402.171688 C556.887049,396.35881 554.796663,390.600979 553.481919,384.667001 C552.200182,378.788068 551.545561,372.749502 550.973455,366.732954 C548.960083,345.842927 550.45636,325.662995 561.579417,306.952797 C565.331111,300.644504 569.715422,295.701357 575.931572,291.853629 C585.426328,286.007724 595.328159,282.776513 606.555736,284.246246 C611.594668,284.9068 613.415505,288.903153 610.758514,293.41694 C609.669312,295.266492 608.585612,297.380265 608.376573,299.466516 C607.771461,305.554624 604.349828,309.941805 600.053534,313.646413 C596.439365,316.778541 590.938348,316.899643 587.70925,314.461097 C586.537534,313.563844 585.668373,312.24824 584.155593,310.558322 C583.528477,316.536338 587.153647,321.677651 592.132068,323.235458 C601.500301,326.180429 612.348308,321.319851 618.916523,310.817039 C620.176256,311.620713 622.0411,312.143652 622.591202,313.305127 C624.021467,316.332667 625.50124,319.563878 625.847805,322.828117 C626.452917,328.712554 627.751157,334.409834 623.977459,340.453905 C621.518504,344.378698 618.597464,345.694302 615.054808,346.674124 C611.204096,347.74202 606.335696,344.241083 607.848475,338.852061 C608.327064,337.173152 608.536103,335.400665 608.855162,333.672215 C608.448086,333.39148 608.063015,333.116249 607.650439,332.835513 C606.071647,334.519926 604.432343,336.160303 602.908562,337.905267 C599.728973,341.554829 597.308526,345.820908 599.640957,350.510843 C602.209932,355.652157 605.103468,361.063197 612.463829,360.534753 C615.896464,360.29255 619.351103,360.485212 623.905945,360.485212 C622.459178,363.452201 620.660345,365.554965 620.495315,367.795345 C620.055233,373.674278 620.291777,379.597247 620.357789,385.498198 C620.368791,386.246826 620.808873,387.210134 621.375477,387.694541 C625.622263,391.31658 629.858046,394.966142 634.330374,398.318455 C635.430577,399.138643 637.366935,398.852403 638.923723,399.061578 C638.989735,398.610199 639.044746,398.16983 639.12176,397.718451 C637.994051,397.289091 636.618797,397.145971 635.793644,396.402847 C630.545674,391.668875 630.771215,379.575229 636.404257,375.15502 C644.177195,369.061407 648.550504,361.52008 647.983899,351.42461 C647.912386,350.246621 648.324962,349.013587 648.605514,347.16954 C650.519868,348.000737 652.390214,348.237436 653.28688,349.305332 C655.39377,351.804428 657.418144,354.518205 658.787897,357.463176 C662.341555,365.070559 661.516402,374.857771 649.892752,375.688968 C648.456987,375.788051 647.054227,376.030254 645.645967,376.222916 C645.689975,376.569707 645.733983,376.922003 645.788993,377.274298 C652.120664,378.061459 658.980433,380.698171 664.244907,374.912817 C667.914085,370.850408 674.31727,370.019211 676.270131,363.953121 C677.260314,360.87604 679.807285,358.272355 680.709452,355.17876 C681.342069,353.004435 680.560925,350.3402 680.126344,347.929177 C679.45522,344.362184 678.421029,340.844733 677.83242,337.261226 C677.738903,336.743792 679.196672,335.774979 680.098839,335.323601 C683.124399,333.798821 686.226973,332.411657 689.610098,330.842841 C689.626602,330.85385 697.102484,349.189735 697.559069,351.771401 C699.473423,349.619095 702.284443,347.929177 702.504484,345.94201 C703.307632,338.835547 705.343009,331.343762 699.863995,324.936386 C698.521747,323.373074 696.937454,321.892332 696.073794,320.086817 C695.419173,318.732681 695.039603,316.464778 695.754735,315.396882 C698.081665,311.906954 700.650641,308.516109 703.648695,305.686735 Z M409.696324,268.079181 C409.45978,268.486523 408.876672,268.976434 408.447593,268.976434 C404.805919,268.948911 401.175248,268.794782 396.664413,268.651662 C398.386232,265.728709 399.409421,264.297508 400.130054,262.717683 C401.692343,259.36537 404.134795,258.28096 407.072338,259.789226 C409.382766,260.967214 410.989063,265.937885 409.696324,268.079181 Z M432.074463,237.710201 C429.004895,238.007451 425.885818,237.825798 421.919585,237.825798 C422.728234,236.13588 422.915269,235.645969 423.179318,235.200095 C426.567944,229.359695 426.611953,229.266116 432.751088,232.112004 C433.774277,232.574392 434.698448,234.330365 434.714951,235.502849 C434.736955,236.262486 433.075648,237.616623 432.074463,237.710201 Z" transform="rotate(-9 441 508)"/>
  </g>
</svg>
