<?xml version="1.0" encoding="UTF-8"?>
<svg width="1024px" height="1024px" viewBox="0 0 1024 1024" version="1.1" xmlns="http://www.w3.org/2000/svg" xmlns:xlink="http://www.w3.org/1999/xlink">
    <!-- Generator: Sketch 48.1 (47250) - http://www.bohemiancoding.com/sketch -->
    <title>matrix</title>
    <desc>Created with Sketch.</desc>
    <defs>
        <linearGradient x1="0%" y1="0%" x2="100%" y2="100%" id="linearGradient-1">
            <stop stop-color="#FFFFFF" stop-opacity="0.18" offset="0%"></stop>
            <stop stop-color="#808080" stop-opacity="0.08" offset="48.7623565%"></stop>
            <stop stop-color="#000000" stop-opacity="0.182801178" offset="100%"></stop>
        </linearGradient>
        <rect id="path-2" x="68.1647497" y="53.7989054" width="744.886364" height="907.021277" rx="23.7553191"></rect>
        <filter x="-2.4%" y="-1.3%" width="104.0%" height="103.3%" filterUnits="objectBoundingBox" id="filter-3">
            <feOffset dx="-3" dy="3" in="SourceAlpha" result="shadowOffsetOuter1"></feOffset>
            <feGaussianBlur stdDeviation="4.5" in="shadowOffsetOuter1" result="shadowBlurOuter1"></feGaussianBlur>
            <feColorMatrix values="0 0 0 0 0   0 0 0 0 0   0 0 0 0 0  0 0 0 0.12 0" type="matrix" in="shadowBlurOuter1"></feColorMatrix>
        </filter>
        <linearGradient x1="34.7616393%" y1="5.15462502%" x2="75.4699729%" y2="90.3338076%" id="linearGradient-4">
            <stop stop-color="#3AD36D" offset="0%"></stop>
            <stop stop-color="#83FAAB" offset="50.7554061%"></stop>
            <stop stop-color="#3AEC62" offset="100%"></stop>
        </linearGradient>
        <path d="M464.151711,236.712251 C464.062584,236.137648 464.090397,235.550965 464.233485,234.987371 C464.820479,232.675322 467.170618,231.276888 469.482667,231.863882 L573.313876,258.225029 C574.987572,258.649954 576.247327,260.030929 576.517132,261.736516 L629.598153,597.291833 C629.865022,598.978865 629.11266,600.664705 627.678747,601.592707 L536.097364,660.862466 C535.587228,661.192617 535.01317,661.41141 534.412701,661.50455 C532.055489,661.870181 529.848189,660.255685 529.482558,657.898473 L464.151711,236.712251 Z M493.004372,265.345059 L549.248269,623.019308 L600.985274,590.217607 L550.536555,277.572806 L493.004372,265.345059 Z" id="path-5"></path>
        <filter x="-16.3%" y="-6.3%" width="132.6%" height="112.6%" filterUnits="objectBoundingBox" id="filter-6">
            <feOffset dx="0" dy="0" in="SourceAlpha" result="shadowOffsetOuter1"></feOffset>
            <feGaussianBlur stdDeviation="9" in="shadowOffsetOuter1" result="shadowBlurOuter1"></feGaussianBlur>
            <feColorMatrix values="0 0 0 0 0.22745098   0 0 0 0 0.82745098   0 0 0 0 0.42745098  0 0 0 0.397135417 0" type="matrix" in="shadowBlurOuter1"></feColorMatrix>
        </filter>
        <path d="M627.510916,601.73068 L530.970663,664.366129 C529.471239,665.338957 527.527506,665.28773 526.081406,664.237271 L156.957803,396.102934 C155.02785,394.701001 154.599806,391.999974 156.001739,390.070021 C156.366546,389.567815 156.835314,389.150139 157.376109,388.845449 L190.724601,370.056504 C191.9946,369.340972 193.53984,369.314311 194.833766,369.985608 L627.149131,594.273441 C629.266532,595.371961 630.092498,597.978981 628.993978,600.096381 C628.649489,600.760384 628.138453,601.323533 627.510916,601.73068 Z M583.981379,601.030242 L194.55486,386.459436 L181.081099,394.633763 L531.868009,633.718059 L583.981379,601.030242 Z" id="path-7"></path>
        <filter x="-5.7%" y="-9.1%" width="111.4%" height="118.3%" filterUnits="objectBoundingBox" id="filter-8">
            <feOffset dx="0" dy="0" in="SourceAlpha" result="shadowOffsetOuter1"></feOffset>
            <feGaussianBlur stdDeviation="9" in="shadowOffsetOuter1" result="shadowBlurOuter1"></feGaussianBlur>
            <feColorMatrix values="0 0 0 0 0.22745098   0 0 0 0 0.82745098   0 0 0 0 0.42745098  0 0 0 0.397135417 0" type="matrix" in="shadowBlurOuter1"></feColorMatrix>
        </filter>
        <path d="M575.234009,265.486126 L233.696791,612.592348 C232.755338,613.549153 231.422544,614.013857 230.090289,613.849824 L191.285709,609.072051 C188.918187,608.780552 187.235237,606.624989 187.526736,604.257467 C187.618914,603.508802 187.905556,602.797331 188.358133,602.193865 L464.868442,233.49517 C465.914621,232.100196 467.696978,231.471108 469.387011,231.900328 L573.2185,258.270575 C575.530501,258.857758 576.928743,261.208011 576.34156,263.520012 C576.153129,264.261951 575.770899,264.940481 575.234009,265.486126 Z M532.064098,273.742936 L473.905695,261.106051 L214.100009,592.969799 L227.670233,595.260129 L532.064098,273.742936 Z" id="path-9"></path>
        <filter x="-6.9%" y="-7.1%" width="113.9%" height="114.1%" filterUnits="objectBoundingBox" id="filter-10">
            <feOffset dx="0" dy="0" in="SourceAlpha" result="shadowOffsetOuter1"></feOffset>
            <feGaussianBlur stdDeviation="9" in="shadowOffsetOuter1" result="shadowBlurOuter1"></feGaussianBlur>
            <feColorMatrix values="0 0 0 0 0.22745098   0 0 0 0 0.82745098   0 0 0 0 0.42745098  0 0 0 0.397135417 0" type="matrix" in="shadowBlurOuter1"></feColorMatrix>
        </filter>
        <linearGradient x1="4.23034495%" y1="11.6830138%" x2="87.4891705%" y2="50%" id="linearGradient-11">
            <stop stop-color="#3AD36D" offset="0%"></stop>
            <stop stop-color="#7BFFA7" offset="50.7554061%"></stop>
            <stop stop-color="#2B964F" offset="100%"></stop>
        </linearGradient>
        <path d="M163.409868,759.001849 L949.681618,748.123836 L770.287754,858.336525 L163.409868,759.001849 Z M352.67477,773.727382 L778.723366,822.332847 L851.757147,778.046531 L352.67477,773.727382 Z" id="path-12"></path>
        <filter x="-3.4%" y="-24.5%" width="106.9%" height="149.0%" filterUnits="objectBoundingBox" id="filter-13">
            <feOffset dx="0" dy="0" in="SourceAlpha" result="shadowOffsetOuter1"></feOffset>
            <feGaussianBlur stdDeviation="9" in="shadowOffsetOuter1" result="shadowBlurOuter1"></feGaussianBlur>
            <feColorMatrix values="0 0 0 0 0.22745098   0 0 0 0 0.82745098   0 0 0 0 0.42745098  0 0 0 0.6 0" type="matrix" in="shadowBlurOuter1"></feColorMatrix>
        </filter>
        <path d="M647.533292,90.581917 L849.853183,138.571289 L949.622317,748.136886 L770.289418,858.33173 L647.533292,90.581917 Z M697.740589,145.821892 L796.615989,792.179999 L903.92112,725.009641 L821.700066,173.163702 L697.740589,145.821892 Z" id="path-14"></path>
        <filter x="-8.9%" y="-3.5%" width="117.9%" height="107.0%" filterUnits="objectBoundingBox" id="filter-15">
            <feOffset dx="0" dy="0" in="SourceAlpha" result="shadowOffsetOuter1"></feOffset>
            <feGaussianBlur stdDeviation="9" in="shadowOffsetOuter1" result="shadowBlurOuter1"></feGaussianBlur>
            <feColorMatrix values="0 0 0 0 0.22745098   0 0 0 0 0.82745098   0 0 0 0 0.42745098  0 0 0 0.6 0" type="matrix" in="shadowBlurOuter1"></feColorMatrix>
        </filter>
    </defs>
    <g id="Page-1" stroke="none" stroke-width="1" fill="none" fill-rule="evenodd">
        <g id="matrix">
            <g id="icon" transform="translate(37.000000, 0.000000)">
                <g id="Rectangle" transform="translate(440.607931, 507.309544) rotate(-9.200000) translate(-440.607931, -507.309544) ">
                    <use fill="black" fill-opacity="1" filter="url(#filter-3)" xlink:href="#path-2"></use>
                    <use fill="#060B07" fill-rule="evenodd" xlink:href="#path-2"></use>
                    <use fill="url(#linearGradient-1)" fill-rule="evenodd" xlink:href="#path-2"></use>
                </g>
                <g id="Combined-Shape">
                    <use fill="black" fill-opacity="1" filter="url(#filter-6)" xlink:href="#path-5"></use>
                    <use fill="url(#linearGradient-4)" fill-rule="evenodd" xlink:href="#path-5"></use>
                </g>
                <g id="Combined-Shape">
                    <use fill="black" fill-opacity="1" filter="url(#filter-8)" xlink:href="#path-7"></use>
                    <use fill="url(#linearGradient-4)" fill-rule="evenodd" xlink:href="#path-7"></use>
                </g>
                <g id="Combined-Shape">
                    <use fill="black" fill-opacity="1" filter="url(#filter-10)" xlink:href="#path-9"></use>
                    <use fill="url(#linearGradient-4)" fill-rule="evenodd" xlink:href="#path-9"></use>
                </g>
                <g id="Combined-Shape">
                    <use fill="black" fill-opacity="1" filter="url(#filter-13)" xlink:href="#path-12"></use>
                    <use fill="url(#linearGradient-11)" fill-rule="evenodd" xlink:href="#path-12"></use>
                </g>
                <g id="Combined-Shape">
                    <use fill="black" fill-opacity="1" filter="url(#filter-15)" xlink:href="#path-14"></use>
                    <use fill="url(#linearGradient-4)" fill-rule="evenodd" xlink:href="#path-14"></use>
                </g>
            </g>
        </g>
    </g>
</svg>