<?xml version="1.0" encoding="UTF-8"?>
<svg width="1024px" height="1024px" viewBox="0 0 1024 1024" version="1.1" xmlns="http://www.w3.org/2000/svg" xmlns:xlink="http://www.w3.org/1999/xlink">
    <!-- Generator: Sketch 49.3 (51167) - http://www.bohemiancoding.com/sketch -->
    <title>monsters-inc-sully</title>
    <desc>Created with Sketch.</desc>
    <defs>
        <linearGradient x1="0%" y1="0%" x2="100%" y2="100%" id="linearGradient-1">
            <stop stop-color="#FFFFFF" stop-opacity="0.18" offset="0%"></stop>
            <stop stop-color="#808080" stop-opacity="0.08" offset="48.7623565%"></stop>
            <stop stop-color="#000000" stop-opacity="0.182801178" offset="100%"></stop>
        </linearGradient>
        <rect id="path-2" x="68.1647497" y="53.7989054" width="744.886364" height="907.021277" rx="23.7553191"></rect>
        <filter x="-2.4%" y="-1.3%" width="104.0%" height="103.3%" filterUnits="objectBoundingBox" id="filter-3">
            <feOffset dx="-3" dy="3" in="SourceAlpha" result="shadowOffsetOuter1"></feOffset>
            <feGaussianBlur stdDeviation="4.5" in="shadowOffsetOuter1" result="shadowBlurOuter1"></feGaussianBlur>
            <feColorMatrix values="0 0 0 0 0   0 0 0 0 0   0 0 0 0 0  0 0 0 0.12 0" type="matrix" in="shadowBlurOuter1"></feColorMatrix>
        </filter>
        <path d="M464.151711,236.712251 L529.482558,657.898473 C529.848189,660.255685 532.055489,661.870181 534.412701,661.50455 C535.01317,661.41141 535.587228,661.192617 536.097364,660.862466 L627.678747,601.592707 C629.11266,600.664705 629.865022,598.978865 629.598153,597.291833 L576.517132,261.736516 C576.247327,260.030929 574.987572,258.649954 573.313876,258.225029 L469.482667,231.863882 C467.170618,231.276888 464.820479,232.675322 464.233485,234.987371 C464.090397,235.550965 464.062584,236.137648 464.151711,236.712251 Z" id="path-4"></path>
        <path d="M575.234009,265.486126 L233.696791,612.592348 C232.755338,613.549153 231.422544,614.013857 230.090289,613.849824 L191.285709,609.072051 C188.918187,608.780552 187.235237,606.624989 187.526736,604.257467 C187.618914,603.508802 187.905556,602.797331 188.358133,602.193865 L464.868442,233.49517 C465.914621,232.100196 467.696978,231.471108 469.387011,231.900328 L573.2185,258.270575 C575.530501,258.857758 576.928743,261.208011 576.34156,263.520012 C576.153129,264.261951 575.770899,264.940481 575.234009,265.486126 Z" id="path-5"></path>
        <filter x="-9.0%" y="-5.8%" width="118.0%" height="118.3%" filterUnits="objectBoundingBox" id="filter-6">
            <feOffset dx="0" dy="13" in="SourceAlpha" result="shadowOffsetOuter1"></feOffset>
            <feGaussianBlur stdDeviation="9.5" in="shadowOffsetOuter1" result="shadowBlurOuter1"></feGaussianBlur>
            <feColorMatrix values="0 0 0 0 0   0 0 0 0 0   0 0 0 0 0  0 0 0 0.1 0" type="matrix" in="shadowBlurOuter1"></feColorMatrix>
        </filter>
        <linearGradient x1="100%" y1="0%" x2="50%" y2="5.90452261%" id="linearGradient-7">
            <stop stop-color="#000000" stop-opacity="0.3" offset="0%"></stop>
            <stop stop-color="#000000" stop-opacity="0" offset="100%"></stop>
        </linearGradient>
        <polygon id="path-8" points="163.409868 759.001849 766.258365 861.406039 937.711603 745.899185"></polygon>
    </defs>
    <g id="monsters-inc-sully" stroke="none" stroke-width="1" fill="none" fill-rule="evenodd">
        <g id="icon" transform="translate(37.000000, 0.000000)">
            <g id="Rectangle" transform="translate(440.607931, 507.309544) rotate(-9.200000) translate(-440.607931, -507.309544) ">
                <use fill="black" fill-opacity="1" filter="url(#filter-3)" xlink:href="#path-2"></use>
                <use fill="#50CEFF" fill-rule="evenodd" xlink:href="#path-2"></use>
                <use fill="url(#linearGradient-1)" fill-rule="evenodd" xlink:href="#path-2"></use>
            </g>
            <circle id="Oval-2" fill="#B38DFF" cx="252" cy="875" r="38"></circle>
            <g id="Path-2">
                <use fill="#B38DFF" xlink:href="#path-4"></use>
                <use fill="#E0E0E0" style="mix-blend-mode: multiply;" xlink:href="#path-4"></use>
            </g>
            <path d="M627.510916,601.73068 L530.970663,664.366129 C529.471239,665.338957 527.527506,665.28773 526.081406,664.237271 L156.957803,396.102934 C155.02785,394.701001 154.599806,391.999974 156.001739,390.070021 C156.366546,389.567815 156.835314,389.150139 157.376109,388.845449 L190.724601,370.056504 C191.9946,369.340972 193.53984,369.314311 194.833766,369.985608 L627.149131,594.273441 C629.266532,595.371961 630.092498,597.978981 628.993978,600.096381 C628.649489,600.760384 628.138453,601.323533 627.510916,601.73068 Z" id="Path-4" fill="#B38DFF"></path>
            <g id="Path-3">
                <use fill="black" fill-opacity="1" filter="url(#filter-6)" xlink:href="#path-5"></use>
                <use fill="#B38DFF" fill-rule="evenodd" xlink:href="#path-5"></use>
            </g>
            <g id="Path-6">
                <use fill="#B38DFF" xlink:href="#path-8"></use>
                <use fill="url(#linearGradient-7)" xlink:href="#path-8"></use>
            </g>
            <polygon id="Path-5" fill="#B38DFF" points="647.533292 90.581917 849.853183 138.571289 949.622317 748.136886 770.289418 858.33173"></polygon>
            <circle id="Oval-2" fill="#B38DFF" cx="139" cy="229" r="75"></circle>
            <circle id="Oval-2" fill="#B38DFF" cx="484.5" cy="110.5" r="43.5"></circle>
        </g>
        <g id="Monsters,_Inc._logo" transform="translate(359.560173, 939.620472) rotate(-9.500000) translate(-359.560173, -939.620472) translate(208.560173, 917.620472)" fill-rule="nonzero">
            <g id="g1524" transform="translate(221.466545, 35.227039) scale(-1, 1) rotate(-180.000000) translate(-221.466545, -35.227039) translate(215.457199, 29.217693)" fill="#137AC9">
                <polygon id="path1526" points="4.006231 12.018693 0.586912841 1.47829924 6.6683715 1.47829924 11.7262381 12.018693"></polygon>
            </g>
            <g id="g1528" transform="translate(72.276508, 23.981933) scale(-1, 1) rotate(-180.000000) translate(-72.276508, -23.981933) translate(56.251584, 9.960125)" fill="#137AC9">
                <path d="M16.024924,28.043617 C8.15868943,28.043617 1.70064506,22.7513858 1.70064506,14.6087213 C1.70064506,6.29579202 8.12663958,1.31204065 16.024924,1.31204065 C23.9312209,1.31204065 30.3552123,6.29579202 30.3552123,14.6087213 C30.3552123,22.7513858 23.8951648,28.043617 16.024924,28.043617 M16.024924,19.5223637 C19.0155754,19.5223637 20.8724635,17.2227871 20.8724635,14.4725095 C20.8724635,11.5179141 18.8793636,9.49276435 16.024924,9.49276435 C13.1764938,9.49276435 11.1813907,11.5179141 11.1813907,14.4725095 C11.1813907,17.2227871 13.0382788,19.5223637 16.024924,19.5223637" id="path1530"></path>
            </g>
            <g id="g1532" transform="translate(100.572518, 23.389220) scale(-1, 1) rotate(-180.000000) translate(-100.572518, -23.389220) translate(87.552267, 10.368969)" fill="#137AC9">
                <polygon id="path1534" points="0 26.0405015 9.03605402 26.0405015 16.978407 12.5475155 16.9723976 26.0405015 25.9743987 26.0405015 25.9743987 0.130202507 16.9723976 0.130202507 8.9559294 13.2946776 9.00200106 0.130202507 1.77912396e-15 0.130202507"></polygon>
            </g>
            <g id="g1536" transform="translate(125.034362, 22.998019) scale(-1, 1) rotate(-180.000000) translate(-125.034362, -22.998019) translate(113.015669, 8.976210)" fill="#137AC9">
                <path d="M4.006231,10.0155775 L4.4849756,9.63899179 C6.17159886,8.33296048 8.19875174,7.27130926 10.3601134,7.27130926 C11.2875558,7.27130926 12.7678582,7.64789498 12.7678582,8.81571132 C12.7678582,9.98553077 11.5299328,10.0876897 10.6725994,10.2579545 L8.77965524,10.5984841 C5.10594141,11.255506 2.01313108,13.4188707 2.01313108,17.4771827 C2.01313108,23.6247442 7.6118389,27.0600873 13.2486059,27.0600873 C16.199195,27.0600873 18.9174228,26.3389657 21.4573732,24.7945637 L18.9174228,18.1622482 C17.3029117,19.2599555 15.4820797,20.1192921 13.4549268,20.1192921 C12.6296432,20.1192921 11.4257708,19.8088092 11.4257708,18.747158 C11.4257708,17.7856625 12.5955903,17.6454444 13.3147087,17.4771827 L15.4460236,16.9924288 C19.4302203,16.0990393 22.3167098,13.9697275 22.3167098,9.57288897 C22.3167098,3.38526519 16.683949,0.328510942 11.0832381,0.328510942 C7.8181598,0.328510942 4.04028396,1.22190045 1.11773845,2.69819658 L4.006231,10.0155775 Z" id="path1538"></path>
            </g>
            <g id="g1540" transform="translate(145.072328, 23.389220) scale(-1, 1) rotate(-180.000000) translate(-145.072328, -23.389220) translate(135.056750, 10.368969)" fill="#137AC9">
                <polygon id="path1542" points="0 26.0405015 19.7947874 26.0405015 19.7947874 17.6174008 14.602712 17.8617809 14.602712 0.130202507 5.18606603 0.130202507 5.18606603 17.8617809 0 17.6174008"></polygon>
            </g>
            <g id="g1544" transform="translate(164.829660, 23.389220) scale(-1, 1) rotate(-180.000000) translate(-164.829660, -23.389220) translate(155.815640, 10.368969)" fill="#137AC9">
                <polygon id="path1546" points="0 26.0405015 17.4210955 26.0405015 17.4210955 18.9594882 9.48274878 18.9594882 9.48274878 16.4836374 16.7340269 16.4836374 16.7340269 9.75316937 9.48274878 9.75316937 9.48274878 7.20921268 17.6915161 7.20921268 17.6915161 0.130202508 -3.55824792e-15 0.130202508"></polygon>
            </g>
            <g id="g1548" transform="translate(187.405771, 23.259225) scale(-1, 1) rotate(-180.000000) translate(-187.405771, -23.259225) translate(174.385520, 10.238974)" fill="#137AC9">
                <path d="M0,0 L9.20631884,0 L9.20631884,8.31493244 L9.38058989,8.31493244 L13.5030016,0 L24.3598876,0 L18.7211175,8.41909445 C18.17627,9.23836869 17.4851952,10.2880012 17.4851952,10.2880012 L17.1446656,10.1678143 C20.6501177,11.3396368 22.1604668,12.9882009 22.1604668,16.9042917 C22.1604668,23.4324451 17.2127715,25.910299 11.3736898,25.910299 L0,25.910299 L0,0 Z M9.20631884,18.8292857 L9.92944353,18.8292857 C11.5439546,18.8292857 12.9521448,18.5889118 12.9521448,16.5958119 C12.9521448,14.672821 11.4097459,14.4324472 9.86133761,14.4324472 L9.20631884,14.4324472 L9.20631884,18.8292857 Z" id="path1550"></path>
            </g>
            <g id="g1552" transform="translate(207.770442, 22.998019) scale(-1, 1) rotate(-180.000000) translate(-207.770442, -22.998019) translate(195.751749, 8.976210)" fill="#137AC9">
                <path d="M4.006231,10.0155775 L4.48898184,9.63899179 C6.17560509,8.33296048 8.19875174,7.27130926 10.3641196,7.27130926 C11.2915621,7.27130926 12.7718644,7.64789498 12.7718644,8.81571132 C12.7718644,9.98553077 11.5319359,10.0876897 10.6746025,10.2579545 L8.78366147,10.5984841 C5.10594141,11.255506 2.01713731,13.4188707 2.01713731,17.4771827 C2.01713731,23.6247442 7.61384202,27.0600873 13.2546153,27.0600873 C16.2112137,27.0600873 18.9234321,26.3389657 21.4673888,24.7945637 L18.9234321,18.1622482 C17.3069179,19.2599555 15.4860859,20.1192921 13.4569299,20.1192921 C12.6356526,20.1192921 11.4277739,19.8088092 11.4277739,18.747158 C11.4277739,17.7856625 12.6015996,17.6454444 13.3227212,17.4771827 L15.4500299,16.9924288 C19.4362297,16.0990393 22.3267254,13.9697275 22.3267254,9.57288897 C22.3267254,3.38526519 16.6919615,0.328510942 11.0832381,0.328510942 C7.82216603,0.328510942 4.04228708,1.22190045 1.1237478,2.69819658 L4.006231,10.0155775 Z" id="path1554"></path>
            </g>
            <polygon id="path1556" fill="#137AC9" points="234.02668 10.369369 243.44333 10.369369 243.44333 36.279668 234.02668 36.279668"></polygon>
            <g id="g1558" transform="translate(257.516821, 23.389220) scale(-1, 1) rotate(-180.000000) translate(-257.516821, -23.389220) translate(244.496570, 10.368969)" fill="#137AC9">
                <polygon id="path1560" points="0 26.0405015 9.03805714 26.0405015 16.9904257 12.5435093 16.9744007 26.0405015 25.9764018 26.0405015 25.9764018 0.130202507 16.9744007 0.130202507 9.01401975 13.250609 9.00400417 0.130202507 0 0.130202507"></polygon>
            </g>
            <g id="g1562" transform="translate(280.223945, 22.888440) scale(-1, 1) rotate(-180.000000) translate(-280.223945, -22.888440) translate(269.206809, 8.866632)" fill="#137AC9">
                <path d="M22.0342705,16.024924 C20.5239214,17.4351173 18.6309773,18.6369866 16.5016655,18.6369866 C13.683282,18.6369866 11.3837054,16.4015097 11.3837054,13.5871324 C11.3837054,10.7326928 13.821497,8.53327203 16.6398805,8.53327203 C18.8032452,8.53327203 20.5239214,9.46271762 22.0342705,10.9390137 L21.7598437,1.24994407 C20.2454884,0.528822492 16.7420393,0.21833959 15.0594223,0.21833959 C7.67193236,0.21833959 1.89895349,5.9572655 1.89895349,13.3447555 C1.89895349,20.9045134 7.8442003,26.9499159 15.4340049,26.9499159 C17.5653198,26.9499159 19.7647406,26.5713271 21.7598437,25.8862616 L22.0342705,16.024924 Z" id="path1564"></path>
            </g>
            <g id="g1566" transform="translate(295.990654, 32.431683) scale(-1, 1) rotate(-180.000000) translate(-295.990654, -32.431683) translate(289.981307, 26.422336)" fill="#137AC9">
                <path d="M12.018693,6.0093465 C12.018693,3.29712811 9.40462727,1.74871983 6.89872978,1.74871983 C4.38882606,1.74871983 1.77676345,3.29712811 1.77676345,6.0093465 C1.77676345,8.7616272 4.38882606,10.3741352 6.89872978,10.3741352 C9.40462727,10.3741352 12.018693,8.7616272 12.018693,6.0093465" id="path1568"></path>
            </g>
            <g id="g1570" transform="translate(30.552413, 19.028036) scale(-1, 1) rotate(-180.000000) translate(-30.552413, -19.028036) translate(0.505681, 0.999997)" fill="#137AC9">
                <polygon id="path1572" points="50.0778875 36.056079 34.3754651 36.056079 30.1889537 26.8377415 25.9483582 36.056079 8.53327203 36.056079 1.49432416 0.865345896 19.0716627 0.865345896 20.4117469 9.01401975 24.5541898 0.865345896 35.3469761 0.865345896 39.8820296 9.06209452 41.1439924 0.865345896 58.7453683 0.865345896 51.5942459 36.056079"></polygon>
            </g>
            <g id="g1574" transform="translate(30.170019, 19.585495) scale(-1, 1) rotate(-180.000000) translate(-30.170019, -19.585495) translate(15.146653, 13.576148)" fill="#FFFFFF">
                <path d="M30.0467325,6.0093465 C30.0467325,6.0093465 25.1851712,0.624972036 15.3819239,0.624972036 C5.5826829,0.624972036 0.72112158,6.0093465 0.72112158,6.0093465 C0.72112158,6.0093465 5.5826829,11.3957241 15.3819239,11.3957241 C25.1851712,11.3957241 30.0467325,6.0093465 30.0467325,6.0093465" id="path1576"></path>
            </g>
            <g id="g1578" transform="translate(30.163208, 19.585495) scale(-1, 1) rotate(-180.000000) translate(-30.163208, -19.585495) translate(25.155419, 13.576148)" fill="#060000">
                <path d="M10.0155775,6.0093465 C10.0155775,3.45337112 7.93834673,1.37213412 5.37435889,1.37213412 C2.81237416,1.37213412 0.735143389,3.45337112 0.735143389,6.0093465 C0.735143389,8.57333434 2.81237416,10.6505651 5.37435889,10.6505651 C7.93834673,10.6505651 10.0155775,8.57333434 10.0155775,6.0093465" id="path1580"></path>
            </g>
        </g>
        <g id="Monsters,_Inc._logo" transform="translate(359.560173, 939.620472) rotate(-9.500000) translate(-359.560173, -939.620472) translate(208.560173, 917.620472)" fill-rule="nonzero">
            <g id="g1524" transform="translate(221.466545, 35.227039) scale(-1, 1) rotate(-180.000000) translate(-221.466545, -35.227039) translate(215.457199, 29.217693)" fill="#137AC9">
                <polygon id="path1526" points="4.006231 12.018693 0.586912841 1.47829924 6.6683715 1.47829924 11.7262381 12.018693"></polygon>
            </g>
            <g id="g1528" transform="translate(72.276508, 23.981933) scale(-1, 1) rotate(-180.000000) translate(-72.276508, -23.981933) translate(56.251584, 9.960125)" fill="#137AC9">
                <path d="M16.024924,28.043617 C8.15868943,28.043617 1.70064506,22.7513858 1.70064506,14.6087213 C1.70064506,6.29579202 8.12663958,1.31204065 16.024924,1.31204065 C23.9312209,1.31204065 30.3552123,6.29579202 30.3552123,14.6087213 C30.3552123,22.7513858 23.8951648,28.043617 16.024924,28.043617 M16.024924,19.5223637 C19.0155754,19.5223637 20.8724635,17.2227871 20.8724635,14.4725095 C20.8724635,11.5179141 18.8793636,9.49276435 16.024924,9.49276435 C13.1764938,9.49276435 11.1813907,11.5179141 11.1813907,14.4725095 C11.1813907,17.2227871 13.0382788,19.5223637 16.024924,19.5223637" id="path1530"></path>
            </g>
            <g id="g1532" transform="translate(100.572518, 23.389220) scale(-1, 1) rotate(-180.000000) translate(-100.572518, -23.389220) translate(87.552267, 10.368969)" fill="#137AC9">
                <polygon id="path1534" points="0 26.0405015 9.03605402 26.0405015 16.978407 12.5475155 16.9723976 26.0405015 25.9743987 26.0405015 25.9743987 0.130202507 16.9723976 0.130202507 8.9559294 13.2946776 9.00200106 0.130202507 1.77912396e-15 0.130202507"></polygon>
            </g>
            <g id="g1536" transform="translate(125.034362, 22.998019) scale(-1, 1) rotate(-180.000000) translate(-125.034362, -22.998019) translate(113.015669, 8.976210)" fill="#137AC9">
                <path d="M4.006231,10.0155775 L4.4849756,9.63899179 C6.17159886,8.33296048 8.19875174,7.27130926 10.3601134,7.27130926 C11.2875558,7.27130926 12.7678582,7.64789498 12.7678582,8.81571132 C12.7678582,9.98553077 11.5299328,10.0876897 10.6725994,10.2579545 L8.77965524,10.5984841 C5.10594141,11.255506 2.01313108,13.4188707 2.01313108,17.4771827 C2.01313108,23.6247442 7.6118389,27.0600873 13.2486059,27.0600873 C16.199195,27.0600873 18.9174228,26.3389657 21.4573732,24.7945637 L18.9174228,18.1622482 C17.3029117,19.2599555 15.4820797,20.1192921 13.4549268,20.1192921 C12.6296432,20.1192921 11.4257708,19.8088092 11.4257708,18.747158 C11.4257708,17.7856625 12.5955903,17.6454444 13.3147087,17.4771827 L15.4460236,16.9924288 C19.4302203,16.0990393 22.3167098,13.9697275 22.3167098,9.57288897 C22.3167098,3.38526519 16.683949,0.328510942 11.0832381,0.328510942 C7.8181598,0.328510942 4.04028396,1.22190045 1.11773845,2.69819658 L4.006231,10.0155775 Z" id="path1538"></path>
            </g>
            <g id="g1540" transform="translate(145.072328, 23.389220) scale(-1, 1) rotate(-180.000000) translate(-145.072328, -23.389220) translate(135.056750, 10.368969)" fill="#137AC9">
                <polygon id="path1542" points="0 26.0405015 19.7947874 26.0405015 19.7947874 17.6174008 14.602712 17.8617809 14.602712 0.130202507 5.18606603 0.130202507 5.18606603 17.8617809 0 17.6174008"></polygon>
            </g>
            <g id="g1544" transform="translate(164.829660, 23.389220) scale(-1, 1) rotate(-180.000000) translate(-164.829660, -23.389220) translate(155.815640, 10.368969)" fill="#137AC9">
                <polygon id="path1546" points="0 26.0405015 17.4210955 26.0405015 17.4210955 18.9594882 9.48274878 18.9594882 9.48274878 16.4836374 16.7340269 16.4836374 16.7340269 9.75316937 9.48274878 9.75316937 9.48274878 7.20921268 17.6915161 7.20921268 17.6915161 0.130202508 -3.55824792e-15 0.130202508"></polygon>
            </g>
            <g id="g1548" transform="translate(187.405771, 23.259225) scale(-1, 1) rotate(-180.000000) translate(-187.405771, -23.259225) translate(174.385520, 10.238974)" fill="#137AC9">
                <path d="M0,0 L9.20631884,0 L9.20631884,8.31493244 L9.38058989,8.31493244 L13.5030016,0 L24.3598876,0 L18.7211175,8.41909445 C18.17627,9.23836869 17.4851952,10.2880012 17.4851952,10.2880012 L17.1446656,10.1678143 C20.6501177,11.3396368 22.1604668,12.9882009 22.1604668,16.9042917 C22.1604668,23.4324451 17.2127715,25.910299 11.3736898,25.910299 L0,25.910299 L0,0 Z M9.20631884,18.8292857 L9.92944353,18.8292857 C11.5439546,18.8292857 12.9521448,18.5889118 12.9521448,16.5958119 C12.9521448,14.672821 11.4097459,14.4324472 9.86133761,14.4324472 L9.20631884,14.4324472 L9.20631884,18.8292857 Z" id="path1550"></path>
            </g>
            <g id="g1552" transform="translate(207.770442, 22.998019) scale(-1, 1) rotate(-180.000000) translate(-207.770442, -22.998019) translate(195.751749, 8.976210)" fill="#137AC9">
                <path d="M4.006231,10.0155775 L4.48898184,9.63899179 C6.17560509,8.33296048 8.19875174,7.27130926 10.3641196,7.27130926 C11.2915621,7.27130926 12.7718644,7.64789498 12.7718644,8.81571132 C12.7718644,9.98553077 11.5319359,10.0876897 10.6746025,10.2579545 L8.78366147,10.5984841 C5.10594141,11.255506 2.01713731,13.4188707 2.01713731,17.4771827 C2.01713731,23.6247442 7.61384202,27.0600873 13.2546153,27.0600873 C16.2112137,27.0600873 18.9234321,26.3389657 21.4673888,24.7945637 L18.9234321,18.1622482 C17.3069179,19.2599555 15.4860859,20.1192921 13.4569299,20.1192921 C12.6356526,20.1192921 11.4277739,19.8088092 11.4277739,18.747158 C11.4277739,17.7856625 12.6015996,17.6454444 13.3227212,17.4771827 L15.4500299,16.9924288 C19.4362297,16.0990393 22.3267254,13.9697275 22.3267254,9.57288897 C22.3267254,3.38526519 16.6919615,0.328510942 11.0832381,0.328510942 C7.82216603,0.328510942 4.04228708,1.22190045 1.1237478,2.69819658 L4.006231,10.0155775 Z" id="path1554"></path>
            </g>
            <polygon id="path1556" fill="#137AC9" points="234.02668 10.369369 243.44333 10.369369 243.44333 36.279668 234.02668 36.279668"></polygon>
            <g id="g1558" transform="translate(257.516821, 23.389220) scale(-1, 1) rotate(-180.000000) translate(-257.516821, -23.389220) translate(244.496570, 10.368969)" fill="#137AC9">
                <polygon id="path1560" points="0 26.0405015 9.03805714 26.0405015 16.9904257 12.5435093 16.9744007 26.0405015 25.9764018 26.0405015 25.9764018 0.130202507 16.9744007 0.130202507 9.01401975 13.250609 9.00400417 0.130202507 0 0.130202507"></polygon>
            </g>
            <g id="g1562" transform="translate(280.223945, 22.888440) scale(-1, 1) rotate(-180.000000) translate(-280.223945, -22.888440) translate(269.206810, 8.866632)" fill="#137AC9">
                <path d="M22.0342705,16.024924 C20.5239214,17.4351173 18.6309773,18.6369866 16.5016655,18.6369866 C13.683282,18.6369866 11.3837054,16.4015097 11.3837054,13.5871324 C11.3837054,10.7326928 13.821497,8.53327203 16.6398805,8.53327203 C18.8032452,8.53327203 20.5239214,9.46271762 22.0342705,10.9390137 L21.7598437,1.24994407 C20.2454884,0.528822492 16.7420393,0.21833959 15.0594223,0.21833959 C7.67193236,0.21833959 1.89895349,5.9572655 1.89895349,13.3447555 C1.89895349,20.9045134 7.8442003,26.9499159 15.4340049,26.9499159 C17.5653198,26.9499159 19.7647406,26.5713271 21.7598437,25.8862616 L22.0342705,16.024924 Z" id="path1564"></path>
            </g>
            <g id="g1566" transform="translate(295.990654, 32.431683) scale(-1, 1) rotate(-180.000000) translate(-295.990654, -32.431683) translate(289.981307, 26.422336)" fill="#137AC9">
                <path d="M12.018693,6.0093465 C12.018693,3.29712811 9.40462727,1.74871983 6.89872978,1.74871983 C4.38882606,1.74871983 1.77676345,3.29712811 1.77676345,6.0093465 C1.77676345,8.7616272 4.38882606,10.3741352 6.89872978,10.3741352 C9.40462727,10.3741352 12.018693,8.7616272 12.018693,6.0093465" id="path1568"></path>
            </g>
            <g id="g1570" transform="translate(30.552413, 19.028036) scale(-1, 1) rotate(-180.000000) translate(-30.552413, -19.028036) translate(0.505681, 0.999997)" fill="#137AC9">
                <polygon id="path1572" points="50.0778875 36.056079 34.3754651 36.056079 30.1889537 26.8377415 25.9483582 36.056079 8.53327203 36.056079 1.49432416 0.865345896 19.0716627 0.865345896 20.4117469 9.01401975 24.5541898 0.865345896 35.3469761 0.865345896 39.8820296 9.06209452 41.1439924 0.865345896 58.7453683 0.865345896 51.5942459 36.056079"></polygon>
            </g>
            <g id="g1574" transform="translate(30.170019, 19.585495) scale(-1, 1) rotate(-180.000000) translate(-30.170019, -19.585495) translate(15.146653, 13.576148)" fill="#FFFFFF">
                <path d="M30.0467325,6.0093465 C30.0467325,6.0093465 25.1851712,0.624972036 15.3819239,0.624972036 C5.5826829,0.624972036 0.72112158,6.0093465 0.72112158,6.0093465 C0.72112158,6.0093465 5.5826829,11.3957241 15.3819239,11.3957241 C25.1851712,11.3957241 30.0467325,6.0093465 30.0467325,6.0093465" id="path1576"></path>
            </g>
            <g id="g1578" transform="translate(30.163208, 19.585495) scale(-1, 1) rotate(-180.000000) translate(-30.163208, -19.585495) translate(25.155420, 13.576148)" fill="#060000">
                <path d="M10.0155775,6.0093465 C10.0155775,3.45337112 7.93834673,1.37213412 5.37435889,1.37213412 C2.81237416,1.37213412 0.735143389,3.45337112 0.735143389,6.0093465 C0.735143389,8.57333434 2.81237416,10.6505651 5.37435889,10.6505651 C7.93834673,10.6505651 10.0155775,8.57333434 10.0155775,6.0093465" id="path1580"></path>
            </g>
        </g>
    </g>
</svg>