<?xml version="1.0" encoding="UTF-8"?>
<svg width="1024px" height="1024px" viewBox="0 0 1024 1024" version="1.1" xmlns="http://www.w3.org/2000/svg" xmlns:xlink="http://www.w3.org/1999/xlink">
    <!-- Generator: Sketch 49.3 (51167) - http://www.bohemiancoding.com/sketch -->
    <title>nemo</title>
    <desc>Created with Sketch.</desc>
    <defs>
        <linearGradient x1="0%" y1="0%" x2="100%" y2="100%" id="linearGradient-1">
            <stop stop-color="#FFFFFF" stop-opacity="0.18" offset="0%"></stop>
            <stop stop-color="#808080" stop-opacity="0.08" offset="48.7623565%"></stop>
            <stop stop-color="#000000" stop-opacity="0.182801178" offset="100%"></stop>
        </linearGradient>
        <rect id="path-2" x="68.1647497" y="53.7989054" width="744.886364" height="907.021277" rx="23.7553191"></rect>
        <filter x="-2.4%" y="-1.3%" width="104.0%" height="103.3%" filterUnits="objectBoundingBox" id="filter-3">
            <feOffset dx="-3" dy="3" in="SourceAlpha" result="shadowOffsetOuter1"></feOffset>
            <feGaussianBlur stdDeviation="4.5" in="shadowOffsetOuter1" result="shadowBlurOuter1"></feGaussianBlur>
            <feColorMatrix values="0 0 0 0 0   0 0 0 0 0   0 0 0 0 0  0 0 0 0.12 0" type="matrix" in="shadowBlurOuter1"></feColorMatrix>
        </filter>
        <path d="M464.151711,236.712251 L529.482558,657.898473 C529.848189,660.255685 532.055489,661.870181 534.412701,661.50455 C535.01317,661.41141 535.587228,661.192617 536.097364,660.862466 L627.678747,601.592707 C629.11266,600.664705 629.865022,598.978865 629.598153,597.291833 L576.517132,261.736516 C576.247327,260.030929 574.987572,258.649954 573.313876,258.225029 L469.482667,231.863882 C467.170618,231.276888 464.820479,232.675322 464.233485,234.987371 C464.090397,235.550965 464.062584,236.137648 464.151711,236.712251 Z" id="path-4"></path>
        <linearGradient x1="5.23386356%" y1="3.68263437%" x2="50%" y2="50%" id="linearGradient-5">
            <stop stop-color="#000000" stop-opacity="0.09" offset="0%"></stop>
            <stop stop-color="#000000" stop-opacity="0" offset="100%"></stop>
        </linearGradient>
        <path d="M627.510916,601.73068 L530.970663,664.366129 C529.471239,665.338957 527.527506,665.28773 526.081406,664.237271 L156.957803,396.102934 C155.02785,394.701001 154.599806,391.999974 156.001739,390.070021 C156.366546,389.567815 156.835314,389.150139 157.376109,388.845449 L190.724601,370.056504 C191.9946,369.340972 193.53984,369.314311 194.833766,369.985608 L627.149131,594.273441 C629.266532,595.371961 630.092498,597.978981 628.993978,600.096381 C628.649489,600.760384 628.138453,601.323533 627.510916,601.73068 Z" id="path-6"></path>
        <path d="M575.234366,265.486324 L233.696612,612.592264 C232.755159,613.549066 231.422368,614.013768 230.090115,613.849737 L191.285467,609.071966 C188.917944,608.780468 187.234994,606.624906 187.526492,604.257384 C187.618671,603.508716 187.905314,602.797243 188.357893,602.193776 L464.868636,233.49538 C465.914815,232.100409 467.697169,231.471323 469.3872,231.900541 L573.218859,258.270769 C575.53086,258.85795 576.929103,261.208202 576.341922,263.520204 C576.153491,264.262145 575.771259,264.940678 575.234366,265.486324 Z" id="path-7"></path>
        <filter x="-10.0%" y="-6.8%" width="120.1%" height="120.4%" filterUnits="objectBoundingBox" id="filter-8">
            <feMorphology radius="4" operator="dilate" in="SourceAlpha" result="shadowSpreadOuter1"></feMorphology>
            <feOffset dx="0" dy="13" in="shadowSpreadOuter1" result="shadowOffsetOuter1"></feOffset>
            <feGaussianBlur stdDeviation="9.5" in="shadowOffsetOuter1" result="shadowBlurOuter1"></feGaussianBlur>
            <feComposite in="shadowBlurOuter1" in2="SourceAlpha" operator="out" result="shadowBlurOuter1"></feComposite>
            <feColorMatrix values="0 0 0 0 0   0 0 0 0 0   0 0 0 0 0  0 0 0 0.1 0" type="matrix" in="shadowBlurOuter1"></feColorMatrix>
        </filter>
        <linearGradient x1="100%" y1="0%" x2="50%" y2="5.90452261%" id="linearGradient-9">
            <stop stop-color="#000000" stop-opacity="0.3" offset="0%"></stop>
            <stop stop-color="#000000" stop-opacity="0" offset="100%"></stop>
        </linearGradient>
        <polygon id="path-10" points="163.409868 759.001849 766.258365 861.406039 937.711603 745.899185"></polygon>
    </defs>
    <g id="nemo" stroke="none" stroke-width="1" fill="none" fill-rule="evenodd">
        <g id="icon" transform="translate(37.000000, 0.000000)">
            <g id="Rectangle" transform="translate(440.607931, 507.309544) rotate(-9.200000) translate(-440.607931, -507.309544) ">
                <use fill="black" fill-opacity="1" filter="url(#filter-3)" xlink:href="#path-2"></use>
                <use fill="#FF583E" fill-rule="evenodd" xlink:href="#path-2"></use>
                <use fill="url(#linearGradient-1)" fill-rule="evenodd" xlink:href="#path-2"></use>
            </g>
            <g id="Path-2">
                <use fill="#FFFFFF" fill-rule="evenodd" xlink:href="#path-4"></use>
                <use fill="#E0E0E0" fill-rule="evenodd" style="mix-blend-mode: multiply;" xlink:href="#path-4"></use>
                <use stroke="#000000" stroke-width="8" xlink:href="#path-4"></use>
            </g>
            <g id="Path-4">
                <use fill="#FFFFFF" xlink:href="#path-6"></use>
                <use stroke="#000000" stroke-width="8" fill="url(#linearGradient-5)" xlink:href="#path-6"></use>
            </g>
            <g id="Path-3">
                <use fill="black" fill-opacity="1" filter="url(#filter-8)" xlink:href="#path-7"></use>
                <use stroke="#000000" stroke-width="8" fill="#FFFFFF" fill-rule="evenodd" xlink:href="#path-7"></use>
            </g>
            <g id="Path-6">
                <use fill="#FFFFFF" xlink:href="#path-10"></use>
                <use stroke="#000000" stroke-width="10" fill="url(#linearGradient-9)" xlink:href="#path-10"></use>
            </g>
            <polygon id="Path-5" stroke="#000000" stroke-width="10" fill="#FFFFFF" points="647.533292 90.581917 849.853183 138.571289 949.622317 748.136886 770.289418 858.33173"></polygon>
        </g>
        <g id="Finding_Nemo_logo" transform="translate(354.947147, 895.043686) rotate(-9.000000) translate(-354.947147, -895.043686) translate(202.447147, 829.043686)" fill-rule="nonzero">
            <g id="g530" transform="translate(29.323216, 33.833342) scale(-1, 1) rotate(-180.000000) translate(-29.323216, -33.833342) translate(21.323216, 23.833342)" fill="#FFFFFF">
                <polygon id="path532" points="0 19.219476 15.5901983 19.219476 15.5901983 14.6132083 8.38289478 14.6132083 8.38289478 11.2818324 13.7323156 11.2818324 13.7323156 6.67236142 8.38289478 6.67236142 8.38289478 0.852063436 0 0.852063436"></polygon>
            </g>
            <polygon id="path534" fill="#FFFFFF" points="38.0021979 24.6154681 46.3850927 24.6154681 46.3850927 42.9828807 38.0021979 42.9828807"></polygon>
            <g id="g536" transform="translate(57.483192, 33.833342) scale(-1, 1) rotate(-180.000000) translate(-57.483192, -33.833342) translate(47.983192, 23.833342)" fill="#FFFFFF">
                <polygon id="path538" points="0 19.219476 6.00608625 19.219476 10.3753138 13.0852599 10.4233625 13.0852599 10.4233625 19.219476 18.8190702 19.219476 18.8190702 0.858469928 12.4542204 0.858469928 8.44375646 6.42250823 8.39250452 6.42250823 8.39250452 0.852063436 0 0.852063436"></polygon>
            </g>
            <g id="g540" transform="translate(78.647893, 34.063416) scale(-1, 1) rotate(-180.000000) translate(-78.647893, -34.063416) translate(68.147893, 24.563416)" fill="#FFFFFF">
                <path d="M8.609738,7.609738 L8.80833925,7.609738 C10.8263842,7.609738 11.6912607,8.2503872 11.6912607,9.80716476 C11.6912607,11.0628372 10.9481076,11.9245104 9.14147684,11.9245104 L8.609738,11.9245104 L8.609738,7.609738 Z M9.54828908,18.9492288 C17.5371846,18.9492288 20.0741554,13.5517593 20.0741554,9.73028685 C20.0741554,6.00491175 17.6364852,0.581816276 9.35289107,0.581816276 L0.226843218,0.581816276 L0.226843218,18.9492288 L9.54828908,18.9492288 Z" id="path542"></path>
            </g>
            <polygon id="path544" fill="#FFFFFF" points="89.3886702 24.6154681 97.784378 24.6154681 97.784378 42.9828807 89.3886702 42.9828807"></polygon>
            <g id="g546" transform="translate(108.880555, 33.833342) scale(-1, 1) rotate(-180.000000) translate(-108.880555, -33.833342) translate(99.380555, 23.833342)" fill="#FFFFFF">
                <polygon id="path548" points="0 19.219476 5.99327327 19.219476 10.3625008 13.0852599 10.4105495 13.0852599 10.4105495 19.219476 18.8062573 19.219476 18.8062573 0.852063436 12.4542204 0.852063436 8.43094347 6.42250823 8.38289478 6.42250823 8.38289478 0.852063436 0 0.852063436"></polygon>
            </g>
            <g id="g550" transform="translate(129.312727, 34.115922) scale(-1, 1) rotate(-180.000000) translate(-129.312727, -34.115922) translate(118.812727, 24.115922)" fill="#FFFFFF">
                <path d="M16.01623,11.812984 C14.3953875,12.5753565 12.7969678,12.9949818 11.3458973,12.9949818 C9.44316921,12.9949818 8.19070002,11.9603333 8.19070002,10.3843363 C8.19070002,8.8531847 9.18050304,8.13886084 11.211361,8.13886084 L11.211361,11.018579 L19.6070688,11.018579 L19.6070688,1.10773587 C17.8484867,1.00843524 13.8123968,0.835459958 12.7232931,0.835459958 C8.57508954,0.835459958 5.31738836,1.53056434 3.26410767,3.52938984 C1.30692437,5.42571148 0.365170044,7.77048755 0.365170044,10.3843363 C0.365170044,14.9489618 3.41145699,19.7986763 10.8910364,19.7986763 C13.985372,19.7986763 17.4640972,18.8633284 20.0651329,17.3385833 L16.01623,11.812984 Z" id="path552"></path>
            </g>
            <g id="g554" transform="translate(279.254978, 75.881498) scale(-1, 1) rotate(-180.000000) translate(-279.254978, -75.881498) translate(277.653355, 72.678252)" fill="#00ADEF">
                <polygon id="path556" points="0 3.203246 0 3.18722977 0 3.21605898"></polygon>
            </g>
            <g id="g558" transform="translate(255.915820, 75.867404) scale(-1, 1) rotate(-180.000000) translate(-255.915820, -75.867404) translate(254.314197, 72.664158)" fill="#00ADEF">
                <polygon id="path560" points="0 3.203246 0 3.18402652 0 3.17121354"></polygon>
            </g>
            <g id="g562" transform="translate(112.831626, 78.768904) scale(-1, 1) rotate(-180.000000) translate(-112.831626, -78.768904) translate(87.205658, 45.134821)" fill="#FFFFFF">
                <path d="M51.251936,3.203246 L51.251936,7.51801836 L51.251936,19.9626291 L51.251936,20.013881 L24.7418721,20.013881 L24.7418721,27.3429079 L44.2047948,27.3429079 L44.2047948,42.4045705 L24.7418721,42.4045705 L24.7418721,49.7271909 L51.251936,49.7271909 L51.251936,64.5422037 L1.66248467,64.5422037 L1.66248467,19.9626291 L1.66248467,6.7268166 L1.66248467,2.45368644 C16.7657896,1.35176981 33.4098558,1.3645828 51.251936,3.203246" id="path564"></path>
            </g>
            <g id="g566" transform="translate(52.379246, 78.682271) scale(-1, 1) rotate(-180.000000) translate(-52.379246, -78.682271) translate(20.879246, 47.182271)" fill="#FFFFFF">
                <path d="M22.422722,20.422722 L22.5956973,20.422722 L38.0257333,4.04132196 C45.5885971,2.66712942 53.7985166,1.49474139 62.5658009,0.684320148 L62.5658009,62.3339927 L40.9823293,62.3339927 L40.9823293,42.1823721 L40.822167,42.1823721 L22.6693719,62.3339927 L0.445251194,62.3339927 L0.445251194,13.7407508 C6.49938613,11.6746572 13.9309169,9.41957199 22.5572583,7.32144586 L22.422722,20.422722 Z" id="path568"></path>
            </g>
            <g id="g570" transform="translate(302.769366, 118.900118) scale(-1, 1) rotate(-180.000000) translate(-302.769366, -118.900118) translate(301.167743, 115.696872)" fill="#00ADEF">
                <path d="M0,3.203246 C0.618226478,2.81565323 1.22363997,2.42806047 1.83225671,2.02445147 C1.83225671,2.02445147 1.2396562,2.47610916 0,3.203246" id="path572"></path>
            </g>
            <g id="g574" transform="translate(184.788023, 78.407032) scale(-1, 1) rotate(-180.000000) translate(-184.788023, -78.407032) translate(143.288023, 47.407032)" fill="#FFFFFF">
                <path d="M24.625968,21.422722 L35.9782718,6.55966056 C39.8926384,7.14265133 43.8806797,7.71603237 47.8655177,8.25417769 L58.0326205,21.422722 L58.0326205,9.56110206 C67.8249436,10.8872459 76.9125525,11.9154879 81.8295351,12.1012761 C81.8295351,12.1012761 82.0537623,12.1269021 82.5470622,12.1301054 L82.5470622,61.5593944 L58.0069946,61.5593944 L41.241205,37.9034227 L24.5266674,61.5593944 L0.1211361,61.5593944 L0.1211361,0.90593137 C5.85494644,1.78041753 14.6222307,3.2475042 24.625968,4.82029798 L24.625968,21.422722 Z" id="path576"></path>
            </g>
            <g id="g578" transform="translate(150.615181, 110.892003) scale(-1, 1) rotate(-180.000000) translate(-150.615181, -110.892003) translate(0.062619, 90.070904)" fill="#00ADEF">
                <path d="M301.105124,12.812984 C282.593565,24.4503767 260.555233,28.5120926 244.990661,29.8478462 C241.326147,30.2162195 234.948484,30.7031129 228.609261,30.4949019 C226.677703,30.456463 224.448244,30.3379429 222.023387,30.1521546 C219.233359,29.9599598 215.841122,29.6268223 212.054885,29.1879776 C202.336237,28.0860609 191.425981,26.4876412 182.77081,25.1326681 C166.575198,22.6629654 152.423258,20.234905 152.423258,20.234905 C65.4647385,6.85814969 2.93737658,38.5414559 2.93737658,38.5414559 C47.7828206,3.03027072 108.468316,3.03027072 108.468316,3.03027072 C134.779779,1.93476058 166.402223,9.22534848 179.823824,12.7136834 C187.351452,14.4882817 204.54007,18.4827294 212.016446,19.7704343 L211.856284,19.7704343 C267.922699,29.0150023 294.304633,16.8010253 301.105124,12.812984" id="path580"></path>
            </g>
            <g id="g582" transform="translate(266.214736, 76.415200) scale(-1, 1) rotate(-180.000000) translate(-266.214736, -76.415200) translate(229.214736, 46.415200)" fill="#FFFFFF">
                <path d="M23.625968,37.438952 L30.4873209,32.0959377 C30.4873209,32.0959377 33.197267,37.7784961 39.1040527,37.8906097 C39.1040527,37.8906097 45.7411784,38.6209498 48.4383115,30.5327536 L48.4383115,30.5487699 L48.4383115,30.5167374 L48.4383115,30.5327536 C45.7411784,22.4413542 39.1040527,23.1748976 39.1040527,23.1748976 C33.197267,23.2870112 30.4873209,28.9759761 30.4873209,28.9759761 L23.625968,23.623352 C23.625968,23.623352 25.0994612,25.7599171 25.0994612,30.5263471 C25.0898514,35.0108915 23.625968,37.438952 23.625968,37.438952 M38.4602002,4.86834667 C43.8576697,3.64150345 48.5760511,2.39223751 53.5026434,0.675297658 C57.0582465,2.11355511 60.1782081,3.96182805 62.8529185,6.2489457 C66.1362457,9.03897296 68.6475905,12.3767553 70.4189856,16.23987 C72.1903806,20.1157976 73.06807,24.3665051 73.06807,29.0112118 C73.06807,34.4150878 71.4728535,39.4762165 68.30164,44.1849881 C65.1080037,48.8905565 60.8476865,52.6319478 55.4982657,55.3963491 C50.1488449,58.1671569 44.3894086,59.5509591 38.2135503,59.5509591 C31.5379856,59.5509591 25.7176876,58.4746685 20.7302336,56.3220872 C17.844109,55.1432926 15.1822115,53.6025313 12.7285251,51.6998032 C10.2908549,49.7938718 8.1735093,47.647697 6.36687855,45.2452625 C4.56985755,42.842828 3.208478,40.3410929 2.29234964,37.7272441 C1.3634083,35.1165987 0.905344122,32.4611077 0.905344122,29.7607713 C0.905344122,22.9122314 2.55181257,17.0983399 5.84474945,12.3287066 C6.67439017,11.1691316 7.58090879,10.0928409 8.54508583,9.07741192 C11.1461216,8.93646909 13.4364425,8.74107109 15.1437726,8.5680958 C21.9538736,7.98830828 29.9780048,6.79670076 38.4602002,4.86834667" id="path584"></path>
            </g>
            <g id="g586" transform="translate(86.877325, 10.000658) scale(-1, 1) rotate(-180.000000) translate(-86.877325, -10.000658) translate(82.072456, 3.594166)" fill="#231F20">
                <path d="M3.203246,3.203246 C3.68693615,3.14238433 4.17062629,3.10074213 4.65111319,3.04949019 L4.78885277,2.46649942 C3.98483802,2.51775136 3.16801029,2.53056434 2.37360529,2.53056434 C1.60482625,2.53056434 0.839250452,2.52415785 0.070471412,2.46649942 L0.182585022,3.04949019 C0.579787526,3.10074213 0.986599768,3.13597783 1.38380227,3.20004275 C1.42224122,3.89835038 1.43185096,6.08937065 1.43185096,7.07917366 L1.43185096,7.53723784 C1.43185096,7.87357867 1.42224122,9.68020941 1.38380227,10.2567937 C0.986599768,10.3368748 0.566974542,10.3560943 0.169772038,10.39133 L0.083284396,10.9615078 L2.93097009,10.9679143 C4.19625226,10.9679143 5.2853559,10.8686137 5.87795641,10.6219637 C6.97987303,10.1606963 7.10479963,9.39512052 7.10479963,9.05557644 C7.10479963,7.05675094 5.14761632,6.14062258 3.42747322,5.90358238 L3.50114788,6.52821535 C4.54220283,6.78127178 5.29496564,7.35785606 5.29496564,8.63915446 C5.29496564,9.28300691 4.97464104,9.79232302 4.46852817,10.0517859 C4.15781331,10.1991353 3.66451342,10.2696067 3.203246,10.2856229 C3.16801029,9.76029056 3.16801029,8.37328504 3.16801029,7.50200213 L3.16801029,7.01510874 C3.16801029,6.1278096 3.16801029,3.82787897 3.203246,3.203246" id="path588"></path>
            </g>
            <g id="g590" transform="translate(93.523100, 10.005463) scale(-1, 1) rotate(-180.000000) translate(-93.523100, -10.005463) translate(90.319854, 3.598971)" fill="#231F20">
                <path d="M3.203246,3.203246 C3.58763552,3.12957134 3.99765101,3.09753888 4.39165027,3.05589668 L4.52938984,2.46649942 C3.70935887,2.54017408 2.85729543,2.53376759 2.0404677,2.53376759 C1.37098929,2.53376759 0.701510874,2.51775136 0.044845444,2.46970267 L0.156959054,3.06230318 C0.554161558,3.0847259 0.9609738,3.13918108 1.3581763,3.203246 C1.39661526,3.85991143 1.40622499,5.75302982 1.40622499,6.79408477 L1.40622499,7.46996967 C1.40622499,7.82232673 1.39661526,9.65458344 1.3581763,10.247184 C0.9609738,10.3112489 0.566974542,10.3528911 0.169772038,10.3977365 L0.035235706,10.9839305 C0.852063436,10.9038494 1.72975284,10.9166624 2.53376759,10.9166624 C3.19043302,10.9166624 3.88233415,10.9166624 4.52938984,10.990337 L4.39165027,10.3977365 C3.99765101,10.3528911 3.6004485,10.2856229 3.203246,10.234371 C3.16480705,9.83396522 3.15199406,8.67439017 3.15199406,7.41231124 L3.15199406,6.69798739 C3.15199406,5.33981108 3.16480705,3.66771667 3.203246,3.203246" id="path592"></path>
            </g>
            <g id="g594" transform="translate(101.806374, 8.772854) scale(-1, 1) rotate(-180.000000) translate(-101.806374, -8.772854) translate(95.399882, 2.366362)" fill="#231F20">
                <path d="M6.406492,3.203246 C5.78826552,3.9271796 5.26613642,4.59665801 4.96823455,4.94901507 C4.5614223,4.39805676 3.55880631,2.81885648 3.10074213,1.95077681 C3.38583102,1.89632163 3.67091992,1.85147619 3.95600881,1.82264697 L4.04249645,1.25246919 L3.8438952,1.25246919 C3.65810693,1.25246919 2.6811169,1.30051788 2.02124823,1.30051788 C1.51513536,1.30051788 1.03464846,1.27489191 0.525332344,1.23324971 L0.723933596,1.82264697 C0.970583538,1.85788268 1.25567243,1.88350865 1.48950939,1.97640278 C1.98601252,2.30313387 3.95600881,4.91698261 4.47493466,5.58005453 C4.07773216,6.09257389 3.53638358,6.80049126 3.02386422,7.4507502 C2.50814162,8.11702536 2.02124823,8.7256421 1.7617853,9.010731 C1.50232237,9.0876089 1.23004646,9.1292511 0.957770554,9.17729979 L0.884095896,9.76349381 C1.51513536,9.66098994 2.21023974,9.68341266 2.8412792,9.68341266 C3.55880631,9.68341266 4.27633341,9.70903863 4.99386051,9.74107109 L4.83369821,9.16448681 C4.54860932,9.13245435 4.26352043,9.09721864 3.99124452,9.03956021 C4.30195938,8.53344734 5.14120983,7.29379114 5.51598961,6.80689775 C5.90037913,7.33223009 6.69158089,8.45977269 7.02471848,9.0459667 L6.82611723,9.0876089 C6.65314194,9.11964136 6.48016666,9.14526733 6.32000436,9.1708933 L6.20789075,9.75068082 C6.8036945,9.69622564 7.409108,9.68341266 8.01772474,9.68341266 C8.47578892,9.68341266 8.93385309,9.70903863 9.40473026,9.74747758 L9.34066534,9.18050304 C9.06838943,9.11323487 8.79611352,9.06518618 8.52383761,8.99791801 L8.42453698,8.90502388 C8.02733448,8.52704085 7.67177417,8.10421238 7.30980737,7.69740014 C6.77806854,7.09518989 6.23351672,6.46415043 5.98686677,6.16624855 C7.26175868,4.42688597 8.49821164,2.65228769 9.8115425,0.941754324 L8.88260116,0.755966056 C7.9664728,1.44466395 7.13683209,2.34797932 6.406492,3.203246" id="path596"></path>
            </g>
            <g id="g598" transform="translate(110.053771, 9.899115) scale(-1, 1) rotate(-180.000000) translate(-110.053771, -9.899115) translate(103.647279, 3.492623)" fill="#231F20">
                <path d="M6.406492,9.609738 C6.08296415,8.69360964 5.61208699,7.43153072 5.41348574,6.87736916 L7.35785606,6.83572696 C7.1240191,7.55325407 6.66595493,8.83455247 6.406492,9.609738 M8.65837394,3.08152265 C8.31242337,4.10015488 8.00491175,5.16363255 7.5692703,6.14702907 C7.06315743,6.14062258 5.66333893,6.07335442 5.14120983,6.01889923 C5.01948648,5.6056805 4.54860932,3.93358609 4.41086974,3.08152265 C4.7215846,3.00784799 5.03229947,2.98542527 5.35262407,2.94698632 L5.46473768,2.36399555 C4.78564952,2.40884099 4.09054514,2.42806047 3.40825374,2.42806047 C2.90214088,2.42806047 2.39602801,2.40884099 1.88350865,2.3607923 L1.96038655,2.94698632 C2.30633712,2.98542527 2.65228769,3.02706747 2.98862852,3.10074213 C3.43387971,3.98804127 5.33020134,9.08120241 5.73701359,10.1735093 C5.45192469,10.2279645 5.17964878,10.2599969 4.89455989,10.2952326 L4.86893392,10.8750202 C5.45192469,10.8269715 6.06054143,10.8109553 6.64032896,10.8109553 C7.39629501,10.8109553 8.16187081,10.8237682 8.90502388,10.8750202 L8.83134922,10.2888262 C8.55907331,10.2599969 8.2867974,10.2279645 8.01452149,10.1735093 C8.22593573,9.51043737 8.78330053,7.9312371 9.18050304,6.83572696 C9.48801465,5.97725704 10.1703061,4.12578085 10.6892319,3.10074213 C11.0351825,3.03347396 11.381133,2.99183176 11.7430998,2.94057983 L11.8263842,2.34477607 C11.1344831,2.46009293 10.2920294,2.42806047 9.609738,2.42806047 C8.8922109,2.42806047 8.16187081,2.42165398 7.4443437,2.3607923 L7.58208328,2.95339281 C7.95365982,2.98542527 8.29961039,3.01425449 8.65837394,3.08152265" id="path600"></path>
            </g>
            <g id="g602" transform="translate(120.478415, 9.278006) scale(-1, 1) rotate(-180.000000) translate(-120.478415, -9.278006) translate(114.071923, 2.871514)" fill="#231F20">
                <path d="M6.406492,6.406492 C6.86455618,6.57946728 7.59489627,7.06956392 7.59489627,8.10421238 C7.59489627,8.68399991 7.08558015,9.51364062 5.27894941,9.56168931 C5.2437137,8.89541414 5.23090072,7.1304256 5.23090072,6.39047577 L5.23090072,6.20148426 C5.58966427,6.21429724 5.99647651,6.25914268 6.406492,6.406492 M3.4466927,9.52004711 C3.04949019,9.57770554 2.62986497,9.609738 2.21984948,9.64497371 L2.14617482,10.2119482 L4.93299884,10.2279645 C6.0092895,10.2279645 7.52122161,10.2119482 8.33804934,9.89162365 C8.99471477,9.63216072 9.42715298,9.14206408 9.42715298,8.42453698 C9.42715298,7.6461482 8.62313823,6.71080037 7.76787155,6.18546803 C8.57508954,4.81447874 10.1350703,2.66189743 11.172922,1.56638729 L10.183119,1.42864772 C9.35347832,1.81303724 6.81330424,4.6863489 6.08296415,5.57044479 C5.76263955,5.54481883 5.43911171,5.5223961 5.23090072,5.51598961 L5.23090072,5.37825003 C5.23090072,4.6863489 5.2437137,3.10714862 5.27894941,2.46970267 C5.66333893,2.4024345 6.07335442,2.36399555 6.46735367,2.32875984 L6.57946728,1.73936258 C5.8491272,1.80022425 5.11878711,1.80663074 4.38844702,1.80663074 C3.64529395,1.80663074 2.87651491,1.80663074 2.13336184,1.73936258 L2.24547545,2.33516633 C2.64267795,2.36399555 3.04949019,2.39602801 3.4466927,2.46970267 C3.48513165,3.04628695 3.49474139,5.01948648 3.49474139,6.1278096 L3.49474139,6.82611723 C3.49474139,7.21691324 3.48513165,9.02354398 3.4466927,9.52004711" id="path604"></path>
            </g>
            <g id="g606" transform="translate(79.424333, 10.262043) scale(-1, 1) rotate(-180.000000) translate(-79.424333, -10.262043) translate(77.822710, 7.058797)" fill="#231F20">
                <path d="M0,3.203246 C0,3.57482254 0.297901878,3.87272441 0.666275168,3.87272441 C1.04105495,3.87272441 1.33575358,3.57482254 1.33575358,3.203246 C1.33575358,2.83166946 1.04105495,2.53376759 0.666275168,2.53376759 C0.297901878,2.53376759 0,2.83166946 0,3.203246" id="path608"></path>
            </g>
            <g id="g610" transform="translate(50.396518, 10.582688) scale(-1, 1) rotate(-180.000000) translate(-50.396518, -10.582688) translate(47.193272, 5.777819)" fill="#231F20">
                <path d="M3.203246,6.406492 C3.11675836,6.69798739 2.99183176,6.98948277 2.66830392,7.03753146 C2.47290591,6.99588926 2.37360529,6.8036945 2.33516633,6.65954843 C2.10132938,5.29816888 2.06609367,3.87913091 2.07570341,2.43767021 C2.10132938,1.94116708 2.01484173,1.22363997 2.62025523,1.09551013 C2.91815711,1.01222574 3.203246,1.09551013 3.43708296,1.28770489 C3.51396086,2.91495386 3.38903427,4.41407299 3.28973364,5.97405379 C3.26731092,6.16624855 3.22887197,6.32641085 3.203246,6.406492" id="path612"></path>
            </g>
            <g id="g614" transform="translate(65.535379, 11.269144) scale(-1, 1) rotate(-180.000000) translate(-65.535379, -11.269144) translate(60.730510, 6.464275)" fill="#231F20">
                <path d="M6.406492,6.406492 C6.69158089,6.42571148 7.49559564,6.38727252 7.86717218,6.69798739 C7.90561113,7.16245806 7.49559564,7.57567679 7.07597041,7.76146506 C5.80107851,7.8479527 4.58704827,7.57567679 3.37301804,7.42832747 C3.26410767,7.41551449 3.03988045,7.38988852 3.03988045,7.22331973 C3.13597783,6.67876791 3.6837329,6.57306079 4.10335813,6.46735367 L4.07773216,6.406492 L3.74459457,5.39106302 L3.67091992,5.39106302 L3.51075762,5.37825003 C3.47231866,5.37184354 3.43387971,5.36543705 3.39864401,5.35262407 C3.26410767,5.31098187 3.08792914,5.2437137 3.13597783,5.07073842 C3.53638358,4.26992692 2.74197858,3.73178159 2.82846622,2.93417334 C2.88932789,2.41845073 3.1616038,1.8803054 3.61966798,1.62084248 C3.6837329,1.59201326 3.78303353,1.55037106 3.91756986,1.53435483 C5.13160009,1.42864772 6.13421609,2.07250016 7.05034445,2.79002727 C7.16245806,3.01745773 6.98948277,3.31215636 6.83893021,3.49474139 C5.96124081,3.68693615 5.13160009,3.28973364 4.25070744,3.22887197 L4.17703278,3.22246548 C4.26672367,3.4466927 4.43649571,3.93678933 4.62228398,4.49415414 C4.73439759,4.50696712 4.95862481,4.51657686 5.13160009,4.50696712 C5.30457538,4.49735738 5.50317663,4.48134115 5.61208699,4.48134115 C6.03491546,4.48134115 6.45774394,4.4429022 6.76525555,4.67033267 C6.81330424,4.71517811 6.83893021,4.77283654 6.83893021,4.804869 C6.85174319,4.95221832 6.89018215,5.23410396 6.77806854,5.403876 C6.25914268,5.58966427 5.61208699,5.50958312 5.04511245,5.50958312 L4.95862481,5.49997338 L5.23090072,6.36164656 L6.406492,6.406492 Z" id="path616"></path>
            </g>
            <g id="g618" transform="translate(72.023233, 13.663890) scale(-1, 1) rotate(-180.000000) translate(-72.023233, -13.663890) translate(67.218364, 7.257398)" fill="#231F20">
                <path d="M6.406492,9.609738 C6.39688226,8.94666608 6.12460635,8.36687855 5.61208699,7.91522087 C5.11878711,7.51801836 4.53899958,7.20089701 3.89194389,7.20089701 C3.91756986,7.26496193 3.95600881,7.31941711 3.98163478,7.37387229 C4.12898409,7.63333522 4.27633341,7.8895949 4.42688597,8.14905782 C4.79846251,8.74165833 5.21808773,9.31824261 5.6889649,9.85959119 C5.70177788,9.86920093 5.71459086,9.88201391 5.72740385,9.90123339 C5.73701359,9.90763988 5.74982657,9.92045286 5.76263955,9.93326585 C5.86194018,10.038973 5.96124081,10.1414768 6.07335442,10.2407775 C6.09898038,10.2664034 6.13421609,10.2824197 6.17265504,10.2792164 C6.28156541,10.2599969 6.32000436,10.1254606 6.35524006,10.0165502 C6.38086603,9.93967234 6.406492,9.78271328 6.406492,9.609738 M6.64032896,11.1184669 C6.60509325,11.1633123 6.55384132,11.2081578 6.53141859,11.2305805 C6.39688226,11.3426941 6.22070373,11.4131655 6.03491546,11.4131655 C5.90037913,11.4131655 5.71459086,11.3234746 5.62810322,11.2754259 C4.93299884,10.8782234 4.32758535,10.3144521 3.78303353,9.67059967 C3.77022054,9.66098994 3.75740756,9.64497371 3.74459457,9.63536397 C3.42106673,9.24456796 2.96300255,8.64235771 2.51775136,7.89920464 C2.39602801,8.0497572 2.39602801,8.35086232 2.40884099,8.53344734 C2.55619031,9.80833925 3.8438952,10.6636059 3.69334264,11.992953 C3.45950568,12.0121725 3.29934338,11.7879453 3.13597783,11.6341895 C3.07511616,11.5733278 3.01425449,11.5028564 2.95339281,11.4291817 C2.04687419,10.2952326 1.31973735,9.02034074 1.51513536,7.47317292 C1.55357431,7.27136842 1.64006195,7.04073471 1.72654959,6.86135293 C1.76498855,6.78127178 1.80022425,6.72041011 1.8386632,6.67556466 C1.62724897,6.22390698 1.41583473,5.74662332 1.25567243,5.2437137 C1.00902249,4.42688597 0.787998516,3.60365175 0.650258938,2.73557208 C0.611819986,2.53697083 0.550958312,2.16219105 0.599007002,1.82585022 C0.599007002,1.72975284 0.62463297,1.62724897 0.663071922,1.53435483 C0.871282912,1.09551013 1.35497306,0.615023232 1.8386632,0.682291398 C1.97319954,1.78420802 2.23586571,2.85088894 2.54337732,3.89514714 C2.70674287,4.42047948 2.91495386,5.0419092 3.18722977,5.71138762 C3.81826923,5.59927401 4.32758535,5.78506228 4.32758535,5.78506228 C5.65372919,6.24312645 6.90299513,7.49239239 7.18808402,8.85697519 C7.38348203,9.68341266 7.16245806,10.4778177 6.64032896,11.1184669" id="path620"></path>
            </g>
            <g id="g622" transform="translate(50.516960, 5.779421) scale(-1, 1) rotate(-180.000000) translate(-50.516960, -5.779421) translate(45.712091, 2.576175)" fill="#231F20">
                <path d="M6.406492,3.203246 C6.21750049,3.07831941 6.02210248,2.99183176 5.83631421,2.91175061 C5.25332344,2.70033638 4.64790995,2.59462926 4.04249645,2.70033638 C4.5614223,3.52036735 5.37825003,4.31156912 6.26875242,4.65751968 C6.32000436,4.67673916 6.41610174,4.70236513 6.51860561,4.71838136 C6.77486529,4.74400733 7.06315743,4.7632268 7.15925481,4.45891843 C7.26175868,3.91436661 6.8036945,3.49474139 6.406492,3.203246 M3.06230318,3.30574987 C3.03988045,3.27692066 3.01425449,3.25449794 3.0014415,3.21926223 C2.88932789,3.3217661 2.90214088,3.47552191 2.95018957,3.62927772 C2.97581553,3.74139133 3.02386422,3.82147248 3.03988045,3.84709845 C3.1263681,3.99124452 3.24809144,4.14179708 3.37301804,4.26672367 C3.55560306,4.45891843 3.79264326,4.61267424 4.02648022,4.75041382 C4.07773216,4.77603979 4.13859383,4.804869 4.20265875,4.82408848 C4.20265875,4.83049497 4.21226849,4.83049497 4.22508147,4.83690146 C4.28914639,4.86252743 4.42368273,4.89776313 4.63509696,4.87854366 C4.67033267,4.87534041 4.7215846,4.86893392 4.76002356,4.85612094 C3.93038284,4.30516262 3.27371741,3.54919657 3.06230318,3.30574987 M7.78068453,5.06112868 C7.75505857,5.08995789 7.73263584,5.12199035 7.69099365,5.14761632 C7.69099365,5.14761632 7.52122161,5.32059161 7.29699439,5.39426626 C7.27136842,5.40067276 7.24574245,5.40707925 7.22011648,5.41348574 C7.11120612,5.43911171 7.01190549,5.44231495 6.9638568,5.44231495 C6.93823084,5.44231495 6.91260487,5.44231495 6.8869789,5.43911171 C6.81330424,5.68576165 6.51860561,5.84592395 6.51860561,5.84592395 C6.30719137,5.95803756 6.08296415,6.01249274 5.87154992,6.03811871 L5.8491272,6.0445252 C5.33981108,6.09257389 4.95542156,6.03171222 4.64790995,5.95163107 C4.41086974,5.88756615 4.20265875,5.79787526 4.06491917,5.74021683 C2.88932789,5.14761632 2.43126371,4.46532492 2.25828843,4.06812242 C2.25828843,4.05851268 2.24547545,4.05210619 2.24547545,4.03929321 C2.23266246,3.99444776 2.20703649,3.94319583 2.19742676,3.89514714 C2.17180079,3.82787897 2.1589878,3.77662703 2.1589878,3.74459457 C2.04687419,3.23848171 2.17180079,2.68752339 2.55298706,2.30313387 L2.55298706,1.96999629 C2.55298706,1.89632163 2.56900329,1.79702101 2.59142601,1.70412687 C2.604239,1.64967169 2.62986497,1.58560677 2.65549093,1.5183386 C2.74197858,1.32614384 2.82526297,1.25887568 2.97581553,1.25887568 C3.24809144,1.23324971 3.37301804,1.6785009 3.45950568,1.78100478 C3.97843153,1.61123274 4.60947099,1.50552562 5.1668358,1.6785009 C5.5640383,1.80022425 5.90998887,1.96999629 6.25914268,2.20063 C6.83893021,2.58501952 7.37066905,3.05909993 7.74224558,3.6837329 C7.85435919,3.89514714 7.91522087,4.09374839 7.94084683,4.22187823 C8.00491175,4.54540607 7.9664728,4.83049497 7.78068453,5.06112868" id="path624"></path>
            </g>
            <g id="g626" transform="translate(60.234647, 9.640934) scale(-1, 1) rotate(-180.000000) translate(-60.234647, -9.640934) translate(55.429778, 4.836065)" fill="#231F20">
                <path d="M6.406492,6.406492 C6.2463297,6.64673545 5.94842782,7.09839314 5.57685129,7.11761261 C5.42950197,7.05675094 5.41668899,6.8453367 5.44231495,6.72361335 C5.71459086,5.34621757 6.25914268,4.09695163 6.25914268,2.62345847 C6.25914268,2.5625968 6.25914268,2.46329617 6.2463297,2.40563775 C6.22070373,2.34477607 6.19828101,2.29672738 6.13421609,2.29032089 C5.31738836,3.40184725 4.74721057,4.65431644 3.73498484,5.67294867 C3.69654588,5.71459086 3.65810693,5.74021683 3.64849719,5.74342008 C3.47231866,5.81709474 3.32496935,5.7242006 3.21285574,5.60247725 C3.18722977,5.55763181 3.11355511,5.47114417 3.05269344,5.31738836 C2.73236884,4.5614223 2.58181628,3.73178159 2.45688968,2.89573438 C2.39602801,2.47290591 2.21023974,1.30372112 2.49532863,0.659868676 C2.62986497,0.426031718 2.85409219,0.198601252 3.1263681,0.221023974 C3.31215636,0.24024345 3.45950568,0.467673916 3.5235706,0.659868676 L3.73498484,4.04249645 L3.82147248,3.89835038 C4.51337361,2.79323051 4.85932418,1.53435483 5.94842782,0.659868676 C6.09898038,0.554161558 6.29758164,0.579787526 6.47055692,0.650258938 C6.57946728,0.685494644 6.73001985,0.75276281 6.85494644,0.86487642 C7.22331973,1.1627783 7.42192098,1.68811064 7.4859859,2.10132938 C7.65896119,3.68693615 7.26175868,5.17324229 6.406492,6.406492" id="path628"></path>
            </g>
            <g id="g630" transform="translate(54.114525, 10.329311) scale(-1, 1) rotate(-180.000000) translate(-54.114525, -10.329311) translate(50.911279, 5.524442)" fill="#231F20">
                <path d="M6.406492,6.406492 C6.406492,6.43852446 6.39688226,6.46415043 6.38086603,6.48657315 C6.35524006,6.49938613 6.34563033,6.51860561 6.32000436,6.5250121 C4.73439759,7.17527104 2.54337732,6.98948277 1.06988416,6.17906153 C0.611819986,5.94202133 0.413218734,5.50958312 0.377983028,5.01948648 C0.377983028,4.93940533 0.377983028,4.73119434 0.474080408,4.55501581 C0.550958312,4.43329246 0.650258938,4.31477236 0.771982286,4.25391069 C0.787998516,4.2475042 0.823234222,4.23469121 0.861673174,4.22187823 C1.34216007,4.1225776 1.86428917,4.08413865 2.37040204,4.04890294 C2.62986497,4.02968347 2.82846622,4.01687048 2.82846622,4.01687048 C3.79584651,3.93678933 4.26352043,3.81186274 4.26352043,3.81186274 C4.65111319,3.69974913 5.19246177,3.61326149 5.30457538,3.13277459 C5.30457538,3.11355511 5.30457538,3.10074213 5.29176239,3.08152265 C4.97143779,2.55619031 3.98163478,2.37040204 3.32496935,2.26469492 C2.88932789,2.21664623 1.80022425,2.03726446 1.26848542,2.47610916 C1.19481076,2.53697083 1.16918479,2.61064549 1.16918479,2.64908444 L1.16918479,2.67791366 L1.16918479,2.68752339 C1.18199777,2.76119805 1.20762374,2.83487271 1.25887568,2.90214088 C1.25887568,2.91495386 1.2812984,2.94698632 1.31973735,2.96940904 C2.01163849,3.37301804 2.88932789,2.51454811 3.59724526,2.60103575 C4.30195938,2.67150716 4.53899958,2.8412792 4.60947099,2.99503501 C4.66072293,3.10714862 4.63509696,3.18722977 4.63509696,3.18722977 C4.38844702,3.39864401 3.83108222,3.55880631 3.36020505,3.64529395 C2.71635261,3.73818808 1.79061451,3.87272441 1.13394908,3.48513165 C1.1211361,3.47872516 0.996209506,3.39864401 0.922534848,3.27371741 C0.787998516,3.08792914 0.698307628,2.86690517 0.685494644,2.62345847 C0.685494644,2.58822277 0.698307628,2.5209546 0.723933596,2.45048319 C1.06027443,1.61443598 1.92515085,1.17559128 2.71635261,0.989803014 C3.79584651,0.81682773 4.95862481,0.964177046 5.76263955,1.67529766 C5.90998887,1.81303724 5.99967976,1.93155734 6.03491546,1.9988255 C6.23351672,2.39602801 6.29437839,3.03347396 6.17265504,3.52677385 C6.13421609,3.67091992 6.07335442,3.77662703 6.02210248,3.8438952 C5.19246177,4.93940533 3.67091992,4.63189372 2.37040204,4.84010471 C2.21023974,4.85932418 1.98601252,4.90416963 1.79061451,4.9650313 C1.66568792,5.00347025 1.59201326,5.03229947 1.54076133,5.05151894 C1.54076133,5.05792543 1.52794834,5.06433193 1.51513536,5.07073842 L1.51513536,5.07714491 C1.47989965,5.09316114 1.45427368,5.1251936 1.45427368,5.16363255 C1.4414607,5.18925852 1.45427368,5.19566501 1.46708667,5.2020715 C2.59462926,5.65052594 3.94319583,5.58966427 5.18285203,5.74021683 C5.57685129,5.80107851 5.99967976,5.78185903 6.27195567,6.0861674 C6.28156541,6.09577714 6.29437839,6.11179337 6.30719137,6.1278096 L6.30719137,6.13741934 C6.34563033,6.17265504 6.37125629,6.22070373 6.39688226,6.2879719 C6.406492,6.32000436 6.406492,6.35203682 6.406492,6.37766279 L6.406492,6.38727252 L6.406492,6.406492 Z" id="path632"></path>
            </g>
            <g id="g634" transform="translate(40.919714, 8.627427) scale(-1, 1) rotate(-180.000000) translate(-40.919714, -8.627427) translate(31.309976, 0.619312)" fill="#231F20">
                <path d="M6.406492,3.203246 C5.15722606,3.66131018 3.85670818,4.3243821 2.99183176,5.52559935 C2.97901878,5.54481883 2.97901878,5.57044479 2.9662058,5.58005453 L2.9662058,5.58646102 L2.9662058,5.59286752 C2.92776684,5.81709474 3.203246,5.99007002 3.37622128,6.0445252 C3.85670818,6.21109399 4.37883728,6.31680111 4.89776313,6.406492 C5.81068824,6.54102833 6.3232076,6.56345105 6.53141859,6.58267053 C6.53141859,5.45833118 6.44493095,4.35321131 6.406492,3.203246 M17.1309596,6.56345105 C17.1309596,6.56345105 16.9195454,8.82494273 13.7387221,11.224174 C13.7259091,11.2401902 13.7002831,11.2562064 13.6778604,11.2754259 C13.6650474,11.2818324 13.6522345,11.2882389 13.6522345,11.2946454 C13.4280072,11.4612142 13.1813573,11.627783 12.9347073,11.797555 C11.9320914,12.4638302 10.8878332,12.9603333 10.0613957,13.3255034 C7.60770925,14.401794 4.0040575,15.1641666 0.797608254,14.18077 C0.339544076,14.0142012 0.166568792,13.5657468 0.019219476,13.1525281 C0.006406492,13.0916664 -0.019219476,12.9731463 0.028829214,12.9026749 C0.201804498,12.7200899 0.474080408,12.7008704 0.749559564,12.6944639 C0.861673174,12.6880574 1.09551013,12.6944639 1.26848542,12.7200899 C1.36778604,12.7393093 1.45427368,12.7809515 1.45427368,12.8930651 C1.45427368,12.9186911 1.4414607,12.9283009 1.43185096,12.9475203 C1.23324971,13.2101865 0.89690888,13.1012761 0.67268166,13.2326092 C0.663071922,13.2390157 0.663071922,13.2454222 0.663071922,13.2582352 C0.67268166,13.2710482 0.685494644,13.2870644 0.698307628,13.2998774 C0.771982286,13.373552 0.909721864,13.4151942 1.03464846,13.437617 L1.06988416,13.45043 C1.09551013,13.45043 1.1211361,13.4568364 1.14355882,13.4632429 C1.16918479,13.4632429 1.18199777,13.4664462 1.18199777,13.4664462 C3.78303353,13.8700552 6.29758164,13.3927715 8.53985384,12.5695373 C11.1120604,11.5188726 14.1231116,9.93967234 15.3243289,7.12081586 C15.3499548,7.0471412 15.3851905,6.96065356 15.4108165,6.86135293 C15.4204262,6.85494644 15.4204262,6.8453367 15.4204262,6.83893021 C15.4332392,6.81971073 15.4332392,6.80049126 15.4332392,6.78127178 C15.4460522,6.7268166 15.4588652,6.67236142 15.4716782,6.61470299 C15.4812879,6.60509325 15.4812879,6.58907702 15.4812879,6.57946728 C15.6702794,5.58646102 15.4332392,4.50376388 14.6164115,3.82787897 C12.8450165,2.40884099 10.3208586,2.28711764 8.07858641,2.70033638 L8.01772474,5.87154992 L8.01772474,6.57306079 L8.01772474,6.66595493 C8.31562662,6.67236142 8.40211426,6.66595493 8.49821164,6.65634519 C9.50082764,6.61470299 10.9262721,6.42891472 11.98014,5.90358238 C12.005766,5.89076939 12.0281887,5.87154992 12.0281887,5.83631421 L12.0281887,5.82670447 C12.0281887,5.82670447 12.0281887,5.81709474 12.0153757,5.81068824 C12.0153757,5.74662332 11.98014,5.68576165 11.9545141,5.63771296 L11.9545141,5.63130647 C11.9417011,5.61208699 11.9320914,5.58646102 11.9160751,5.57044479 C11.8295875,5.4455182 11.7815388,5.40707925 11.7559128,5.39746951 C11.5701246,5.23410396 11.2978486,5.16042931 11.2978486,4.91698261 C11.2978486,4.90737287 11.2978486,4.90096638 11.3234746,4.88495015 C11.5348888,4.79525926 11.7943518,4.75041382 12.0281887,4.74400733 C12.0666277,4.74400733 12.1915543,4.75041382 12.3132776,4.81127549 C12.6720412,5.00987674 13.0820567,5.32059161 13.1813573,5.71138762 C13.2806579,6.07015117 13.1557313,6.36805305 13.008382,6.64673545 C12.9090814,6.81330424 12.7457158,6.94784057 12.6720412,7.00870225 C11.8071648,7.67497742 10.7404838,7.92803385 9.63856721,8.01131825 C8.99471477,8.07538317 8.4886019,8.06897667 8.20351301,8.05616369 L8.11702536,8.05616369 L8.04335071,8.05296044 L7.97928579,8.04655395 L7.9312371,9.8531847 C7.87037542,10.3112489 7.62052223,10.8558007 7.13683209,11.0223695 C6.63071922,10.1062411 6.63071922,8.06897667 6.57946728,7.90881437 C6.51860561,7.89600139 6.45774394,7.88318841 6.39688226,7.86396893 C6.06054143,7.80951375 5.70177788,7.7294326 5.33020134,7.63013197 C5.01948648,7.55005082 4.71197487,7.46356318 4.40126,7.34504308 C3.83108222,7.11761261 3.26410767,6.83893021 2.76760454,6.36805305 C2.74197858,6.3296141 2.69072664,6.28156541 2.65549093,6.23031347 C2.54337732,6.0445252 2.46970267,5.81068824 2.50814162,5.58005453 C2.5209546,5.56083506 2.53376759,5.49997338 2.56900329,5.43270522 C3.43708296,3.95280556 5.0066735,2.83807596 6.47055692,2.15578456 C6.56985755,1.63685871 6.56985755,1.07308741 6.90299513,0.695104382 C7.20089701,0.60861674 7.52122161,0.659868676 7.74544883,0.714323858 C8.02733448,0.83284396 8.01772474,1.24285945 8.04335071,1.5183386 C8.06897667,1.51513536 8.06897667,1.51513536 8.07858641,1.50872887 C10.6283702,0.906518618 13.4280072,1.13394908 15.4812879,2.6394747 C16.7561798,3.6004485 17.3904225,5.01628324 17.1309596,6.56345105" id="path636"></path>
            </g>
        </g>
    </g>
</svg>