<?xml version="1.0" encoding="UTF-8"?>
<svg width="1024px" height="1024px" viewBox="0 0 1024 1024" version="1.1" xmlns="http://www.w3.org/2000/svg" xmlns:xlink="http://www.w3.org/1999/xlink">
    <!-- Generator: Sketch 51.3 (57544) - http://www.bohemiancoding.com/sketch -->
    <title>Neon-VSInifity.25x</title>
    <desc>Created with Sketch.</desc>
    <defs>
        <linearGradient x1="0%" y1="0%" x2="100%" y2="100%" id="linearGradient-1">
            <stop stop-color="#FFFFFF" stop-opacity="0.18" offset="0%"></stop>
            <stop stop-color="#808080" stop-opacity="0.08" offset="48.7623565%"></stop>
            <stop stop-color="#000000" stop-opacity="0.182801178" offset="100%"></stop>
        </linearGradient>
        <ellipse id="path-2" cx="472.5" cy="496.063246" rx="472.5" ry="472.936754"></ellipse>
        <filter x="-1.9%" y="-1.3%" width="103.2%" height="103.2%" filterUnits="objectBoundingBox" id="filter-3">
            <feOffset dx="-3" dy="3" in="SourceAlpha" result="shadowOffsetOuter1"></feOffset>
            <feGaussianBlur stdDeviation="4.5" in="shadowOffsetOuter1" result="shadowBlurOuter1"></feGaussianBlur>
            <feColorMatrix values="0 0 0 0 0   0 0 0 0 0   0 0 0 0 0  0 0 0 0.12 0" type="matrix" in="shadowBlurOuter1"></feColorMatrix>
        </filter>
        <ellipse id="path-4" cx="472.5" cy="496.063246" rx="472.5" ry="472.936754"></ellipse>
        <filter x="-1.9%" y="-1.3%" width="103.2%" height="103.2%" filterUnits="objectBoundingBox" id="filter-5">
            <feOffset dx="-3" dy="3" in="SourceAlpha" result="shadowOffsetOuter1"></feOffset>
            <feGaussianBlur stdDeviation="4.5" in="shadowOffsetOuter1" result="shadowBlurOuter1"></feGaussianBlur>
            <feColorMatrix values="0 0 0 0 0   0 0 0 0 0   0 0 0 0 0  0 0 0 0.12 0" type="matrix" in="shadowBlurOuter1"></feColorMatrix>
        </filter>
        <ellipse id="path-6" cx="472.5" cy="472.936754" rx="472.5" ry="472.936754"></ellipse>
        <filter x="-0.4%" y="-0.4%" width="100.7%" height="100.7%" filterUnits="objectBoundingBox" id="filter-7">
            <feGaussianBlur stdDeviation="2.5" in="SourceAlpha" result="shadowBlurInner1"></feGaussianBlur>
            <feOffset dx="0" dy="-2" in="shadowBlurInner1" result="shadowOffsetInner1"></feOffset>
            <feComposite in="shadowOffsetInner1" in2="SourceAlpha" operator="arithmetic" k2="-1" k3="1" result="shadowInnerInner1"></feComposite>
            <feColorMatrix values="0 0 0 0 0.188235294   0 0 0 0 0.462745098   0 0 0 0 0.729411765  0 0 0 1 0" type="matrix" in="shadowInnerInner1"></feColorMatrix>
        </filter>
        <path d="M651.5231,800.532851 L439.781514,588.153326 C435.274736,583.632971 435.285743,576.315033 439.806099,571.808256 C440.03897,571.576084 463.928235,553.151975 511.473892,516.535928 C515.67294,513.304487 521.53149,513.342146 525.688648,516.627303 L666.094053,627.581402 C671.102211,631.539054 678.370437,630.68745 682.328089,625.679291 C683.940582,623.638783 684.817739,621.114061 684.817739,618.513329 L684.817739,360.121293 C684.817739,353.738139 679.64317,348.56357 673.260015,348.56357 C670.712953,348.56357 668.237225,349.404947 666.217607,350.956936 L238.629886,679.539446 C232.143059,684.524289 223.504537,685.709073 215.915137,682.654802 L179.819179,668.12838 C171.067027,664.606172 165.333664,656.118615 165.333664,646.684309 L165.333664,340.796407 C165.333664,332.547937 169.728991,324.924474 176.867433,320.791691 L210.404477,301.375508 C218.391423,296.751487 228.363477,297.32141 235.771593,302.82529 L364.66673,398.588284 C369.790533,402.395028 370.858221,409.634667 367.051477,414.758471 C366.803057,415.092839 351.793292,429.709667 322.022182,458.608955 C317.438427,463.051236 310.12138,462.936548 305.6791,458.352794 C305.63649,458.308827 285.458133,436.471055 245.144029,392.839479 C240.81227,388.151141 233.500035,387.862076 228.811697,392.193836 C226.443818,394.381622 225.097318,397.458966 225.097318,400.682824 L225.097318,582.261493 C225.097318,588.644648 230.271887,593.819217 236.655042,593.819217 C239.723675,593.819217 242.666344,592.598888 244.834388,590.42723 L673.178454,161.369258 C680.143987,154.392116 690.76816,152.600779 699.636378,156.908199 L832.70367,221.540883 C840.665461,225.408039 845.719886,233.482145 845.719886,242.333416 L845.719886,747.627216 C845.719886,756.773298 840.327202,765.059324 831.964488,768.762811 L736.502722,811.038736" id="path-8"></path>
        <filter x="-11.2%" y="-11.6%" width="122.3%" height="123.2%" filterUnits="objectBoundingBox" id="filter-9">
            <feMorphology radius="10" operator="dilate" in="SourceAlpha" result="shadowSpreadOuter1"></feMorphology>
            <feOffset dx="0" dy="0" in="shadowSpreadOuter1" result="shadowOffsetOuter1"></feOffset>
            <feMorphology radius="10" operator="erode" in="SourceAlpha" result="shadowInner"></feMorphology>
            <feOffset dx="0" dy="0" in="shadowInner" result="shadowInner"></feOffset>
            <feComposite in="shadowOffsetOuter1" in2="shadowInner" operator="out" result="shadowOffsetOuter1"></feComposite>
            <feGaussianBlur stdDeviation="22" in="shadowOffsetOuter1" result="shadowBlurOuter1"></feGaussianBlur>
            <feColorMatrix values="0 0 0 0 0   0 0 0 0 0.507246377   0 0 0 0 1  0 0 0 1 0" type="matrix" in="shadowBlurOuter1"></feColorMatrix>
        </filter>
    </defs>
    <g id="Neon-VSInifity" stroke="none" stroke-width="1" fill="none" fill-rule="evenodd">
        <g id="Back" transform="translate(46.000000, 24.000000)">
            <g id="Oval">
                <use fill="black" fill-opacity="1" filter="url(#filter-3)" xlink:href="#path-2"></use>
                <use fill="#102F42" fill-rule="evenodd" xlink:href="#path-2"></use>
                <use fill="url(#linearGradient-1)" fill-rule="evenodd" xlink:href="#path-2"></use>
            </g>
            <g id="Oval">
                <use fill="black" fill-opacity="1" filter="url(#filter-5)" xlink:href="#path-4"></use>
                <use fill-opacity="0.175752944" fill="#3076BA" fill-rule="evenodd" xlink:href="#path-4"></use>
                <use fill="url(#linearGradient-1)" fill-rule="evenodd" xlink:href="#path-4"></use>
            </g>
            <g id="Oval">
                <use fill="#102F42" fill-rule="evenodd" xlink:href="#path-6"></use>
                <use fill="url(#linearGradient-1)" fill-rule="evenodd" xlink:href="#path-6"></use>
                <use fill="black" fill-opacity="1" filter="url(#filter-7)" xlink:href="#path-6"></use>
            </g>
        </g>
        <g id="Holders" transform="translate(644.000000, 803.000000)" fill-rule="nonzero" stroke-linecap="round" stroke-linejoin="round" stroke-width="21">
            <path d="M91.9626437,10.5 L91.9626437,35" id="Path-10" stroke-opacity="0.250622736" stroke="#5A90C9"></path>
            <path d="M0.25,1.16666667 L0.25,25.6666667" id="Path-10" stroke-opacity="0.250622736" stroke="#5A90C9"></path>
            <path d="M100.08908,9.33333333 L100.08908,33.8333333" id="Path-10" stroke-opacity="0.300583107" stroke="#000000"></path>
            <path d="M9.53735632,0 L9.53735632,24.5" id="Path-10" stroke-opacity="0.300583107" stroke="#000000"></path>
        </g>
        <g id="Path-14" stroke-linecap="round" stroke-linejoin="round" stroke-dasharray="5,1,4" fill-rule="nonzero">
            <use fill="black" fill-opacity="1" filter="url(#filter-9)" xlink:href="#path-8"></use>
            <use stroke="#63B2FF" stroke-width="20" xlink:href="#path-8"></use>
            <use stroke="#5196D9" stroke-width="14" xlink:href="#path-8"></use>
            <use stroke="#FFFFFF" stroke-width="5" xlink:href="#path-8"></use>
        </g>
    </g>
</svg>