<?xml version="1.0" encoding="UTF-8"?>
<svg width="1024px" height="1024px" viewBox="0 0 1024 1024" version="1.1" xmlns="http://www.w3.org/2000/svg" xmlns:xlink="http://www.w3.org/1999/xlink">
    <!-- Generator: Sketch 47.1 (45422) - http://www.bohemiancoding.com/sketch -->
    <title>ravenclaw</title>
    <desc>Created with Sketch.</desc>
    <defs>
        <linearGradient x1="0%" y1="0%" x2="100%" y2="100%" id="linearGradient-1">
            <stop stop-color="#FFFFFF" stop-opacity="0.18" offset="0%"></stop>
            <stop stop-color="#808080" stop-opacity="0.08" offset="48.7623565%"></stop>
            <stop stop-color="#000000" stop-opacity="0.182801178" offset="100%"></stop>
        </linearGradient>
        <rect id="path-2" x="68.7128605" y="53.7261539" width="745.021552" height="907.021277" rx="23.7553191"></rect>
        <filter x="-2.4%" y="-1.3%" width="104.0%" height="103.3%" filterUnits="objectBoundingBox" id="filter-3">
            <feOffset dx="-3" dy="3" in="SourceAlpha" result="shadowOffsetOuter1"></feOffset>
            <feGaussianBlur stdDeviation="4.5" in="shadowOffsetOuter1" result="shadowBlurOuter1"></feGaussianBlur>
            <feColorMatrix values="0 0 0 0 0   0 0 0 0 0   0 0 0 0 0  0 0 0 0.12 0" type="matrix" in="shadowBlurOuter1"></feColorMatrix>
        </filter>
        <linearGradient x1="100%" y1="5.90452254%" x2="50%" y2="5.90452261%" id="linearGradient-4">
            <stop stop-color="#000000" stop-opacity="0.4669101" offset="0%"></stop>
            <stop stop-color="#000000" stop-opacity="0" offset="100%"></stop>
        </linearGradient>
        <polygon id="path-5" points="163.267111 758.719934 769.982649 858.638215 949.681561 747.841922"></polygon>
        <path d="M464.063514,236.430197 L529.406367,657.617382 L529.406367,657.617382 C529.772062,659.974584 531.979407,661.589018 534.336609,661.223323 C534.936916,661.130191 535.510826,660.911472 536.020854,660.581452 L627.620265,601.310782 L627.620265,601.310782 C629.054401,600.382805 629.806896,598.69679 629.539952,597.009594 L576.449354,261.454635 L576.449354,261.454635 C576.179498,259.749032 574.919674,258.368081 573.245936,257.943222 L469.39427,231.581665 L469.39427,231.581665 C467.082196,230.994772 464.732117,232.393307 464.145224,234.705382 C464.002166,235.268959 463.974374,235.85562 464.063514,236.430197 Z" id="path-6"></path>
        <linearGradient x1="5.23386356%" y1="3.68263437%" x2="50%" y2="50%" id="linearGradient-7">
            <stop stop-color="#000000" stop-opacity="0.09" offset="0%"></stop>
            <stop stop-color="#000000" stop-opacity="0" offset="100%"></stop>
        </linearGradient>
        <path d="M627.452059,601.448979 L530.893845,664.084713 L530.893845,664.084713 C529.394564,665.057272 527.451164,665.006056 526.00519,663.95588 L156.81421,395.821262 L156.81421,395.821262 C154.884136,394.419496 154.455859,391.718506 155.857625,389.788432 C156.222529,389.286001 156.69148,388.868159 157.232507,388.563393 L190.587451,369.774223 L190.587451,369.774223 C191.857303,369.058903 193.402271,369.03225 194.69604,369.703344 L627.09029,593.991397 L627.09029,593.991397 C629.207772,595.089761 630.033931,597.696719 628.935568,599.814201 C628.591023,600.478433 628.079823,601.041759 627.452059,601.448979 Z" id="path-8"></path>
        <path d="M575.165645,265.204565 L233.566445,612.310784 L233.566445,612.310784 C232.625025,613.267382 231.292401,613.731975 229.960312,613.567993 L191.147619,608.790088 L191.147619,608.790088 C188.780091,608.498641 187.097093,606.343115 187.38854,603.975587 C187.480722,603.226761 187.76745,602.515144 188.220175,601.911589 L464.780753,233.212779 L464.780753,233.212779 C465.82693,231.81806 467.609062,231.189096 469.298915,231.618192 L573.15023,257.988688 L573.15023,257.988688 C575.462256,258.575771 576.8606,260.925963 576.273518,263.23799 C576.08507,263.980127 575.702723,264.658829 575.165645,265.204565 Z" id="path-9"></path>
        <filter x="-9.0%" y="-5.8%" width="118.0%" height="118.3%" filterUnits="objectBoundingBox" id="filter-10">
            <feOffset dx="0" dy="13" in="SourceAlpha" result="shadowOffsetOuter1"></feOffset>
            <feGaussianBlur stdDeviation="9.5" in="shadowOffsetOuter1" result="shadowBlurOuter1"></feGaussianBlur>
            <feColorMatrix values="0 0 0 0 0   0 0 0 0 0   0 0 0 0 0  0 0 0 0.1 0" type="matrix" in="shadowBlurOuter1"></feColorMatrix>
        </filter>
    </defs>
    <g id="Page-1" stroke="none" stroke-width="1" fill="none" fill-rule="evenodd">
        <g id="ravenclaw">
            <g id="icon" transform="translate(37.000000, 0.000000)">
                <g id="Rectangle" transform="translate(441.223636, 507.236792) rotate(-9.200000) translate(-441.223636, -507.236792) ">
                    <use fill="black" fill-opacity="1" filter="url(#filter-3)" xlink:href="#path-2"></use>
                    <use fill="#010101" fill-rule="evenodd" xlink:href="#path-2"></use>
                    <use fill="url(#linearGradient-1)" fill-rule="evenodd" xlink:href="#path-2"></use>
                </g>
                <g id="Path-6">
                    <use fill="#0E3280" xlink:href="#path-5"></use>
                    <use fill="url(#linearGradient-4)" xlink:href="#path-5"></use>
                </g>
                <polygon id="top-line-copy" fill="#996032" transform="translate(721.452845, 796.225229) rotate(97.000000) translate(-721.452845, -796.225229) " points="668.78108 744.345837 774.124611 822.374288 773.062989 848.104621 672.713201 773.548373"></polygon>
                <polygon id="top-line-copy-2" fill="#996032" transform="translate(669.924530, 792.675213) rotate(97.000000) translate(-669.924530, -792.675213) " points="621.983709 744.441089 717.86535 815.254709 716.813794 840.909337 625.98338 773.689729"></polygon>
                <polygon id="top-line-copy-3" fill="#996032" transform="translate(572.306824, 786.432704) rotate(97.000000) translate(-572.306824, -786.432704) " points="534.101639 753.298948 610.512009 809.835035 610.123155 819.566461 535.591131 764.200524"></polygon>
                <polygon id="top-line-copy" fill="#996032" transform="translate(476.843929, 779.459176) rotate(97.000000) translate(-476.843929, -779.459176) " points="446.729092 744.298003 506.958765 789.021632 505.908815 814.62035 450.750251 773.713109"></polygon>
                <polygon id="top-line-copy-4" fill="#996032" transform="translate(228.486298, 762.482705) rotate(97.000000) translate(-228.486298, -762.482705) " points="221.287598 744.274361 235.684997 754.929849 234.625998 780.691048 225.320325 773.750595"></polygon>
                <polygon id="top-line-copy-2" fill="#996032" transform="translate(424.792703, 775.915472) rotate(97.000000) translate(-424.792703, -775.915472) " points="399.481034 744.45457 450.104373 781.799925 449.048419 807.376374 403.480025 773.663664"></polygon>
                <polygon id="top-line-copy-5" fill="#996032" transform="translate(177.155924, 759.020812) rotate(97.000000) translate(-177.155924, -759.020812) " points="174.769187 745.222664 179.542661 748.775785 178.549716 772.818959"></polygon>
                <polygon id="top-line-copy-3" fill="#996032" transform="translate(327.032881, 769.661080) rotate(97.000000) translate(-327.032881, -769.661080) " points="311.477951 753.381324 342.587811 776.4625 342.188452 785.940835 312.970313 764.29678"></polygon>
                <g id="Path-2">
                    <use fill="#0E3280" xlink:href="#path-6"></use>
                    <use fill="#E0E0E0" style="mix-blend-mode: multiply;" xlink:href="#path-6"></use>
                </g>
                <g id="Path-4">
                    <use fill="#0E3280" xlink:href="#path-8"></use>
                    <use fill="url(#linearGradient-7)" xlink:href="#path-8"></use>
                </g>
                <g id="Path-3">
                    <use fill="black" fill-opacity="1" filter="url(#filter-10)" xlink:href="#path-9"></use>
                    <use fill="#0E3280" fill-rule="evenodd" xlink:href="#path-9"></use>
                </g>
                <polygon id="Path-5" fill="#0E3280" points="647.478398 90.3000021 849.835007 138.289374 949.622249 747.854971 770.256802 858.049815"></polygon>
                <polygon id="top-line" fill="#996032" transform="translate(770.342566, 247.630657) scale(-1, -1) translate(-770.342566, -247.630657) " points="659.443911 165.128336 876.106863 298.046327 881.24122 330.132979 664.74527 197.521953"></polygon>
                <polygon id="top-line" fill="#996032" transform="translate(789.616548, 366.848010) scale(-1, -1) translate(-789.616548, -366.848010) " points="680.140179 294.504531 897.188855 427.248954 899.092918 439.191489 682.083223 306.382191"></polygon>
                <polygon id="top-line" fill="#996032" transform="translate(809.471099, 489.427702) scale(-1, -1) translate(-809.471099, -489.427702) " points="698.103945 406.850085 915.665937 539.663915 920.838253 572.005319 703.407028 439.243702"></polygon>
                <polygon id="top-line" fill="#996032" transform="translate(818.922352, 547.868490) scale(-1, -1) translate(-818.922352, -547.868490) " points="707.455975 465.340364 925.227747 598.120381 930.388728 630.396615 712.739285 497.816767"></polygon>
                <polygon id="top-line" fill="#996032" transform="translate(838.141399, 666.756360) scale(-1, -1) translate(-838.141399, -666.756360) " points="728.060062 594.169563 946.312709 727.390746 948.222736 739.343158 730.059728 606.385015"></polygon>
                <polygon id="top-line" fill="#996032" transform="translate(812.593248, 758.231637) scale(-1, -1) translate(-812.593248, -758.231637) " points="770.33425 710.218085 873.390922 773.851572 878.571937 806.245189 746.614559 724.87032"></polygon>
                <polygon id="top-line" fill="#996032" transform="translate(796.170196, 800.480427) scale(-1, -1) translate(-796.170196, -800.480427) " points="779.749124 768.585075 831.216415 800.040641 836.394118 832.375779 755.946273 783.285565"></polygon>
                <polygon id="top-line" fill="#996032" transform="translate(760.903264, 189.297498) scale(-1, -1) translate(-760.903264, -189.297498) " points="650.109954 106.770528 866.514685 239.442286 871.696574 271.824468 655.414372 139.172037"></polygon>
            </g>
        </g>
    </g>
</svg>