<svg xmlns="http://www.w3.org/2000/svg" xmlns:xlink="http://www.w3.org/1999/xlink" width="1024" height="1024" viewBox="0 0 1024 1024">
  <defs>
    <linearGradient id="stark-c" x1="0%" y1="0%" y2="100%">
      <stop offset="0%" stop-color="#FFF" stop-opacity=".18"/>
      <stop offset="48.762%" stop-color="gray" stop-opacity=".08"/>
      <stop offset="100%" stop-opacity=".183"/>
    </linearGradient>
    <rect id="stark-b" width="744.886" height="907.021" x="68.165" y="53.799" rx="23.755"/>
    <filter id="stark-a" width="104%" height="103.3%" x="-2.4%" y="-1.3%" filterUnits="objectBoundingBox">
      <feOffset dx="-3" dy="3" in="SourceAlpha" result="shadowOffsetOuter1"/>
      <feGaussianBlur in="shadowOffsetOuter1" result="shadowBlurOuter1" stdDeviation="4.5"/>
      <feColorMatrix in="shadowBlurOuter1" values="0 0 0 0 0   0 0 0 0 0   0 0 0 0 0  0 0 0 0.12 0"/>
    </filter>
  </defs>
  <g fill="none" fill-rule="evenodd" transform="translate(37)">
    <g transform="rotate(-9.2 440.608 507.31)">
      <use fill="#000" filter="url(#stark-a)" xlink:href="#stark-b"/>
      <use fill="#363636" xlink:href="#stark-b"/>
      <use fill="url(#stark-c)" xlink:href="#stark-b"/>
    </g>
    <path fill="#CECECE" d="M189.732182,504.722089 C190.649598,503.52555 191.52654,502.320015 192.493424,501.186452 C193.302909,500.237318 194.413702,499.5041 195.025313,498.469499 C196.059654,496.724172 195.286146,495.082305 193.320898,494.574001 C183.067425,491.920024 173.479529,487.660166 164.593186,481.956364 C160.743637,479.500311 157.496704,476.054639 154.0474,472.977825 C153.561709,472.536995 153.498749,471.605854 153.233418,470.908622 C153.961955,470.710699 154.681496,470.310353 155.410033,470.310353 C159.673319,470.296858 163.945599,470.553259 168.213382,470.404817 C181.23709,469.936997 192.54739,464.799977 202.922285,457.296869 C205.795956,455.21867 205.503642,453.882685 202.33316,452.173344 C196.94559,449.285457 191.553523,446.366082 186.372821,443.12733 C184.493018,441.953283 183.206836,439.839098 181.187622,437.657439 C182.653689,437.432525 183.130385,437.203114 183.463173,437.333564 C190.046982,439.866087 196.671265,438.417646 203.246079,437.495501 C210.20315,436.532872 217.268152,435.75917 223.991372,433.860902 C230.449261,432.02561 236.551876,428.899315 242.744433,426.204853 C244.840099,425.291705 244.372397,423.7488 242.775913,422.763679 C240.293494,421.216276 237.541246,420.109702 235.117289,418.490327 C230.759563,415.57545 226.55474,412.422165 222.340923,409.309365 C221.612386,408.760577 221.117701,407.910405 220.029394,406.614904 C221.625878,406.515942 222.529802,406.376496 223.406744,406.421478 C230.237895,406.767845 237.091532,407.667498 243.886706,407.388606 C251.882616,407.037741 259.950479,406.250544 267.748515,404.541203 C274.638129,403.038782 281.203949,400.056432 287.855215,397.568891 C288.849082,397.191036 289.510161,395.972006 290.324143,395.135329 C289.379744,394.388616 288.543276,393.430486 287.472958,392.949171 C282.701496,390.767512 277.77713,388.896233 273.100108,386.539142 C269.538376,384.739835 266.259963,382.400737 262.900601,380.237071 C262.217036,379.791743 261.74034,379.036034 261.164706,378.433266 C261.259146,378.208353 261.367078,377.978941 261.466015,377.758526 C262.154077,377.848492 262.932081,377.745031 263.516709,378.046415 C269.097656,380.907313 275.002397,381.631533 281.172469,380.907313 C291.709261,379.683784 302.322504,378.716657 312.35112,374.956106 C317.666736,372.94988 322.815958,370.493826 327.915711,367.988292 C330.515056,366.706286 330.348662,365.280336 327.767305,363.840891 C321.223971,360.174804 315.031413,356.000413 309.64834,350.737441 C309.041227,350.14367 308.802879,349.172045 308.398136,348.371353 C309.315552,348.213914 310.291431,347.777582 311.132396,347.962011 C315.296745,348.84817 319.393636,350.062701 323.571477,350.8454 C327.403037,351.565122 331.329038,352.437786 335.156102,352.266852 C345.30614,351.821523 355.456178,351.15578 365.529765,349.923255 C369.923468,349.387961 374.173262,347.323257 378.382582,345.699383 C380.954945,344.723259 381.058379,342.860977 378.863776,341.084162 C376.169991,338.9115 373.269338,336.959252 370.714964,334.611157 C367.647916,331.799741 364.828211,328.704934 361.999512,325.659607 C361.392399,325.007359 361.154051,324.049228 360.744811,323.230544 C360.888719,323.014627 361.037125,322.789714 361.190028,322.569299 C362.77302,322.938156 364.378498,323.203554 365.939004,323.68037 C371.19166,325.295248 376.313899,327.548879 381.66999,328.516006 C397.009724,331.286938 412.443898,332.447491 427.837598,328.623965 C431.291399,327.760298 431.43081,326.388327 428.921408,323.387983 C424.203911,317.706673 419.549375,311.989376 415.155672,306.06516 C413.680611,304.072428 413.055509,301.449939 412.052647,299.115339 C412.295493,298.876931 412.520349,298.634024 412.749703,298.395616 C413.793039,298.989387 414.993775,299.412224 415.843734,300.208417 C421.03343,305.08004 426.798759,309.04751 433.512985,311.454083 C438.522796,313.253389 443.546098,315.034703 448.654845,316.550618 C459.618865,319.802865 470.897685,319.496983 482.113544,318.750271 C489.385415,318.277953 496.630303,317.243351 503.807733,315.961345 C506.874781,315.412557 509.654011,313.428822 512.680585,312.452698 C514.609856,311.822941 516.961859,311.134706 518.747223,311.692491 C528.595953,314.778301 538.51214,317.391794 548.747623,319.065149 C554.306085,319.969301 559.639689,322.317396 565.094716,323.963761 C569.178117,325.191788 573.248026,326.500783 577.394386,327.499398 C585.012536,329.330193 592.675658,331.008046 600.347773,332.640916 C602.86617,333.185207 605.44303,333.473096 608.019889,333.702507 C610.281949,333.904929 611.959381,334.818077 613.528882,336.513924 C619.069355,342.555095 624.659296,348.546786 630.487586,354.309065 C631.73779,355.550586 633.963873,356.08588 635.830184,356.409755 C643.987991,357.853698 652.258226,358.802833 660.362067,360.507675 C672.391908,363.044698 684.115944,366.607324 695.543169,371.321507 C700.130249,373.210779 705.396397,373.534654 710.406207,374.249879 C714.898847,374.888632 719.458944,375.091054 723.992058,375.4914 C727.315442,375.792784 728.502687,377.268215 728.18339,380.641915 C727.639236,386.426685 725.629016,391.658169 721.55461,395.796574 C718.928282,398.459547 717.255347,401.536361 716.418879,404.995528 C714.61103,412.444657 710.154368,417.640154 704.015776,421.994476 C701.362465,423.879249 699.806455,427.230458 697.404984,429.574054 C694.432377,432.448447 691.252901,435.196887 687.862059,437.54948 C685.725919,439.038406 684.129436,440.531831 683.090597,443.019372 C680.019053,450.432515 675.800738,456.955001 668.780707,461.493751 C664.949146,463.963299 660.87474,464.03977 656.746369,464.251188 C654.578749,464.372642 654.938519,462.703785 655.70753,461.430776 C657.371471,458.709324 659.332222,456.122821 660.762312,453.284415 C661.567299,451.701026 661.859613,449.699297 661.837128,447.895493 C661.823636,446.082691 660.681363,445.394457 658.913989,446.541514 C656.5395,448.093416 654.102052,449.559851 651.727564,451.120749 C648.453648,453.266422 644.74351,453.041509 641.109823,453.108983 C638.856758,453.149467 637.696496,452.07888 637.912359,449.595837 C638.065261,447.837015 637.952833,446.03321 637.705491,444.287883 C637.120863,440.095499 632.952017,437.868857 629.205902,439.884081 C627.609418,440.747748 626.300751,442.160203 624.902141,443.383732 C623.386606,444.706222 622.055454,446.312103 620.400507,447.445666 C617.945071,449.141512 616.31261,448.372309 615.453657,445.48892 C614.621686,442.682002 613.848179,439.830101 612.800346,437.104152 C611.586119,433.914881 609.288082,433.352598 606.778679,435.588236 C604.997813,437.176124 603.369849,438.943943 601.777863,440.702765 C597.752925,445.15155 594.501495,445.889266 590.494546,441.215567 C588.497817,438.880967 586.806894,436.249481 585.264376,433.591006 C583.739846,430.977513 581.558735,429.888933 579.094304,431.535298 C576.850233,433.028723 574.777052,434.949483 573.06814,437.045675 C570.7746,439.848094 569.272557,440.369893 566.826114,437.670934 C564.483106,435.043946 562.648274,431.962634 560.669534,429.034262 C560.021946,428.085128 559.689158,426.93807 559.082044,425.95295 C558.187114,424.522502 557.12579,424.194128 555.515815,425.219733 C551.48638,427.77025 548.833069,431.098967 548.882538,436.074049 C548.97248,444.481309 555.389895,448.372309 563.327342,447.049819 C564.788911,446.806912 566.272966,446.213141 567.559148,445.457432 C570.35187,443.820063 572.762335,444.755703 573.275009,448.05743 C573.544837,449.694799 573.1311,451.435628 573.275009,453.104485 C573.409923,454.77784 573.805671,457.841159 574.169939,457.854654 C576.355548,457.931124 578.604116,457.454308 580.735759,456.838046 C581.572226,456.604136 582.233306,455.601023 582.849413,454.840816 C584.373943,452.992028 585.754564,453.392374 586.968791,455.08822 C589.626599,458.794792 591.205094,462.892712 591.308528,467.51693 C591.407465,471.857757 593.01744,472.806891 597.073858,471.358449 C601.026841,469.950492 604.898876,468.596514 608.123323,465.72662 C609.512939,464.489597 611.293805,465.038385 611.91441,466.644266 C613.047688,469.59063 613.70427,472.707929 614.644172,475.730764 C615.0714,477.084742 615.674016,478.380243 616.191187,479.707231 C617.477368,479.090969 618.795029,478.51519 620.040736,477.817959 C620.476959,477.579551 620.733295,477.01277 621.066084,476.598929 C623.89928,473.018309 624.05668,472.847375 627.344087,476.036646 C629.00353,477.642527 630.123318,479.900656 631.211625,482.01934 C632.659703,484.835254 634.044821,485.581967 636.662155,483.863629 C639.16706,482.244253 641.537051,480.301002 643.614729,478.164326 C646.286028,475.438376 648.957327,473.013811 652.901316,472.294088 C655.199353,471.884746 656.57098,472.613465 656.66542,474.772633 C656.795837,477.579551 656.849803,480.507922 656.233695,483.224875 C654.493303,491.011374 649.541955,496.845625 643.844083,502.117593 C641.393143,504.393716 639.733699,506.840773 639.054632,510.403399 C637.300748,519.696817 633.014977,527.753212 624.88865,533.119644 C620.153165,536.232444 615.138857,538.949397 610.214492,541.783304 C607.682604,543.22275 605.407053,544.797143 604.345728,547.716517 C604.089391,548.422745 603.198958,548.899561 602.596342,549.479838 C602.007217,548.782607 601.017847,548.134856 600.905418,547.361154 C600.244339,542.777421 599.664209,538.18919 601.314658,533.627948 C602.596342,530.078816 601.633955,528.855287 597.887839,528.756325 C592.432812,528.625876 587.25211,529.543522 582.566094,532.575353 C581.918506,532.984696 581.046061,533.020682 579.606978,533.421028 C580.528891,531.563244 581.050559,530.35321 581.707141,529.233142 C585.925455,521.936954 585.174433,515.373984 579.454075,509.247345 C571.449171,500.660155 561.564464,499.702024 550.901752,502.33351 C536.371502,505.923126 525.263574,514.442842 517.029316,526.759095 C512.203888,533.983311 508.696121,541.886764 506.748861,550.397484 C505.503154,555.853881 504.666687,561.40924 503.551397,566.906121 C503.371511,567.751795 502.683449,568.512002 502.224741,569.312693 C501.415256,568.85387 500.281978,568.588473 499.863744,567.904736 C497.534227,564.022732 495.227196,560.118237 493.203484,556.078794 C491.620492,552.921011 490.527688,552.516167 488.283616,555.287099 C483.498663,561.220313 479.93693,567.855255 477.378059,575.056979 C474.023195,584.467352 472.826957,594.093642 473.735378,604.016817 C473.78035,604.543114 473.708395,605.091903 473.640938,605.609203 C473.609458,605.865604 473.452059,606.104012 473.078796,606.963181 C472.089426,606.045535 470.933662,605.438269 470.488445,604.507128 C467.776672,598.803326 465.109869,593.090528 462.676918,587.269772 C461.566126,584.624791 459.735791,583.666661 457.950427,585.533441 C451.398099,592.375304 446.325328,600.269761 443.213309,609.162833 C439.764005,618.964555 439.336777,629.238595 440.465559,639.562116 C440.73089,641.946197 441.117644,644.330278 441.306523,646.736851 C441.360489,647.402594 440.88829,648.11332 440.649941,648.801555 C439.970874,648.482178 439.075943,648.338234 438.639721,647.816435 C434.479869,642.76938 431.111514,637.250007 428.68306,631.163853 C428.350272,630.345169 428.030975,629.486 427.554278,628.743786 C426.205137,626.661089 424.775048,626.508148 423.061639,628.302956 C417.512171,634.146204 413.613154,640.997063 411.130734,648.621624 C407.640956,659.29601 406.25134,670.32126 406.116426,681.526442 C406.102935,682.372116 405.45085,683.204295 405.082085,684.049969 C404.317571,683.546163 403.224767,683.204295 402.820025,682.498067 C399.865406,677.199109 396.87481,671.936138 394.252979,666.484239 C392.66549,663.18701 390.596806,662.444796 387.925507,664.941334 C382.767291,669.808458 379.479884,675.854128 376.678167,682.291147 C372.176533,692.673145 371.1287,703.581441 370.912838,714.678663 C370.899346,715.59631 370.193296,716.495963 369.811039,717.395616 C369.082503,716.981776 368.03467,716.738869 367.661408,716.11361 C363.978253,709.919498 359.935326,703.887323 356.890765,697.38283 C352.321673,687.65308 349.888722,677.199109 349.187169,666.439257 C348.809409,660.663483 348.759941,654.865218 348.625027,649.075949 C348.575558,646.966262 347.487251,645.576298 345.530997,645.963149 C338.115218,647.416089 330.77589,646.01263 323.400585,645.733738 C323.130757,645.724741 322.865426,645.715744 322.591101,645.706748 C318.458232,645.589793 314.4243,645.733738 310.867065,648.446192 C310.107048,649.02197 308.609502,648.675604 307.458235,648.743078 C307.656109,647.762456 307.561669,646.55692 308.105822,645.855191 C310.651202,642.503982 310.682682,638.765923 310.237465,634.865926 C309.387506,627.475275 309.284072,620.084624 310.808602,612.761446 C310.934522,612.149682 311.123401,611.542416 311.177367,610.917157 C311.249321,609.941034 311.244824,608.955913 311.26731,607.988786 C310.084563,607.957298 308.735422,607.552454 307.755046,607.975291 C301.877288,610.530306 295.788164,611.155565 289.469687,610.746223 C281.379337,610.210929 273.437393,610.678749 266.10706,614.803659 C265.36953,615.226496 264.173291,614.790164 263.192915,614.763175 C263.233389,613.760062 262.972555,612.608505 263.381795,611.798817 C264.204771,610.143455 265.549415,608.744495 266.39038,607.116122 C268.454565,603.040693 269.066176,598.704365 269.13813,594.156617 C269.250559,588.011986 269.740747,581.880849 270.167975,575.736217 C270.37934,572.77186 269.142627,571.678781 266.282448,572.052137 C260.364216,572.834836 254.396515,573.235181 248.500769,574.107845 C243.450484,574.868052 238.463159,576.096079 233.439857,577.063206 C232.454984,577.243137 231.420642,577.189157 230.404289,577.243137 C230.516718,576.316494 230.449261,575.331374 230.782049,574.494696 C232.981149,568.822382 234.136913,563.046609 233.170029,556.94696 C232.063733,549.929664 232.553921,543.114791 235.63446,536.565316 C236.758744,534.163241 235.5715,532.854246 232.93168,533.038675 C227.346236,533.412031 221.756295,533.749401 216.161856,533.951823 C210.832749,534.145248 205.759979,535.242825 200.939048,537.568429 C199.594404,538.211681 198.114846,538.621023 196.648779,538.908912 C196.08214,539.016871 195.119752,538.625521 194.84093,538.1622 C194.602582,537.74836 194.854421,536.704762 195.259164,536.322409 C198.762433,533.007187 199.17617,528.697848 199.383038,524.253561 C199.657364,518.21239 199.432507,512.126235 201.968892,506.368455 C202.400617,505.383334 202.315172,503.332125 201.72155,502.945274 C200.844608,502.382991 199.216644,502.64389 198.038394,502.98126 C195.502009,503.718976 193.051069,504.717591 190.564153,505.594753 C190.280833,505.302366 190.00201,505.027971 189.732182,504.722089 Z M510.261125,413.141888 C510.400536,412.907978 510.557936,412.66957 510.710839,412.444657 C510.207159,411.616976 509.730463,410.798291 509.208795,409.993102 C508.862515,409.480299 508.516236,408.954002 508.066522,408.531165 C501.999884,402.665426 494.597597,401.275462 486.579202,402.287572 C480.044861,403.124249 473.555493,404.478227 466.998667,405.031514 C456.084116,405.94916 446.406277,402.804872 438.423859,395.045363 C435.046509,391.766127 431.637679,388.486891 428.323289,385.149178 C420.871533,377.664063 412.853138,370.943653 403.103344,366.557844 C401.317981,365.76165 399.519126,364.974454 397.760746,364.119783 C396.276691,363.395562 394.293453,362.896255 394.621744,360.687606 C394.963527,358.357504 397.068187,358.406985 398.817573,358.21356 C400.040794,358.08311 401.308987,358.141587 402.550197,358.119096 C416.486824,357.970653 429.70391,355.123251 442.192459,348.654744 C448.313063,345.492463 454.703494,342.676548 461.750508,341.754404 C467.785666,340.958211 473.649933,341.506999 479.518696,342.757517 C485.85966,344.111495 491.544041,346.702497 495.942241,351.560624 C499.710842,355.703527 503.304054,359.999371 507.018689,364.187257 C507.436923,364.659575 508.160962,364.857499 508.736596,365.185872 C509.019915,364.515631 509.5146,363.840891 509.541583,363.161653 C509.568566,362.401446 509.298738,361.555772 508.938967,360.863039 C504.495795,352.365814 498.80242,345.029142 490.586151,339.757174 C487.172824,337.575514 483.737011,334.980015 484.636438,329.914967 C484.74437,329.3122 484.132759,328.030194 483.714525,327.953723 C482.756635,327.818775 481.358025,327.890747 480.782392,328.489017 C479.581656,329.748531 478.448378,331.277942 477.949196,332.901816 C477.189179,335.321883 475.902998,336.199045 473.613956,335.30389 C465.226795,332.024654 457.158931,334.012888 449.05509,336.531917 C441.828191,338.772053 434.601292,341.124647 426.812251,339.986585 C425.589029,339.802156 424.226397,340.535374 422.940216,340.845754 C423.443895,342.064784 423.727215,343.47724 424.523208,344.484851 C426.13768,346.527064 426.128686,347.048863 423.808163,348.2499 C418.829833,350.800417 413.41528,350.368584 408.099664,350.566507 C405.064096,350.692459 401.997049,350.368584 399.033435,350.8454 C392.926323,351.80353 390.578818,355.208718 390.979063,361.330858 C391.26688,365.712169 394.23499,367.691407 397.562872,369.670644 C402.280368,372.500053 407.209231,375.15403 411.337602,378.698664 C420.538745,386.566131 429.042831,395.256782 438.306933,403.029786 C447.984772,411.14016 459.151163,415.26507 472.062443,412.480643 C478.502343,411.08618 484.924255,409.619746 491.395635,408.369228 C496.014195,407.478571 500.380915,408.396217 504.518281,410.717323 C506.299147,411.742927 508.33635,412.350193 510.261125,413.141888 Z M590.930769,362.671342 C590.926271,362.585874 590.917277,362.509404 590.917277,362.428435 C588.003132,362.734317 585.070999,362.941237 582.201826,363.445043 C581.455301,363.570995 580.87517,364.641582 580.214091,365.284834 C580.852685,365.914591 581.383347,366.769262 582.138866,367.133622 C583.9692,368.001787 585.911964,368.672029 587.805258,369.382755 C590.287678,370.331889 592.738618,371.406974 595.292991,372.131195 C598.180153,372.972371 600.167888,371.514933 600.631093,368.559572 C601.211224,364.74954 600.037471,362.864767 596.813024,362.680338 C594.856769,362.590373 592.882526,362.671342 590.930769,362.671342 Z" transform="rotate(-9 440.733 507.896)"/>
  </g>
</svg>
