<svg xmlns="http://www.w3.org/2000/svg" xmlns:xlink="http://www.w3.org/1999/xlink" width="1024" height="1024" viewBox="0 0 1024 1024">
  <defs>
    <linearGradient id="stranger_things-c" x1="1.746%" x2="97.698%" y1="0%" y2="100%">
      <stop offset="0%" stop-color="#0C0C0C"/>
      <stop offset="100%"/>
    </linearGradient>
    <rect id="stranger_things-b" width="690" height="840" x="171.142" y="84.824" rx="22"/>
    <filter id="stranger_things-a" width="106.1%" height="105%" x="-3.9%" y="-1.8%" filterUnits="objectBoundingBox">
      <feOffset dx="-6" dy="6" in="SourceAlpha" result="shadowOffsetOuter1"/>
      <feGaussianBlur in="shadowOffsetOuter1" result="shadowBlurOuter1" stdDeviation="6"/>
      <feColorMatrix in="shadowBlurOuter1" values="0 0 0 0 0   0 0 0 0 0   0 0 0 0 0  0 0 0 0.12 0"/>
    </filter>
    <linearGradient id="stranger_things-f" x1="12.738%" x2="89.482%" y1="18.981%" y2="41.084%">
      <stop offset="0%" stop-color="#FD4C4C"/>
      <stop offset="29.401%" stop-color="#E03535"/>
      <stop offset="42.408%" stop-color="#FF6B6B"/>
      <stop offset="53.467%" stop-color="#F35A5A"/>
      <stop offset="67.171%" stop-color="#D83131"/>
      <stop offset="100%" stop-color="#E33838"/>
    </linearGradient>
    <polygon id="stranger_things-e" points="259.369 737.918 821.277 830.453 987.705 727.844"/>
    <filter id="stranger_things-d" width="112.4%" height="187.7%" x="-6.2%" y="-43.9%" filterUnits="objectBoundingBox">
      <feOffset in="SourceAlpha" result="shadowOffsetOuter1"/>
      <feGaussianBlur in="shadowOffsetOuter1" result="shadowBlurOuter1" stdDeviation="15"/>
      <feComposite in="shadowBlurOuter1" in2="SourceAlpha" operator="out" result="shadowBlurOuter1"/>
      <feColorMatrix in="shadowBlurOuter1" values="0 0 0 0 0.764705882   0 0 0 0 0.101960784   0 0 0 0 0.101960784  0 0 0 0.6953125 0"/>
    </filter>
    <linearGradient id="stranger_things-i" x1="32.411%" x2="74.468%" y1="3.81%" y2="90.84%">
      <stop offset="0%" stop-color="#FD4C4C"/>
      <stop offset="11.718%" stop-color="#E03535"/>
      <stop offset="21.881%" stop-color="#FF6B6B"/>
      <stop offset="40.963%" stop-color="#C54646"/>
      <stop offset="51.672%" stop-color="#D83131"/>
      <stop offset="70.234%" stop-color="#C44646"/>
      <stop offset="90.162%" stop-color="#D12727"/>
      <stop offset="100%" stop-color="#E33838"/>
    </linearGradient>
    <polygon id="stranger_things-h" points="707.82 118.889 895.232 163.332 987.65 727.856 821.531 829.908"/>
    <filter id="stranger_things-g" width="132.2%" height="112.7%" x="-16.1%" y="-6.3%" filterUnits="objectBoundingBox">
      <feOffset in="SourceAlpha" result="shadowOffsetOuter1"/>
      <feGaussianBlur in="shadowOffsetOuter1" result="shadowBlurOuter1" stdDeviation="15"/>
      <feComposite in="shadowBlurOuter1" in2="SourceAlpha" operator="out" result="shadowBlurOuter1"/>
      <feColorMatrix in="shadowBlurOuter1" values="0 0 0 0 0.764705882   0 0 0 0 0.101960784   0 0 0 0 0.101960784  0 0 0 0.6953125 0"/>
    </filter>
    <linearGradient id="stranger_things-l" x1="37.415%" x2="72.04%" y1="4.49%" y2="91.15%">
      <stop offset="0%" stop-color="#E33838"/>
      <stop offset="25.229%" stop-color="#E03535"/>
      <stop offset="48.728%" stop-color="#E15454"/>
      <stop offset="77.447%" stop-color="#D02626"/>
      <stop offset="100%" stop-color="#E33838"/>
    </linearGradient>
    <path id="stranger_things-k" d="M537.951034,254.221039 L598.4682,644.286226 L598.4682,644.286226 C598.806888,646.469249 600.851137,647.964377 603.03416,647.625689 C603.590075,647.539441 604.121545,647.3369 604.593863,647.031293 L689.428752,592.140032 L689.428752,592.140032 C690.756966,591.28063 691.453886,589.71916 691.206651,588.156598 L642.036928,277.396418 L642.036928,277.396418 C641.787001,275.816841 640.620253,274.537936 639.070181,274.144485 L542.887849,249.730738 L542.887849,249.730738 C540.746612,249.187233 538.570198,250.48245 538.026692,252.623687 C537.894212,253.145618 537.868478,253.688924 537.951034,254.221039 Z"/>
    <filter id="stranger_things-j" width="158.2%" height="122.4%" x="-29.1%" y="-11.2%" filterUnits="objectBoundingBox">
      <feOffset in="SourceAlpha" result="shadowOffsetOuter1"/>
      <feGaussianBlur in="shadowOffsetOuter1" result="shadowBlurOuter1" stdDeviation="15"/>
      <feComposite in="shadowBlurOuter1" in2="SourceAlpha" operator="out" result="shadowBlurOuter1"/>
      <feColorMatrix in="shadowBlurOuter1" values="0 0 0 0 0.764705882   0 0 0 0 0.101960784   0 0 0 0 0.101960784  0 0 0 0.6953125 0"/>
    </filter>
    <linearGradient id="stranger_things-o" x1="4.247%" x2="88.946%" y1="4.088%" y2="89.163%">
      <stop offset="0%" stop-color="#FD4C4C"/>
      <stop offset="29.962%" stop-color="#E03535"/>
      <stop offset="39.083%" stop-color="#FF6B6B"/>
      <stop offset="51.485%" stop-color="#F35A5A"/>
      <stop offset="69.329%" stop-color="#D83131"/>
      <stop offset="100%" stop-color="#E33838"/>
    </linearGradient>
    <path id="stranger_things-n" d="M689.272893,592.268066 L599.84563,650.275606 L599.84563,650.275606 C598.457165,651.176242 596.657438,651.128814 595.318336,650.156297 L253.392874,401.834522 L253.392874,401.834522 C251.60539,400.536371 251.208708,398.034969 252.50686,396.247486 C252.844821,395.782131 253.27916,395.395128 253.78026,395.112866 L284.671952,377.712009 L284.671952,377.712009 C285.84794,377.049592 287.278689,377.02491 288.476825,377.646371 L688.937859,585.361463 L688.937859,585.361463 C690.898895,586.378633 691.66405,588.792945 690.646881,590.753981 C690.327782,591.369182 689.85432,591.890921 689.272893,592.268066 Z"/>
    <filter id="stranger_things-m" width="120.5%" height="132.9%" x="-10.2%" y="-16.4%" filterUnits="objectBoundingBox">
      <feOffset in="SourceAlpha" result="shadowOffsetOuter1"/>
      <feGaussianBlur in="shadowOffsetOuter1" result="shadowBlurOuter1" stdDeviation="15"/>
      <feComposite in="shadowBlurOuter1" in2="SourceAlpha" operator="out" result="shadowBlurOuter1"/>
      <feColorMatrix in="shadowBlurOuter1" values="0 0 0 0 0.764705882   0 0 0 0 0.101960784   0 0 0 0 0.101960784  0 0 0 0.6953125 0"/>
    </filter>
    <linearGradient id="stranger_things-r" x1="37.415%" x2="72.04%" y1="4.49%" y2="91.15%">
      <stop offset="0%" stop-color="#E33838"/>
      <stop offset="25.229%" stop-color="#E03535"/>
      <stop offset="51.272%" stop-color="#E33838"/>
      <stop offset="77.447%" stop-color="#D02626"/>
      <stop offset="100%" stop-color="#E33838"/>
    </linearGradient>
    <path id="stranger_things-q" d="M640.847947,280.869329 L324.476633,602.327305 L324.476633,602.327305 C323.604783,603.213173 322.370665,603.643413 321.137043,603.491558 L285.190525,599.066672 L285.190525,599.066672 C282.997935,598.796772 281.439287,596.80053 281.709187,594.60794 C281.794558,593.914411 282.060117,593.255345 282.479422,592.696369 L538.615386,251.241288 L538.615386,251.241288 C539.584259,249.949683 541.234657,249.36722 542.799605,249.764583 L638.981474,274.186575 L638.981474,274.186575 C641.122667,274.730255 642.417707,276.906775 641.874027,279.047968 C641.6995,279.73531 641.34538,280.363898 640.847947,280.869329 Z"/>
    <filter id="stranger_things-p" width="125%" height="125.4%" x="-12.5%" y="-12.7%" filterUnits="objectBoundingBox">
      <feOffset in="SourceAlpha" result="shadowOffsetOuter1"/>
      <feGaussianBlur in="shadowOffsetOuter1" result="shadowBlurOuter1" stdDeviation="15"/>
      <feComposite in="shadowBlurOuter1" in2="SourceAlpha" operator="out" result="shadowBlurOuter1"/>
      <feColorMatrix in="shadowBlurOuter1" values="0 0 0 0 0.764705882   0 0 0 0 0.101960784   0 0 0 0 0.101960784  0 0 0 0.6953125 0"/>
    </filter>
  </defs>
  <g fill="none" fill-rule="evenodd">
    <g transform="rotate(-9.2 516.142 504.824)">
      <use fill="#000" filter="url(#stranger_things-a)" xlink:href="#stranger_things-b"/>
      <use fill="url(#stranger_things-c)" xlink:href="#stranger_things-b"/>
    </g>
    <use fill="#000" filter="url(#stranger_things-d)" xlink:href="#stranger_things-e"/>
    <use fill="#BA3128" fill-opacity=".18" xlink:href="#stranger_things-e"/>
    <path stroke="url(#stranger_things-f)" stroke-width="16" d="M349.606856,744.670581 L819.625398,822.07333 L958.836964,736.243814 L349.606856,744.670581 Z"/>
    <use fill="#000" filter="url(#stranger_things-g)" xlink:href="#stranger_things-h"/>
    <use fill="#BA3128" fill-opacity=".18" xlink:href="#stranger_things-h"/>
    <path stroke="url(#stranger_things-i)" stroke-width="16" d="M717.608073,129.431634 L827.540915,816.827233 L978.887826,723.849787 L888.198864,169.885946 L717.608073,129.431634 Z"/>
    <g>
      <use fill="#000" filter="url(#stranger_things-j)" xlink:href="#stranger_things-k"/>
      <use fill="#BA3128" fill-opacity=".18" xlink:href="#stranger_things-k"/>
      <path stroke="url(#stranger_things-l)" stroke-width="16" d="M546.784053,258.973395 L605.42776,636.963144 L682.898319,586.836872 L634.547154,281.250107 L546.784053,258.973395 Z"/>
    </g>
    <g>
      <use fill="#000" filter="url(#stranger_things-m)" xlink:href="#stranger_things-n"/>
      <use fill="#BA3128" fill-opacity=".18" xlink:href="#stranger_things-n"/>
      <path stroke="url(#stranger_things-o)" stroke-width="16" d="M679.151695,589.29761 L286.713514,385.74389 L263.137161,399.024119 L597.79668,642.069036 L679.151695,589.29761 Z"/>
    </g>
    <g>
      <use fill="#000" filter="url(#stranger_things-p)" xlink:href="#stranger_things-q"/>
      <use fill="#BA3128" fill-opacity=".18" xlink:href="#stranger_things-q"/>
      <path stroke="url(#stranger_things-r)" stroke-width="16" d="M630.257292,280.225239 L543.415038,258.174714 L293.024459,591.970618 L320.157729,595.310625 L630.257292,280.225239 Z"/>
    </g>
  </g>
</svg>
