<svg width="1024" height="1024" viewBox="0 0 1024 1024" fill="none" xmlns="http://www.w3.org/2000/svg">
<g filter="url(#filter0_d)">
<rect x="100" y="100" width="824" height="824" rx="184" fill="#262335"/>
<rect x="100" y="100" width="824" height="824" rx="184" fill="url(#paint0_linear)"/>
</g>
<g filter="url(#filter1_d)">
<path d="M255.702 664.241L218.397 630.571C209.616 622.646 209.594 608.874 218.348 600.921L601.5 252.844C612 243.344 623 240.344 637 243.844V395.043L281.2 665.32C273.546 671.135 262.838 670.681 255.702 664.241Z" fill="#F97E72"/>
<path d="M255.702 664.241L218.397 630.571C209.616 622.646 209.594 608.874 218.348 600.921L601.5 252.844C612 243.344 623 240.344 637 243.844V395.043L281.2 665.32C273.546 671.135 262.838 670.681 255.702 664.241Z" fill="black" fill-opacity="0.3"/>
<path d="M255.702 380.448L218.397 414.118C209.616 422.042 209.594 435.815 218.348 443.768L601.5 791.844C612 801.344 623 804.344 637 800.844V649.645L281.2 379.369C273.546 373.554 262.838 374.007 255.702 380.448Z" fill="#F97E72"/>
<path d="M255.702 380.448L218.397 414.118C209.616 422.042 209.594 435.815 218.348 443.768L601.5 791.844C612 801.344 623 804.344 637 800.844V649.645L281.2 379.369C273.546 373.554 262.838 374.007 255.702 380.448Z" fill="black" fill-opacity="0.2"/>
<path d="M763.335 304.87L636.792 243.567C630.516 241.056 617.086 240.68 606.04 249.215C614.827 244.613 633.027 244.822 636.792 264.905V775.763C636.792 792.708 620.562 802.404 605.5 795.5C618.052 804.914 633.027 802.75 636.792 800.867L763.335 739.564C772.304 735.219 778 726.13 778 716.165V328.269C778 318.303 772.304 309.215 763.335 304.87Z" fill="#F97E72"/>
</g>
<defs>
<filter id="filter0_d" x="78" y="89" width="868" height="868" filterUnits="userSpaceOnUse" color-interpolation-filters="sRGB">
<feFlood flood-opacity="0" result="BackgroundImageFix"/>
<feColorMatrix in="SourceAlpha" type="matrix" values="0 0 0 0 0 0 0 0 0 0 0 0 0 0 0 0 0 0 127 0"/>
<feOffset dy="11"/>
<feGaussianBlur stdDeviation="11"/>
<feColorMatrix type="matrix" values="0 0 0 0 0 0 0 0 0 0 0 0 0 0 0 0 0 0 0.28 0"/>
<feBlend mode="normal" in2="BackgroundImageFix" result="effect1_dropShadow"/>
<feBlend mode="normal" in="SourceGraphic" in2="effect1_dropShadow" result="shape"/>
</filter>
<filter id="filter1_d" x="181.797" y="230" width="626.203" height="620.51" filterUnits="userSpaceOnUse" color-interpolation-filters="sRGB">
<feFlood flood-opacity="0" result="BackgroundImageFix"/>
<feColorMatrix in="SourceAlpha" type="matrix" values="0 0 0 0 0 0 0 0 0 0 0 0 0 0 0 0 0 0 127 0"/>
<feOffset dy="18"/>
<feGaussianBlur stdDeviation="15"/>
<feColorMatrix type="matrix" values="0 0 0 0 0 0 0 0 0 0 0 0 0 0 0 0 0 0 0.24 0"/>
<feBlend mode="normal" in2="BackgroundImageFix" result="effect1_dropShadow"/>
<feBlend mode="normal" in="SourceGraphic" in2="effect1_dropShadow" result="shape"/>
</filter>
<linearGradient id="paint0_linear" x1="512" y1="100" x2="512" y2="924" gradientUnits="userSpaceOnUse">
<stop stop-opacity="0"/>
<stop offset="1" stop-opacity="0.2"/>
</linearGradient>
</defs>
</svg>
