<?xml version="1.0" encoding="UTF-8"?>
<svg width="1024px" height="1024px" viewBox="0 0 1024 1024" version="1.1" xmlns="http://www.w3.org/2000/svg" xmlns:xlink="http://www.w3.org/1999/xlink">
    <!-- Generator: Sketch 49.3 (51167) - http://www.bohemiancoding.com/sketch -->
    <title>the-incredibles-1</title>
    <desc>Created with Sketch.</desc>
    <defs>
        <rect id="path-1" x="68.1647497" y="53.7989054" width="744.886364" height="907.021277" rx="23.7553191"></rect>
        <filter x="-2.4%" y="-1.3%" width="104.0%" height="103.3%" filterUnits="objectBoundingBox" id="filter-2">
            <feOffset dx="-3" dy="3" in="SourceAlpha" result="shadowOffsetOuter1"></feOffset>
            <feGaussianBlur stdDeviation="4.5" in="shadowOffsetOuter1" result="shadowBlurOuter1"></feGaussianBlur>
            <feColorMatrix values="0 0 0 0 0   0 0 0 0 0   0 0 0 0 0  0 0 0 0.12 0" type="matrix" in="shadowBlurOuter1"></feColorMatrix>
        </filter>
        <linearGradient x1="100%" y1="0%" x2="50%" y2="5.90452261%" id="linearGradient-3">
            <stop stop-color="#000000" stop-opacity="0.3" offset="0%"></stop>
            <stop stop-color="#000000" stop-opacity="0" offset="100%"></stop>
        </linearGradient>
        <polygon id="path-4" points="163.409868 759.001849 766.258365 861.406039 937.711603 745.899185"></polygon>
        <path d="M222.75063,382.127809 C96.0388732,365.886653 0,294.539234 0,210.142045 C0,128.936288 88.228963,60.1988092 206.840804,40.1914086 C202.497568,48.886834 199.894272,58.7517824 199.894272,69.1915668 C199.894272,83.3976184 204.390202,96.1277527 211.336735,107.149005 C118.764535,124.546465 50.9127376,177.659756 50.9127376,240.014417 C50.9127376,304.397573 124.391828,359.213113 222.75063,374.291356 L222.75063,382.127809 Z M556,210.142045 C556,124.007107 457.351216,52.3689652 328.622744,37 C329.776104,39.6099404 330.936057,42.5106263 332.089417,45.4112894 C431.028184,60.1988092 504.790687,115.014349 504.790687,179.978974 C504.790687,246.97207 427.258343,302.653192 324.272915,315.709549 L324.272915,383 C455.327908,369.078062 556,296.574339 556,210.142045 Z" id="path-5"></path>
        <filter x="-2.4%" y="-3.9%" width="104.9%" height="107.8%" filterUnits="objectBoundingBox" id="filter-6">
            <feGaussianBlur stdDeviation="7.5" in="SourceAlpha" result="shadowBlurInner1"></feGaussianBlur>
            <feOffset dx="0" dy="12" in="shadowBlurInner1" result="shadowOffsetInner1"></feOffset>
            <feComposite in="shadowOffsetInner1" in2="SourceAlpha" operator="arithmetic" k2="-1" k3="1" result="shadowInnerInner1"></feComposite>
            <feColorMatrix values="0 0 0 0 0   0 0 0 0 0   0 0 0 0 0  0 0 0 0.21 0" type="matrix" in="shadowInnerInner1"></feColorMatrix>
        </filter>
        <path d="M268.794282,0 C306.527631,0 337,30.6754526 337,68.2928958 C337,106.200431 306.527631,136.869266 268.794282,136.869266 C231.054295,136.869266 200,106.200431 200,68.2928958 C200,30.6754526 231.054295,0 268.794282,0 Z M324.805765,381.395926 C309.715062,383.129792 294.042433,384 278.369782,384 C259.79407,384 240.927395,382.839701 222.933632,380.532291 L222.933632,191.568182 L324.81238,168.421521 L324.81238,381.395926 L324.805561,381.395926 L324.805765,381.395926 Z" id="path-7"></path>
        <filter x="-4.7%" y="-1.7%" width="109.5%" height="103.4%" filterUnits="objectBoundingBox" id="filter-8">
            <feGaussianBlur stdDeviation="4" in="SourceAlpha" result="shadowBlurInner1"></feGaussianBlur>
            <feOffset dx="0" dy="5" in="shadowBlurInner1" result="shadowOffsetInner1"></feOffset>
            <feComposite in="shadowOffsetInner1" in2="SourceAlpha" operator="arithmetic" k2="-1" k3="1" result="shadowInnerInner1"></feComposite>
            <feColorMatrix values="0 0 0 0 0   0 0 0 0 0   0 0 0 0 0  0 0 0 0.5 0" type="matrix" in="shadowInnerInner1"></feColorMatrix>
        </filter>
    </defs>
    <g id="the-incredibles-1" stroke="none" stroke-width="1" fill="none" fill-rule="evenodd">
        <g id="icon" transform="translate(37.000000, 0.000000)">
            <g id="Rectangle" transform="translate(440.607931, 507.309544) rotate(-9.200000) translate(-440.607931, -507.309544) ">
                <use fill="black" fill-opacity="1" filter="url(#filter-2)" xlink:href="#path-1"></use>
                <use fill="#130502" fill-rule="evenodd" xlink:href="#path-1"></use>
            </g>
            <g id="Path-6">
                <use fill="#F15F27" xlink:href="#path-4"></use>
                <use fill="url(#linearGradient-3)" xlink:href="#path-4"></use>
            </g>
            <polygon id="Path-5" fill="#F15F27" points="647.533292 90.581917 849.853183 138.571289 949.622317 748.136886 770.289418 858.33173"></polygon>
        </g>
        <g id="Symbol_from_The_Incredibles_logo" transform="translate(422.117005, 419.357282) rotate(-10.000000) translate(-422.117005, -419.357282) translate(144.117005, 227.357282)">
            <path d="M274.644993,377 C425.066362,377 548,300.607102 548,207.499989 C548,114.103912 425.066362,38 274.644993,38 C123.94023,38 1,114.103912 1,207.499989 C1,300.607102 123.94023,377 274.644993,377 Z" id="path7" fill="#000000" fill-rule="nonzero"></path>
            <g id="path11">
                <use fill="#F15F27" fill-rule="evenodd" xlink:href="#path-5"></use>
                <use fill="black" fill-opacity="1" filter="url(#filter-6)" xlink:href="#path-5"></use>
            </g>
            <g id="path9">
                <use fill="#FDDB22" fill-rule="evenodd" xlink:href="#path-7"></use>
                <use fill="black" fill-opacity="1" filter="url(#filter-8)" xlink:href="#path-7"></use>
            </g>
            <path d="M268.14227,33 C287.020224,33 303,49.0691982 303,68.3535449 C303,87.9308018 287.020224,104 268.14227,104 C248.973158,104 233,87.9308018 233,68.3535449 C233,49.0691982 248.966539,33 268.14227,33 Z" id="path13" fill="#FFFFFF"></path>
        </g>
    </g>
</svg>