<?xml version="1.0" encoding="UTF-8"?>
<svg width="1024px" height="1024px" viewBox="0 0 1024 1024" version="1.1" xmlns="http://www.w3.org/2000/svg" xmlns:xlink="http://www.w3.org/1999/xlink">
    <!-- Generator: Sketch 51.2 (57519) - http://www.bohemiancoding.com/sketch -->
    <title>vim-macOS</title>
    <desc>Created with Sketch.</desc>
    <defs>
        <linearGradient x1="0%" y1="0%" x2="100%" y2="100%" id="linearGradient-1">
            <stop stop-color="#FFFFFF" stop-opacity="0.18" offset="0%"></stop>
            <stop stop-color="#808080" stop-opacity="0.08" offset="48.7623565%"></stop>
            <stop stop-color="#000000" stop-opacity="0.182801178" offset="100%"></stop>
        </linearGradient>
        <linearGradient x1="0%" y1="0%" x2="100%" y2="100%" id="linearGradient-2">
            <stop stop-color="#00FF00" offset="0%"></stop>
            <stop stop-color="#006200" offset="100%"></stop>
        </linearGradient>
        <rect id="path-3" x="68.1647497" y="53.7989054" width="744.886364" height="907.021277" rx="23.7553191"></rect>
        <filter x="-2.4%" y="-1.3%" width="104.0%" height="103.3%" filterUnits="objectBoundingBox" id="filter-4">
            <feOffset dx="-3" dy="3" in="SourceAlpha" result="shadowOffsetOuter1"></feOffset>
            <feGaussianBlur stdDeviation="4.5" in="shadowOffsetOuter1" result="shadowBlurOuter1"></feGaussianBlur>
            <feComposite in="shadowBlurOuter1" in2="SourceAlpha" operator="out" result="shadowBlurOuter1"></feComposite>
            <feColorMatrix values="0 0 0 0 0   0 0 0 0 0   0 0 0 0 0  0 0 0 0.12 0" type="matrix" in="shadowBlurOuter1"></feColorMatrix>
        </filter>
        <linearGradient x1="50%" y1="0%" x2="50%" y2="100%" id="linearGradient-5">
            <stop stop-color="#808080" offset="0%"></stop>
            <stop stop-color="#414141" offset="100%"></stop>
        </linearGradient>
        <path d="M464.151711,236.712251 L529.482558,657.898473 C529.848189,660.255685 532.055489,661.870181 534.412701,661.50455 C535.01317,661.41141 535.587228,661.192617 536.097364,660.862466 L627.678747,601.592707 C629.11266,600.664705 629.865022,598.978865 629.598153,597.291833 L576.517132,261.736516 C576.247327,260.030929 574.987572,258.649954 573.313876,258.225029 L469.482667,231.863882 C467.170618,231.276888 464.820479,232.675322 464.233485,234.987371 C464.090397,235.550965 464.062584,236.137648 464.151711,236.712251 Z" id="path-6"></path>
        <linearGradient x1="5.23386356%" y1="3.68263437%" x2="50%" y2="50%" id="linearGradient-7">
            <stop stop-color="#000000" stop-opacity="0.09" offset="0%"></stop>
            <stop stop-color="#000000" stop-opacity="0" offset="100%"></stop>
        </linearGradient>
        <linearGradient x1="7.85765499%" y1="0%" x2="80.3714845%" y2="100%" id="linearGradient-8">
            <stop stop-color="#FEFEFE" offset="0%"></stop>
            <stop stop-color="#808080" offset="100%"></stop>
        </linearGradient>
        <path d="M627.510916,601.73068 L530.970663,664.366129 C529.471239,665.338957 527.527506,665.28773 526.081406,664.237271 L156.957803,396.102934 C155.02785,394.701001 154.599806,391.999974 156.001739,390.070021 C156.366546,389.567815 156.835314,389.150139 157.376109,388.845449 L190.724601,370.056504 C191.9946,369.340972 193.53984,369.314311 194.833766,369.985608 L627.149131,594.273441 C629.266532,595.371961 630.092498,597.978981 628.993978,600.096381 C628.649489,600.760384 628.138453,601.323533 627.510916,601.73068 Z" id="path-9"></path>
        <linearGradient x1="50%" y1="10.8945958%" x2="60.7631104%" y2="50%" id="linearGradient-10">
            <stop stop-color="#FEFEFE" offset="0%"></stop>
            <stop stop-color="#808080" offset="100%"></stop>
        </linearGradient>
        <path d="M575.234009,265.486126 L233.696791,612.592348 C232.755338,613.549153 231.422544,614.013857 230.090289,613.849824 L191.285709,609.072051 C188.918187,608.780552 187.235237,606.624989 187.526736,604.257467 C187.618914,603.508802 187.905556,602.797331 188.358133,602.193865 L464.868442,233.49517 C465.914621,232.100196 467.696978,231.471108 469.387011,231.900328 L573.2185,258.270575 C575.530501,258.857758 576.928743,261.208011 576.34156,263.520012 C576.153129,264.261951 575.770899,264.940481 575.234009,265.486126 Z" id="path-11"></path>
        <filter x="-9.0%" y="-5.8%" width="118.0%" height="118.3%" filterUnits="objectBoundingBox" id="filter-12">
            <feOffset dx="0" dy="13" in="SourceAlpha" result="shadowOffsetOuter1"></feOffset>
            <feGaussianBlur stdDeviation="9.5" in="shadowOffsetOuter1" result="shadowBlurOuter1"></feGaussianBlur>
            <feComposite in="shadowBlurOuter1" in2="SourceAlpha" operator="out" result="shadowBlurOuter1"></feComposite>
            <feColorMatrix values="0 0 0 0 0   0 0 0 0 0   0 0 0 0 0  0 0 0 0.1 0" type="matrix" in="shadowBlurOuter1"></feColorMatrix>
        </filter>
        <linearGradient x1="100%" y1="0%" x2="50%" y2="5.90452261%" id="linearGradient-13">
            <stop stop-color="#000000" stop-opacity="0.3" offset="0%"></stop>
            <stop stop-color="#000000" stop-opacity="0" offset="100%"></stop>
        </linearGradient>
        <linearGradient x1="15.5780922%" y1="0%" x2="46.9175664%" y2="0%" id="linearGradient-14">
            <stop stop-color="#FEFEFE" offset="0%"></stop>
            <stop stop-color="#808080" offset="100%"></stop>
        </linearGradient>
        <polygon id="path-15" points="163.409868 759.001849 770.015314 858.92013 949.681618 748.123836"></polygon>
        <linearGradient x1="-70.1993532%" y1="50%" x2="100%" y2="84.119113%" id="linearGradient-16">
            <stop stop-color="#FEFEFE" offset="0%"></stop>
            <stop stop-color="#808080" offset="100%"></stop>
        </linearGradient>
        <polygon id="path-17" points="647.533292 90.581917 849.853183 138.571289 949.622317 748.136886 770.289418 858.33173"></polygon>
    </defs>
    <g id="vim-macOS" stroke="none" stroke-width="1" fill="none" fill-rule="evenodd">
        <g id="icon" transform="translate(37.000000, 5.000000)">
            <g id="Rectangle" transform="translate(440.607931, 507.309544) rotate(-9.200000) translate(-440.607931, -507.309544) ">
                <use fill="black" fill-opacity="1" filter="url(#filter-4)" xlink:href="#path-3"></use>
                <use fill="#00A026" fill-rule="evenodd" xlink:href="#path-3"></use>
                <rect stroke="#000000" stroke-width="25" stroke-linejoin="square" fill="url(#linearGradient-1)" fill-rule="evenodd" x="80.6647497" y="66.2989054" width="719.886364" height="882.021277" rx="23.7553191"></rect>
                <rect stroke="url(#linearGradient-2)" stroke-width="23" stroke-linejoin="square" x="79.6647497" y="65.2989054" width="721.886364" height="884.021277" rx="23.7553191"></rect>
                <rect stroke="#000000" stroke-width="10" stroke-linejoin="square" x="73.1647497" y="58.7989054" width="734.886364" height="897.021277" rx="23.7553191"></rect>
            </g>
            <g id="Path-2">
                <use fill="#CCCCCC" fill-rule="evenodd" xlink:href="#path-6"></use>
                <use fill="#E0E0E0" fill-rule="evenodd" style="mix-blend-mode: multiply;" xlink:href="#path-6"></use>
                <path stroke="#000000" stroke-width="20" d="M475.350666,243.670931 L538.021156,647.705902 L619.143682,595.20492 L567.224836,266.996369 L475.350666,243.670931 Z" stroke-linejoin="square"></path>
                <path stroke="url(#linearGradient-5)" stroke-width="18" d="M474.130629,242.329457 L537.269422,649.383562 L620.23302,595.691072 L568.109596,266.189271 L474.130629,242.329457 Z" stroke-linejoin="square"></path>
                <path stroke="#000000" stroke-width="10" d="M469.250484,236.963561 L534.262487,656.094203 L624.590373,597.635684 L571.648639,262.960878 L469.250484,236.963561 Z" stroke-linejoin="square"></path>
            </g>
            <g id="Path-4">
                <use fill="#CCCCCC" fill-rule="evenodd" xlink:href="#path-9"></use>
                <path stroke="#000000" stroke-width="20" d="M613.879205,598.654621 L192.956135,380.27718 L169.995305,393.21359 L528.801407,653.853213 L613.879205,598.654621 Z" stroke-linejoin="square" fill="url(#linearGradient-7)" fill-rule="evenodd"></path>
                <path stroke="url(#linearGradient-8)" stroke-width="18" d="M615.864977,598.558282 L192.936523,379.140435 L168.147152,393.107067 L528.769444,655.065983 L615.864977,598.558282 Z" stroke-linejoin="square"></path>
                <path stroke="#000000" stroke-width="10" d="M623.808069,598.172927 L192.858072,374.593455 L160.754544,392.680972 L528.641593,659.917067 L623.808069,598.172927 Z" stroke-linejoin="square"></path>
            </g>
            <g id="Path-3">
                <use fill="black" fill-opacity="1" filter="url(#filter-12)" xlink:href="#path-11"></use>
                <path stroke="#000000" stroke-width="20" d="M561.164876,265.526766 L470.59625,242.524909 L202.243923,600.345757 L228.532882,603.582558 L561.164876,265.526766 Z" stroke-linejoin="square" fill="#CCCCCC" fill-rule="evenodd"></path>
                <path stroke="url(#linearGradient-10)" stroke-width="18" d="M563.099522,264.986364 L470.196235,241.39157 L200.407858,601.127245 L228.899942,604.635303 L563.099522,264.986364 Z" stroke-linejoin="square"></path>
                <path stroke="#000000" stroke-width="10" d="M570.838106,262.824757 L468.596174,236.858212 L193.063601,604.253196 L230.368181,608.846283 L570.838106,262.824757 Z" stroke-linejoin="square"></path>
            </g>
            <g id="Path-6">
                <use fill="#CCCCCC" fill-rule="evenodd" xlink:href="#path-15"></use>
                <path stroke="#000000" stroke-width="20" d="M276.182093,767.442611 L767.949993,848.445185 L913.603353,758.623934 L276.182093,767.442611 Z" stroke-linejoin="square" fill="url(#linearGradient-13)" fill-rule="evenodd"></path>
                <path stroke="url(#linearGradient-14)" stroke-width="18" d="M264.90487,766.598534 L768.156525,849.49268 L917.211179,757.573924 L264.90487,766.598534 Z" stroke-linejoin="square"></path>
                <path stroke="#000000" stroke-width="10" d="M219.79598,763.22223 L768.982654,853.682657 L931.642485,753.373885 L219.79598,763.22223 Z" stroke-linejoin="square"></path>
            </g>
            <g id="Path-5" stroke-linejoin="square">
                <path stroke="#000000" stroke-width="25" d="M662.826141,107.056137 L779.679802,837.890347 L935.931613,741.87816 L838.862861,148.811258 L662.826141,107.056137 Z" fill="#CCCCCC" fill-rule="evenodd"></path>
                <path stroke="url(#linearGradient-16)" stroke-width="23" d="M661.602713,105.738199 L778.928571,839.525658 L937.026869,742.378858 L839.742087,147.992061 L661.602713,105.738199 Z"></path>
                <path stroke="#000000" stroke-width="10" d="M653.650432,97.1716048 L774.045571,850.155177 L944.146036,745.633395 L845.457054,142.667277 L653.650432,97.1716048 Z"></path>
            </g>
        </g>
    </g>
</svg>