<?xml version="1.0" encoding="UTF-8"?>
<svg width="1024px" height="1024px" viewBox="0 0 1024 1024" version="1.1" xmlns="http://www.w3.org/2000/svg" xmlns:xlink="http://www.w3.org/1999/xlink">
    <!-- Generator: Sketch 51.2 (57519) - http://www.bohemiancoding.com/sketch -->
    <title>vim-macOS</title>
    <desc>Created with Sketch.</desc>
    <defs>
        <linearGradient x1="0%" y1="0%" x2="100%" y2="100%" id="linearGradient-1">
            <stop stop-color="#FFFFFF" stop-opacity="0.18" offset="0%"></stop>
            <stop stop-color="#808080" stop-opacity="0.08" offset="48.7623565%"></stop>
            <stop stop-color="#000000" stop-opacity="0.182801178" offset="100%"></stop>
        </linearGradient>
        <linearGradient x1="0%" y1="0%" x2="100%" y2="100%" id="linearGradient-2">
            <stop stop-color="#00FF00" offset="0%"></stop>
            <stop stop-color="#006200" offset="100%"></stop>
        </linearGradient>
        <rect id="path-3" x="68.1647497" y="53.7989054" width="744.886364" height="907.021277" rx="23.7553191"></rect>
        <filter x="-3.1%" y="-1.9%" width="105.4%" height="104.4%" filterUnits="objectBoundingBox" id="filter-4">
            <feOffset dx="-3" dy="3" in="SourceAlpha" result="shadowOffsetOuter1"></feOffset>
            <feGaussianBlur stdDeviation="4.5" in="shadowOffsetOuter1" result="shadowBlurOuter1"></feGaussianBlur>
            <feComposite in="shadowBlurOuter1" in2="SourceAlpha" operator="out" result="shadowBlurOuter1"></feComposite>
            <feColorMatrix values="0 0 0 0 0   0 0 0 0 0   0 0 0 0 0  0 0 0 0.12 0" type="matrix" in="shadowBlurOuter1"></feColorMatrix>
        </filter>
        <linearGradient x1="50%" y1="0%" x2="50%" y2="100%" id="linearGradient-5">
            <stop stop-color="#808080" offset="0%"></stop>
            <stop stop-color="#414141" offset="100%"></stop>
        </linearGradient>
        <path d="M464.151711,236.712251 L529.482558,657.898473 C529.848189,660.255685 532.055489,661.870181 534.412701,661.50455 C535.01317,661.41141 535.587228,661.192617 536.097364,660.862466 L627.678747,601.592707 C629.11266,600.664705 629.865022,598.978865 629.598153,597.291833 L576.517132,261.736516 C576.247327,260.030929 574.987572,258.649954 573.313876,258.225029 L469.482667,231.863882 C467.170618,231.276888 464.820479,232.675322 464.233485,234.987371 C464.090397,235.550965 464.062584,236.137648 464.151711,236.712251 Z" id="path-6"></path>
        <linearGradient x1="5.23386356%" y1="3.68263437%" x2="50%" y2="50%" id="linearGradient-7">
            <stop stop-color="#000000" stop-opacity="0.09" offset="0%"></stop>
            <stop stop-color="#000000" stop-opacity="0" offset="100%"></stop>
        </linearGradient>
        <linearGradient x1="7.85765499%" y1="0%" x2="80.3714845%" y2="100%" id="linearGradient-8">
            <stop stop-color="#FEFEFE" offset="0%"></stop>
            <stop stop-color="#808080" offset="100%"></stop>
        </linearGradient>
        <path d="M627.510916,601.73068 L530.970663,664.366129 C529.471239,665.338957 527.527506,665.28773 526.081406,664.237271 L156.957803,396.102934 C155.02785,394.701001 154.599806,391.999974 156.001739,390.070021 C156.366546,389.567815 156.835314,389.150139 157.376109,388.845449 L190.724601,370.056504 C191.9946,369.340972 193.53984,369.314311 194.833766,369.985608 L627.149131,594.273441 C629.266532,595.371961 630.092498,597.978981 628.993978,600.096381 C628.649489,600.760384 628.138453,601.323533 627.510916,601.73068 Z" id="path-9"></path>
        <linearGradient x1="50%" y1="10.8945958%" x2="60.7631104%" y2="50%" id="linearGradient-10">
            <stop stop-color="#FEFEFE" offset="0%"></stop>
            <stop stop-color="#808080" offset="100%"></stop>
        </linearGradient>
        <path d="M575.234009,265.486126 L233.696791,612.592348 C232.755338,613.549153 231.422544,614.013857 230.090289,613.849824 L191.285709,609.072051 C188.918187,608.780552 187.235237,606.624989 187.526736,604.257467 C187.618914,603.508802 187.905556,602.797331 188.358133,602.193865 L464.868442,233.49517 C465.914621,232.100196 467.696978,231.471108 469.387011,231.900328 L573.2185,258.270575 C575.530501,258.857758 576.928743,261.208011 576.34156,263.520012 C576.153129,264.261951 575.770899,264.940481 575.234009,265.486126 Z" id="path-11"></path>
        <filter x="-10.3%" y="-7.1%" width="120.6%" height="120.9%" filterUnits="objectBoundingBox" id="filter-12">
            <feOffset dx="0" dy="13" in="SourceAlpha" result="shadowOffsetOuter1"></feOffset>
            <feGaussianBlur stdDeviation="9.5" in="shadowOffsetOuter1" result="shadowBlurOuter1"></feGaussianBlur>
            <feComposite in="shadowBlurOuter1" in2="SourceAlpha" operator="out" result="shadowBlurOuter1"></feComposite>
            <feColorMatrix values="0 0 0 0 0   0 0 0 0 0   0 0 0 0 0  0 0 0 0.1 0" type="matrix" in="shadowBlurOuter1"></feColorMatrix>
        </filter>
        <linearGradient x1="100%" y1="0%" x2="50%" y2="5.90452261%" id="linearGradient-13">
            <stop stop-color="#000000" stop-opacity="0.3" offset="0%"></stop>
            <stop stop-color="#000000" stop-opacity="0" offset="100%"></stop>
        </linearGradient>
        <linearGradient x1="15.5780922%" y1="0%" x2="46.9175664%" y2="0%" id="linearGradient-14">
            <stop stop-color="#FEFEFE" offset="0%"></stop>
            <stop stop-color="#808080" offset="100%"></stop>
        </linearGradient>
        <polygon id="path-15" points="156.409868 759.001849 770.173942 856.423702 942.681618 748.123836"></polygon>
        <linearGradient x1="-70.1993532%" y1="50%" x2="100%" y2="84.119113%" id="linearGradient-16">
            <stop stop-color="#FEFEFE" offset="0%"></stop>
            <stop stop-color="#808080" offset="100%"></stop>
        </linearGradient>
        <polygon id="path-17" points="647.533292 90.581917 849.853183 138.571289 949.622317 748.136886 770.289418 858.33173"></polygon>
    </defs>
    <g id="vim-macOS" stroke="none" stroke-width="1" fill="none" fill-rule="evenodd">
        <g id="icon" transform="translate(37.000000, 5.000000)">
            <g id="Rectangle" transform="translate(440.607931, 507.309544) rotate(-9.200000) translate(-440.607931, -507.309544) ">
                <use fill="black" fill-opacity="1" filter="url(#filter-4)" xlink:href="#path-3"></use>
                <use fill="#00A026" fill-rule="evenodd" xlink:href="#path-3"></use>
                <rect stroke="#000000" stroke-width="20" stroke-linejoin="square" fill="url(#linearGradient-1)" fill-rule="evenodd" x="78.1647497" y="63.7989054" width="724.886364" height="887.021277" rx="23.7553191"></rect>
                <rect stroke="url(#linearGradient-2)" stroke-width="18" stroke-linejoin="square" x="77.1647497" y="62.7989054" width="726.886364" height="889.021277" rx="23.7553191"></rect>
                <use stroke="#000000" stroke-width="10" xlink:href="#path-3"></use>
            </g>
            <g id="Path-2">
                <use fill="#CCCCCC" fill-rule="evenodd" xlink:href="#path-6"></use>
                <use fill="#E0E0E0" fill-rule="evenodd" style="mix-blend-mode: multiply;" xlink:href="#path-6"></use>
                <path stroke="#000000" stroke-width="15" d="M472.300575,240.317246 L536.141821,651.900053 L621.867027,596.420302 L569.436737,264.978624 L472.300575,240.317246 Z" stroke-linejoin="square"></path>
                <path stroke="url(#linearGradient-5)" stroke-width="13" d="M471.080538,238.975772 L535.390087,653.577713 L622.956366,596.906454 L570.321498,264.171525 L471.080538,238.975772 Z" stroke-linejoin="square"></path>
                <use stroke="#000000" stroke-width="10" xlink:href="#path-6"></use>
            </g>
            <g id="Path-4">
                <use fill="#CCCCCC" fill-rule="evenodd" xlink:href="#path-9"></use>
                <path stroke="#000000" stroke-width="15" d="M618.843637,598.413774 L192.907104,377.435318 L165.374924,392.947281 L528.7215,656.88514 L618.843637,598.413774 Z" stroke-linejoin="square" fill="url(#linearGradient-7)" fill-rule="evenodd"></path>
                <path stroke="url(#linearGradient-8)" stroke-width="13" d="M620.829409,598.317435 L192.887491,376.298573 L163.526772,392.840758 L528.689537,658.09791 L620.829409,598.317435 Z" stroke-linejoin="square"></path>
                <use stroke="#000000" stroke-width="10" xlink:href="#path-9"></use>
            </g>
            <g id="Path-3">
                <use fill="black" fill-opacity="1" filter="url(#filter-12)" xlink:href="#path-11"></use>
                <path stroke="#000000" stroke-width="15" d="M566.001491,264.175761 L469.596212,239.691561 L197.653762,602.299476 L229.450532,606.21442 L566.001491,264.175761 Z" stroke-linejoin="square" fill="#CCCCCC" fill-rule="evenodd"></path>
                <path stroke="url(#linearGradient-10)" stroke-width="13" d="M567.936137,263.63536 L469.196197,238.558221 L195.817697,603.080964 L229.817591,607.267166 L567.936137,263.63536 Z" stroke-linejoin="square"></path>
                <use stroke="#000000" stroke-width="10" xlink:href="#path-11"></use>
            </g>
            <g id="Path-6">
                <use fill="#CCCCCC" fill-rule="evenodd" xlink:href="#path-15"></use>
                <path stroke="#000000" stroke-width="15" d="M243.88269,765.292387 L768.569924,848.575206 L916.041206,755.993122 L243.88269,765.292387 Z" stroke-linejoin="square" fill="url(#linearGradient-13)" fill-rule="evenodd"></path>
                <path stroke="url(#linearGradient-14)" stroke-width="13" d="M232.219647,764.453648 L768.783793,849.621672 L919.593261,754.943884 L232.219647,764.453648 Z" stroke-linejoin="square"></path>
                <path stroke="#000000" stroke-width="5" d="M185.567475,761.098695 L769.63927,853.807536 L933.801481,750.746932 L185.567475,761.098695 Z" stroke-linejoin="square"></path>
                <use stroke="#000000" stroke-width="5" xlink:href="#path-15"></use>
            </g>
            <g id="Path-5" stroke-linejoin="square">
                <path stroke="#000000" stroke-width="25" d="M662.826141,107.056137 L779.679802,837.890347 L935.931613,741.87816 L838.862861,148.811258 L662.826141,107.056137 Z" fill="#CCCCCC" fill-rule="evenodd"></path>
                <path stroke="url(#linearGradient-16)" stroke-width="23" d="M661.602713,105.738199 L778.928571,839.525658 L937.026869,742.378858 L839.742087,147.992061 L661.602713,105.738199 Z"></path>
                <path stroke="#000000" stroke-width="10" d="M653.650432,97.1716048 L774.045571,850.155177 L944.146036,745.633395 L845.457054,142.667277 L653.650432,97.1716048 Z"></path>
            </g>
        </g>
    </g>
</svg>