<svg xmlns="http://www.w3.org/2000/svg" xmlns:xlink="http://www.w3.org/1999/xlink" width="1024" height="1024" viewBox="0 0 1024 1024">
  <defs>
    <linearGradient id="botw-c" x1="4.236%" x2="97.698%" y1="2.594%" y2="100%">
      <stop offset="0%" stop-color="#3862BB"/>
      <stop offset="100%" stop-color="#1C1784"/>
    </linearGradient>
    <linearGradient id="botw-d" x1="0%" y1="0%" y2="100%">
      <stop offset="0%" stop-color="#FFF" stop-opacity=".18"/>
      <stop offset="48.762%" stop-color="gray" stop-opacity=".08"/>
      <stop offset="100%" stop-opacity=".183"/>
    </linearGradient>
    <rect id="botw-b" width="681.843" height="830.284" x="62.078" y="49.858" rx="21.756"/>
    <filter id="botw-a" width="116.3%" height="113.4%" x="-8.6%" y="-6.4%" filterUnits="objectBoundingBox">
      <feMorphology in="SourceAlpha" operator="dilate" radius="42.24" result="shadowSpreadOuter1"/>
      <feOffset dx="-3" dy="3" in="shadowSpreadOuter1" result="shadowOffsetOuter1"/>
      <feGaussianBlur in="shadowOffsetOuter1" result="shadowBlurOuter1" stdDeviation="4"/>
      <feComposite in="shadowBlurOuter1" in2="SourceAlpha" operator="out" result="shadowBlurOuter1"/>
      <feColorMatrix in="shadowBlurOuter1" values="0 0 0 0 0   0 0 0 0 0   0 0 0 0 0  0 0 0 0.1 0"/>
    </filter>
    <filter id="botw-e" width="117.4%" height="114.3%" x="-9.1%" y="-6.8%" filterUnits="objectBoundingBox">
      <feGaussianBlur in="SourceAlpha" result="shadowBlurInner1" stdDeviation="8.5"/>
      <feOffset dy="1" in="shadowBlurInner1" result="shadowOffsetInner1"/>
      <feComposite in="shadowOffsetInner1" in2="SourceAlpha" k2="-1" k3="1" operator="arithmetic" result="shadowInnerInner1"/>
      <feColorMatrix in="shadowInnerInner1" values="0 0 0 0 0   0 0 0 0 0   0 0 0 0 0  0 0 0 0.5 0"/>
    </filter>
    <filter id="botw-f" width="106.9%" height="107.8%" x="-3.4%" y="-2.8%" filterUnits="objectBoundingBox">
      <feOffset dy="6" in="SourceAlpha" result="shadowOffsetOuter1"/>
      <feGaussianBlur in="shadowOffsetOuter1" result="shadowBlurOuter1" stdDeviation="6.5"/>
      <feColorMatrix in="shadowBlurOuter1" result="shadowMatrixOuter1" values="0 0 0 0 0   0 0 0 0 0   0 0 0 0 0  0 0 0 0.395380435 0"/>
      <feMerge>
        <feMergeNode in="shadowMatrixOuter1"/>
        <feMergeNode in="SourceGraphic"/>
      </feMerge>
    </filter>
  </defs>
  <g fill="none" fill-rule="evenodd" transform="translate(74 46)">
    <g transform="rotate(-9.2 403 465)">
      <use fill="#000" filter="url(#botw-a)" xlink:href="#botw-b"/>
      <use fill="url(#botw-c)" xlink:href="#botw-b"/>
      <use fill="url(#botw-d)" xlink:href="#botw-b"/>
      <use fill="#000" filter="url(#botw-e)" xlink:href="#botw-b"/>
      <rect width="724.083" height="872.524" x="40.958" y="28.738" stroke="#CECDCD" stroke-width="42.24" rx="21.756"/>
      <rect width="701.843" height="850.284" x="52.078" y="39.858" stroke="#A8A8A8" stroke-width="20" rx="21.756"/>
    </g>
    <g filter="url(#botw-f)" transform="rotate(-9 1439.174 -95.483)">
      <g fill="#EB0000" transform="translate(0 248.478)">
        <path d="M237.71767,38.1528975 C237.71767,38.1528975 202.37644,87.866211 232.238969,120.64422 C248.570287,138.566389 267.589004,135.491248 278.541122,141.729643 C296.104311,151.739272 288.315962,185.812541 251.038432,171.432511 C250.687098,171.29153 239.851211,205.206196 234.326722,216.625632 C229.754094,226.071337 194.418148,224.749643 194.418148,224.749643 L235.12713,163.44948 C235.12713,163.44948 225.875329,159.193626 220.837777,154.276924 C220.351721,153.801114 173.356585,194.447608 160.80277,197.117429 C144.520762,200.580267 110.11026,178.190773 111.239989,178.040981 C160.717358,171.69685 210.531973,141.104042 210.531973,141.104042 C210.531973,141.104042 204.799678,134.812779 203.197981,125.472808 C203.059737,124.670981 110.449267,149.06945 84.5218577,145.641857 C66.3669477,143.245186 45.4304215,102.757296 47.4177933,103.338841 C82.5292027,113.551129 199.228521,110.053046 199.228521,110.053046 C199.228521,110.053046 197.721042,102.457712 198.200054,93.0560624 C198.2432,92.2101783 78.8608859,82.6411144 45.8821369,67.4063893 C22.0460027,56.3922734 -2.28411275,-1.71996434 1.18696376,0.0669658247 C60.9199463,30.8307132 200.938523,79.4514264 201.925605,76.2617385 C210.754749,47.7219614 237.71767,38.1528975 237.71767,38.1528975 Z"/>
        <path d="M237.71767,38.1528975 C237.71767,38.1528975 202.37644,87.866211 232.238969,120.64422 C248.570287,138.566389 267.589004,135.491248 278.541122,141.729643 C296.104311,151.739272 288.315962,185.812541 251.038432,171.432511 C250.687098,171.29153 239.851211,205.206196 234.326722,216.625632 C229.754094,226.071337 194.418148,224.749643 194.418148,224.749643 L235.12713,163.44948 C235.12713,163.44948 225.875329,159.193626 220.837777,154.276924 C220.351721,153.801114 173.356585,194.447608 160.80277,197.117429 C144.520762,200.580267 110.11026,178.190773 111.239989,178.040981 C160.717358,171.69685 210.531973,141.104042 210.531973,141.104042 C210.531973,141.104042 204.799678,134.812779 203.197981,125.472808 C203.059737,124.670981 110.449267,149.06945 84.5218577,145.641857 C66.3669477,143.245186 45.4304215,102.757296 47.4177933,103.338841 C82.5292027,113.551129 199.228521,110.053046 199.228521,110.053046 C199.228521,110.053046 197.721042,102.457712 198.200054,93.0560624 C198.2432,92.2101783 78.8608859,82.6411144 45.8821369,67.4063893 C22.0460027,56.3922734 -2.28411275,-1.71996434 1.18696376,0.0669658247 C60.9199463,30.8307132 200.938523,79.4514264 201.925605,76.2617385 C210.754749,47.7219614 237.71767,38.1528975 237.71767,38.1528975 Z" transform="matrix(-1 0 0 1 655.806 0)"/>
      </g>
      <path fill="#EB0000" d="M114.469799,0.748959881 L114.469799,207.779094 C114.469799,207.779094 114.469799,0.748959881 114.469799,0.748959881 C114.469799,0.748959881 114.469799,0.748959881 114.470679,0.748959881 C114.556091,0.978053492 119.849879,15.2082912 133.665503,25.1914859 C142.501691,31.5796731 141.740027,41.8272065 144.043511,45.8627786 C149.984494,56.260104 163.143238,59.4057355 163.143238,59.4057355 C163.143238,59.4057355 131.070561,65.0361516 126.85367,81.99789 C122.353246,100.096285 132.845723,108.995691 132.845723,108.995691 C132.845723,108.995691 124.293949,116.317875 124.445401,131.570223 C124.573079,144.478767 133.354674,156.70003 133.354674,156.70003 C133.354674,156.70003 125.649976,163.960535 120.729536,177.28321 C116.634158,188.376627 114.469799,207.779094 114.469799,207.779094 C114.461874,207.708603 112.297514,188.350193 108.210062,177.274398 C103.289621,163.951724 95.5849235,156.691218 95.5849235,156.691218 C95.5849235,156.691218 104.366518,144.469955 104.494196,131.561412 C104.645648,116.309064 96.0938738,108.995691 96.0938738,108.995691 C96.0938738,108.995691 106.586352,100.087474 102.085928,81.9890788 C97.8690362,65.0273403 65.7963597,59.3969242 65.7963597,59.3969242 C65.7963597,59.3969242 78.9551034,56.2512927 84.8960859,45.8539673 C87.1995705,41.8183952 86.437906,31.5708618 95.274094,25.1914859 C109.229723,15.1025557 114.469799,0.748959881 114.469799,0.748959881 Z M176.223613,119.6926 C176.223613,119.6926 161.248322,89.0381129 158.611114,85.6017088 C155.846228,82.0067013 149.872666,76.9490193 143.873568,81.2048737 C139.610008,84.2183358 140.635834,91.840104 142.676038,94.9328678 C147.191431,101.796865 160.75346,120.256523 160.75346,120.256523 C160.75346,120.256523 149.883232,120.379881 146.773176,120.397504 C144.214336,120.415126 145.713009,128.265988 146.649901,129.261664 C151.855635,134.795156 169.290266,148.505527 169.290266,148.505527 L165.423828,132.037221 L201.197401,132.654012 L191.555522,154.391471 C191.555522,154.391471 221.340564,132.063655 226.150937,128.186686 C231.149745,124.151114 226.364027,120.115542 226.364027,120.115542 L176.223613,119.6926 Z M52.7159839,119.6926 C52.7159839,119.6926 67.6912752,89.0293016 70.3284832,85.5928975 C73.0933691,81.99789 79.0669315,76.9490193 85.0660295,81.1960624 C89.3295893,84.2183358 88.3037638,91.8312927 86.2635597,94.9328678 C81.7481664,101.788053 68.1861369,120.247712 68.1861369,120.247712 C68.1861369,120.247712 79.0563651,120.379881 82.1664215,120.397504 C84.7252617,120.406315 83.2265879,128.257177 82.2896966,129.252853 C77.0839624,134.795156 59.6493315,148.505527 59.6493315,148.505527 L63.5157691,132.037221 L27.742196,132.645201 L37.3840752,154.391471 C37.3840752,154.391471 7.59903356,132.054844 2.7886604,128.177875 C-2.21014765,124.142303 2.57557047,120.106731 2.57557047,120.106731 L52.7159839,119.6926 Z" transform="translate(213.09 385.053)"/>
      <path fill="#EB0000" d="M38.7110443,71.521263 C33.4507168,71.3450371 31.6042309,81.6101932 31.6042309,81.6101932 C27.3212993,74.9488559 29.5613852,68.5166122 29.5613852,68.5166122 C21.9887678,67.6178603 18.6937987,78.8786924 18.6937987,78.8786924 C15.0369289,67.4592571 18.4129074,60.0313373 18.4129074,60.0313373 C4.84471409,62.3134621 1.5814443,76.0943239 1.5814443,76.0943239 C-4.86848859,55.9781426 18.6119087,37.89737 18.6119087,37.89737 C34.9608376,26.7863299 44.9073826,0.4846211 44.9073826,0.4846211 C44.9073826,0.4846211 55.3646389,27.1387816 71.2028564,37.89737 C71.2028564,37.89737 94.6832537,55.9781426 88.2333208,76.0943239 C88.2333208,76.0943239 84.970051,62.3134621 71.4018577,60.0313373 C71.4018577,60.0313373 74.7778362,67.4592571 71.1209664,78.8786924 C71.1209664,78.8786924 67.8259973,67.6178603 60.2533799,68.5166122 C60.2533799,68.5166122 62.4934658,74.9488559 58.2105342,81.6101932 C58.2105342,81.6101932 56.3640483,71.3450371 51.1037208,71.521263 L44.9073826,94.8711887 L38.7110443,71.521263 Z" transform="translate(282.652 276.675)"/>
      <g fill="#B7B7B7" transform="translate(46.668)">
        <polygon points="130.792 238.28 197.49 104.255 155.996 71.724 170.535 41.818 218.665 47.913 242.535 33.686 155.87 .207 105.679 76.658 139.959 114.995 100.423 172.258 44.772 172.365 44.311 112.718 81.475 33.003 47.273 45.037 6.813 106.806 .4 215.724"/>
        <polygon points="130.792 238.28 197.49 104.255 155.996 71.724 170.535 41.818 218.665 47.913 242.535 33.686 155.87 .207 105.679 76.658 139.959 114.995 100.423 172.258 44.772 172.365 44.311 112.718 81.475 33.003 47.273 45.037 6.813 106.806 .4 215.724" transform="matrix(-1 0 0 1 564.178 0)"/>
      </g>
      <path fill="#FAC83B" d="M200.595995,172.666973 L100.381208,172.666973 L150.489042,86.5797623 L200.595995,172.666973 Z M100.266738,172.666973 L0.0519516779,172.666973 L50.1589047,86.5797623 L100.266738,172.666973 Z M150.374572,86.5797623 L50.1589047,86.5797623 L100.266738,0.492551263 L150.374572,86.5797623 Z" transform="translate(227.236 48.825)"/>
    </g>
  </g>
</svg>