<svg xmlns="http://www.w3.org/2000/svg" xmlns:xlink="http://www.w3.org/1999/xlink" width="1024" height="1024" viewBox="0 0 1024 1024">
  <defs>
    <linearGradient id="juventus-c" x1="0%" y1="0%" y2="100%">
      <stop offset="0%" stop-color="#FFF" stop-opacity=".18"/>
      <stop offset="48.762%" stop-color="gray" stop-opacity=".08"/>
      <stop offset="100%" stop-opacity=".183"/>
    </linearGradient>
    <path id="juventus-b" d="M91.9200688,53.7989054 L789.295794,53.7989054 C802.415495,53.7989054 813.051113,64.434524 813.051113,77.5542245 L813.051113,937.064863 C813.051113,950.184563 802.415495,960.820182 789.295794,960.820182 L91.9200688,960.820182 C78.8003683,960.820182 68.1647497,950.184563 68.1647497,937.064863 L68.1647497,77.5542245 C68.1647497,64.434524 78.8003683,53.7989054 91.9200688,53.7989054 Z"/>
    <filter id="juventus-a" width="104%" height="103.3%" x="-2.4%" y="-1.3%" filterUnits="objectBoundingBox">
      <feOffset dx="-3" dy="3" in="SourceAlpha" result="shadowOffsetOuter1"/>
      <feGaussianBlur in="shadowOffsetOuter1" result="shadowBlurOuter1" stdDeviation="4.5"/>
      <feColorMatrix in="shadowBlurOuter1" values="0 0 0 0 0   0 0 0 0 0   0 0 0 0 0  0 0 0 0.12 0"/>
    </filter>
    <path id="juventus-d" d="M464.151711,236.712251 L529.482558,657.898473 C529.848189,660.255685 532.055489,661.870181 534.412701,661.50455 C535.01317,661.41141 535.587228,661.192617 536.097364,660.862466 L627.678747,601.592707 C629.11266,600.664705 629.865022,598.978865 629.598153,597.291833 L576.517132,261.736516 C576.247327,260.030929 574.987572,258.649954 573.313876,258.225029 L469.482667,231.863882 C467.170618,231.276888 464.820479,232.675322 464.233485,234.987371 C464.090397,235.550965 464.062584,236.137648 464.151711,236.712251 Z"/>
    <linearGradient id="juventus-f" x1="5.234%" x2="50%" y1="3.683%" y2="50%">
      <stop offset="0%" stop-opacity=".09"/>
      <stop offset="100%" stop-opacity="0"/>
    </linearGradient>
    <path id="juventus-e" d="M627.510916,601.73068 L530.970663,664.366129 C529.471239,665.338957 527.527506,665.28773 526.081406,664.237271 L156.957803,396.102934 C155.02785,394.701001 154.599806,391.999974 156.001739,390.070021 C156.366546,389.567815 156.835314,389.150139 157.376109,388.845449 L190.724601,370.056504 C191.9946,369.340972 193.53984,369.314311 194.833766,369.985608 L627.149131,594.273441 C629.266532,595.371961 630.092498,597.978981 628.993978,600.096381 C628.649489,600.760384 628.138453,601.323533 627.510916,601.73068 Z"/>
    <path id="juventus-h" d="M575.234009,265.486126 L233.696791,612.592348 C232.755338,613.549153 231.422544,614.013857 230.090289,613.849824 L191.285709,609.072051 C188.918187,608.780552 187.235237,606.624989 187.526736,604.257467 C187.618914,603.508802 187.905556,602.797331 188.358133,602.193865 L464.868442,233.49517 C465.914621,232.100196 467.696978,231.471108 469.387011,231.900328 L573.2185,258.270575 C575.530501,258.857758 576.928743,261.208011 576.34156,263.520012 C576.153129,264.261951 575.770899,264.940481 575.234009,265.486126 Z"/>
    <filter id="juventus-g" width="118%" height="118.3%" x="-9%" y="-5.8%" filterUnits="objectBoundingBox">
      <feOffset dy="13" in="SourceAlpha" result="shadowOffsetOuter1"/>
      <feGaussianBlur in="shadowOffsetOuter1" result="shadowBlurOuter1" stdDeviation="9.5"/>
      <feColorMatrix in="shadowBlurOuter1" values="0 0 0 0 0   0 0 0 0 0   0 0 0 0 0  0 0 0 0.1 0"/>
    </filter>
    <linearGradient id="juventus-j" x1="100%" x2="50%" y1="0%" y2="5.905%">
      <stop offset="0%" stop-opacity=".3"/>
      <stop offset="100%" stop-opacity="0"/>
    </linearGradient>
    <polygon id="juventus-i" points="163.41 759.002 770.015 858.92 949.682 748.124"/>
  </defs>
  <g fill="none" fill-rule="evenodd" transform="translate(37)">
    <g transform="rotate(-9.2 440.608 507.31)">
      <use fill="#000" filter="url(#juventus-a)" xlink:href="#juventus-b"/>
      <use fill="#000" xlink:href="#juventus-b"/>
      <use fill="url(#juventus-c)" xlink:href="#juventus-b"/>
    </g>
    <polygon fill="#FFF" points="118.662 102.334 166.652 102.17 166.662 1009.349 118.662 1009.349" transform="rotate(-9 142.662 555.76)"/>
    <polygon fill="#FFF" points="238.521 82.316 286.511 82.152 286.521 992.331 238.521 992.331" transform="rotate(-9 262.52 537.241)"/>
    <polygon fill="#FFF" points="358.615 63.316 406.605 63.152 406.615 973.331 358.615 973.331" transform="rotate(-9 382.615 518.241)"/>
    <polygon fill="#FFF" points="478.709 43.316 526.698 43.152 526.708 953.331 478.709 953.331" transform="rotate(-9 502.708 498.241)"/>
    <polygon fill="#FFF" points="598.802 24.316 646.792 24.152 646.802 934.331 598.802 934.331" transform="rotate(-9 622.802 479.241)"/>
    <polygon fill="#FFF" points="705.896 5.316 753.886 5.152 753.896 915.331 705.896 915.331" transform="rotate(-9 729.896 460.241)"/>
    <use fill="#FFCD00" xlink:href="#juventus-d"/>
    <use fill="#E0E0E0" style="mix-blend-mode:multiply" xlink:href="#juventus-d"/>
    <use fill="#FFCD00" xlink:href="#juventus-e"/>
    <use fill="url(#juventus-f)" xlink:href="#juventus-e"/>
    <use fill="#000" filter="url(#juventus-g)" xlink:href="#juventus-h"/>
    <use fill="#FFCD00" xlink:href="#juventus-h"/>
    <g>
      <use fill="#FFF" xlink:href="#juventus-i"/>
      <use fill="url(#juventus-j)" xlink:href="#juventus-i"/>
    </g>
    <polygon fill="#FFF" points="647.533 90.582 849.853 138.571 949.622 748.137 770.289 858.332"/>
  </g>
</svg>
