<svg xmlns="http://www.w3.org/2000/svg" xmlns:xlink="http://www.w3.org/1999/xlink" width="1024" height="1024" viewBox="0 0 1024 1024">
  <defs>
    <linearGradient id="setapp-c" x1="1.746%" x2="97.698%" y1="0%" y2="100%">
      <stop offset="0%" stop-color="#234A66"/>
      <stop offset="100%" stop-color="#0D2060"/>
    </linearGradient>
    <linearGradient id="setapp-d" x1="0%" y1="0%" y2="100%">
      <stop offset="0%" stop-color="#FFF" stop-opacity=".18"/>
      <stop offset="48.762%" stop-color="gray" stop-opacity=".08"/>
      <stop offset="100%" stop-opacity=".183"/>
    </linearGradient>
    <linearGradient id="setapp-e" x1="50%" x2="50%" y1="0%" y2="100%">
      <stop offset="0%" stop-color="#00E8F6"/>
      <stop offset="100%" stop-color="#7F90FF"/>
    </linearGradient>
    <rect id="setapp-b" width="737.83" height="898.085" x="67.519" y="53.269" rx="23.518"/>
    <filter id="setapp-a" width="107%" height="105.8%" x="-3.9%" y="-2.6%" filterUnits="objectBoundingBox">
      <feMorphology in="SourceAlpha" operator="dilate" radius="10.969" result="shadowSpreadOuter1"/>
      <feOffset dx="-3" dy="3" in="shadowSpreadOuter1" result="shadowOffsetOuter1"/>
      <feGaussianBlur in="shadowOffsetOuter1" result="shadowBlurOuter1" stdDeviation="4.5"/>
      <feComposite in="shadowBlurOuter1" in2="SourceAlpha" operator="out" result="shadowBlurOuter1"/>
      <feColorMatrix in="shadowBlurOuter1" values="0 0 0 0 0   0 0 0 0 0   0 0 0 0 0  0 0 0 0.12 0"/>
    </filter>
    <path id="setapp-f" d="M459.754292,234.378868 L524.466825,651.419404 C524.828935,653.753023 527.014254,655.351247 529.347873,654.989138 C529.942001,654.896946 530.510008,654.680497 531.014819,654.353918 L621.732698,595.665439 C623.152737,594.746767 623.897852,593.077422 623.633496,591.406919 L571.055336,259.157487 C570.788122,257.468922 569.540821,256.101806 567.883774,255.681268 L465.031522,229.578642 C462.74254,228.997727 460.416029,230.382389 459.835114,232.67137 C459.69352,233.229294 459.66603,233.810064 459.754292,234.378868 Z"/>
    <linearGradient id="setapp-h" x1="5.234%" x2="50%" y1="3.683%" y2="50%">
      <stop offset="0%" stop-opacity=".09"/>
      <stop offset="100%" stop-opacity="0"/>
    </linearGradient>
    <path id="setapp-g" d="M621.566309,595.802148 L525.938443,657.821929 C524.454312,658.784466 522.530711,658.733776 521.099334,657.69441 L155.470728,392.200365 C153.559822,390.812798 153.135572,388.138858 154.523139,386.227953 C154.8845,385.7303 155.348961,385.316455 155.884831,385.014654 L188.919392,366.409695 C190.176384,365.701761 191.705603,365.675383 192.986264,366.339543 L621.208176,588.418767 C623.304572,589.505975 624.122682,592.086796 623.035474,594.183193 C622.694312,594.841034 622.188044,595.39892 621.566309,595.802148 Z"/>
    <path id="setapp-j" d="M569.784478,262.870444 L231.48188,606.557912 C230.54991,607.504716 229.230799,607.964543 227.912213,607.802255 L189.471617,603.071106 C187.127756,602.78263 185.461537,600.648701 185.750012,598.30484 C185.841276,597.563326 186.12523,596.858666 186.573591,596.26105 L460.465425,231.193392 C461.501139,229.8129 463.265202,229.19036 464.93796,229.61503 L567.789319,255.72637 C570.078253,256.307472 571.462725,258.634096 570.881623,260.923031 C570.695042,261.657964 570.31639,262.330065 569.784478,262.870444 Z"/>
    <filter id="setapp-i" width="118.2%" height="118.5%" x="-9.1%" y="-5.8%" filterUnits="objectBoundingBox">
      <feOffset dy="13" in="SourceAlpha" result="shadowOffsetOuter1"/>
      <feGaussianBlur in="shadowOffsetOuter1" result="shadowBlurOuter1" stdDeviation="9.5"/>
      <feColorMatrix in="shadowBlurOuter1" values="0 0 0 0 0   0 0 0 0 0   0 0 0 0 0  0 0 0 0.1 0"/>
    </filter>
    <linearGradient id="setapp-l" x1="100%" x2="50%" y1="0%" y2="5.905%">
      <stop offset="0%" stop-opacity=".3"/>
      <stop offset="100%" stop-opacity="0"/>
    </linearGradient>
    <polygon id="setapp-k" points="161.862 751.524 762.72 850.458 940.685 740.753"/>
  </defs>
  <g fill="none" fill-rule="evenodd" transform="translate(42 10)">
    <g transform="rotate(-9.2 436.434 502.311)">
      <use fill="#000" filter="url(#setapp-a)" xlink:href="#setapp-b"/>
      <use fill="url(#setapp-c)" xlink:href="#setapp-b"/>
      <use fill="url(#setapp-d)" stroke="url(#setapp-e)" stroke-width="21.938" xlink:href="#setapp-b"/>
    </g>
    <use fill="#4DE7FF" xlink:href="#setapp-f"/>
    <use fill="#E0E0E0" xlink:href="#setapp-f" style="mix-blend-mode:multiply"/>
    <use fill="#4DE7FF" xlink:href="#setapp-g"/>
    <use fill="url(#setapp-h)" xlink:href="#setapp-g"/>
    <use fill="#000" filter="url(#setapp-i)" xlink:href="#setapp-j"/>
    <use fill="#4DE7FF" xlink:href="#setapp-j"/>
    <use fill="#8893E0" xlink:href="#setapp-k"/>
    <use fill="url(#setapp-l)" xlink:href="#setapp-k"/>
    <polygon fill="#B1BAFF" points="641.399 89.689 841.802 137.206 940.626 740.766 762.992 849.875"/>
  </g>
</svg>
