<?xml version="1.0" encoding="UTF-8"?>
<svg width="1024px" height="1024px" viewBox="0 0 1024 1024" version="1.1" xmlns="http://www.w3.org/2000/svg" xmlns:xlink="http://www.w3.org/1999/xlink">
    <!-- Generator: Sketch 49.3 (51167) - http://www.bohemiancoding.com/sketch -->
    <title>the-incredibles-2</title>
    <desc>Created with Sketch.</desc>
    <defs>
        <linearGradient x1="0%" y1="0%" x2="100%" y2="100%" id="linearGradient-1">
            <stop stop-color="#FFFFFF" stop-opacity="0.18" offset="0%"></stop>
            <stop stop-color="#808080" stop-opacity="0.08" offset="48.7623565%"></stop>
            <stop stop-color="#000000" stop-opacity="0.182801178" offset="100%"></stop>
        </linearGradient>
        <rect id="path-2" x="68.1647497" y="53.7989054" width="744.886364" height="907.021277" rx="23.7553191"></rect>
        <filter x="-2.4%" y="-1.3%" width="104.0%" height="103.3%" filterUnits="objectBoundingBox" id="filter-3">
            <feOffset dx="-3" dy="3" in="SourceAlpha" result="shadowOffsetOuter1"></feOffset>
            <feGaussianBlur stdDeviation="4.5" in="shadowOffsetOuter1" result="shadowBlurOuter1"></feGaussianBlur>
            <feColorMatrix values="0 0 0 0 0   0 0 0 0 0   0 0 0 0 0  0 0 0 0.12 0" type="matrix" in="shadowBlurOuter1"></feColorMatrix>
        </filter>
        <path d="M464.151711,236.712251 L529.482558,657.898473 C529.848189,660.255685 532.055489,661.870181 534.412701,661.50455 C535.01317,661.41141 535.587228,661.192617 536.097364,660.862466 L627.678747,601.592707 C629.11266,600.664705 629.865022,598.978865 629.598153,597.291833 L576.517132,261.736516 C576.247327,260.030929 574.987572,258.649954 573.313876,258.225029 L469.482667,231.863882 C467.170618,231.276888 464.820479,232.675322 464.233485,234.987371 C464.090397,235.550965 464.062584,236.137648 464.151711,236.712251 Z" id="path-4"></path>
        <linearGradient x1="5.23386356%" y1="3.68263437%" x2="50%" y2="50%" id="linearGradient-5">
            <stop stop-color="#000000" stop-opacity="0.214362545" offset="0%"></stop>
            <stop stop-color="#000000" stop-opacity="0.0822473356" offset="23.3697616%"></stop>
            <stop stop-color="#000000" stop-opacity="0" offset="100%"></stop>
        </linearGradient>
        <path d="M627.510916,601.73068 L530.970663,664.366129 C529.471239,665.338957 527.527506,665.28773 526.081406,664.237271 L156.957803,396.102934 C155.02785,394.701001 154.599806,391.999974 156.001739,390.070021 C156.366546,389.567815 156.835314,389.150139 157.376109,388.845449 L190.724601,370.056504 C191.9946,369.340972 193.53984,369.314311 194.833766,369.985608 L627.149131,594.273441 C629.266532,595.371961 630.092498,597.978981 628.993978,600.096381 C628.649489,600.760384 628.138453,601.323533 627.510916,601.73068 Z" id="path-6"></path>
        <path d="M575.234009,265.486126 L233.696791,612.592348 C232.755338,613.549153 231.422544,614.013857 230.090289,613.849824 L191.285709,609.072051 C188.918187,608.780552 187.235237,606.624989 187.526736,604.257467 C187.618914,603.508802 187.905556,602.797331 188.358133,602.193865 L464.868442,233.49517 C465.914621,232.100196 467.696978,231.471108 469.387011,231.900328 L573.2185,258.270575 C575.530501,258.857758 576.928743,261.208011 576.34156,263.520012 C576.153129,264.261951 575.770899,264.940481 575.234009,265.486126 Z" id="path-7"></path>
        <filter x="-9.0%" y="-5.8%" width="118.0%" height="118.3%" filterUnits="objectBoundingBox" id="filter-8">
            <feOffset dx="0" dy="13" in="SourceAlpha" result="shadowOffsetOuter1"></feOffset>
            <feGaussianBlur stdDeviation="9.5" in="shadowOffsetOuter1" result="shadowBlurOuter1"></feGaussianBlur>
            <feColorMatrix values="0 0 0 0 0   0 0 0 0 0   0 0 0 0 0  0 0 0 0.1 0" type="matrix" in="shadowBlurOuter1"></feColorMatrix>
        </filter>
        <linearGradient x1="100%" y1="0%" x2="50%" y2="5.90452261%" id="linearGradient-9">
            <stop stop-color="#000000" stop-opacity="0.3" offset="0%"></stop>
            <stop stop-color="#000000" stop-opacity="0" offset="100%"></stop>
        </linearGradient>
        <polygon id="path-10" points="163.409868 759.001849 766.258365 861.406039 937.711603 745.899185"></polygon>
        <path d="M59.1715777,101.508603 C25.5118096,97.1942954 0,78.241535 0,55.8222276 C0,34.2506935 23.4371815,15.9912388 54.9452844,10.6764639 C53.7915451,12.9863206 53.1000044,15.6068499 53.1000044,18.380079 C53.1000044,22.153781 54.2943054,25.5354196 56.1395854,28.46311 C31.5486646,33.0845792 13.5244826,47.1936176 13.5244826,63.7575379 C13.5244826,80.8603086 33.0435013,95.4215333 59.1715777,99.4269244 L59.1715777,101.508603 Z M147.696091,55.8222276 C147.696091,32.9413037 121.490983,13.9113155 87.2954938,9.82869668 C87.6018729,10.5220024 87.9100033,11.2925419 88.2163825,12.0630754 C114.498521,15.9912388 134.092826,30.5524636 134.092826,47.8096956 C134.092826,65.605772 113.497099,80.3969302 86.1400032,83.8652268 L86.1400032,101.740293 C120.953511,98.0420626 147.696091,78.782141 147.696091,55.8222276 Z" id="path-11"></path>
        <filter x="-9.1%" y="-14.7%" width="118.3%" height="129.4%" filterUnits="objectBoundingBox" id="filter-12">
            <feGaussianBlur stdDeviation="7.5" in="SourceAlpha" result="shadowBlurInner1"></feGaussianBlur>
            <feOffset dx="0" dy="12" in="shadowBlurInner1" result="shadowOffsetInner1"></feOffset>
            <feComposite in="shadowOffsetInner1" in2="SourceAlpha" operator="arithmetic" k2="-1" k3="1" result="shadowInnerInner1"></feComposite>
            <feColorMatrix values="0 0 0 0 0   0 0 0 0 0   0 0 0 0 0  0 0 0 0.21 0" type="matrix" in="shadowInnerInner1"></feColorMatrix>
        </filter>
        <path d="M71.4026342,0 C81.4261381,0 89.5208319,8.14864106 89.5208319,18.1413556 C89.5208319,28.2111303 81.4261381,36.3580136 71.4026342,36.3580136 C61.377367,36.3580136 53.1280901,28.2111303 53.1280901,18.1413556 C53.1280901,8.14864106 61.377367,0 71.4026342,0 Z M86.2815498,101.314186 C82.2728487,101.774771 78.1095645,102.005933 73.9462743,102.005933 C69.0118139,102.005933 64.0000619,101.697711 59.2201905,101.084769 L59.2201905,50.8882582 L86.283307,44.7395687 L86.283307,101.314186 L86.2814955,101.314186 L86.2815498,101.314186 Z" id="path-13"></path>
        <filter x="-17.9%" y="-6.4%" width="135.7%" height="112.7%" filterUnits="objectBoundingBox" id="filter-14">
            <feGaussianBlur stdDeviation="4" in="SourceAlpha" result="shadowBlurInner1"></feGaussianBlur>
            <feOffset dx="0" dy="5" in="shadowBlurInner1" result="shadowOffsetInner1"></feOffset>
            <feComposite in="shadowOffsetInner1" in2="SourceAlpha" operator="arithmetic" k2="-1" k3="1" result="shadowInnerInner1"></feComposite>
            <feColorMatrix values="0 0 0 0 0   0 0 0 0 0   0 0 0 0 0  0 0 0 0.5 0" type="matrix" in="shadowInnerInner1"></feColorMatrix>
        </filter>
    </defs>
    <g id="the-incredibles-2" stroke="none" stroke-width="1" fill="none" fill-rule="evenodd">
        <g id="icon" transform="translate(37.000000, 0.000000)">
            <g id="Rectangle" transform="translate(440.607931, 507.309544) rotate(-9.200000) translate(-440.607931, -507.309544) ">
                <use fill="black" fill-opacity="1" filter="url(#filter-3)" xlink:href="#path-2"></use>
                <use fill="#A61103" fill-rule="evenodd" xlink:href="#path-2"></use>
                <use fill="url(#linearGradient-1)" fill-rule="evenodd" xlink:href="#path-2"></use>
            </g>
            <g id="Path-2">
                <use fill-opacity="0.606968976" fill="#E97000" xlink:href="#path-4"></use>
                <use fill="#E0E0E0" style="mix-blend-mode: multiply;" xlink:href="#path-4"></use>
            </g>
            <g id="Path-4">
                <use fill="#FDDB22" xlink:href="#path-6"></use>
                <use fill="url(#linearGradient-5)" xlink:href="#path-6"></use>
            </g>
            <g id="Path-3">
                <use fill="black" fill-opacity="1" filter="url(#filter-8)" xlink:href="#path-7"></use>
                <use fill="#F15F27" fill-rule="evenodd" xlink:href="#path-7"></use>
            </g>
            <g id="Path-6">
                <use fill="#E97000" xlink:href="#path-10"></use>
                <use fill="url(#linearGradient-9)" xlink:href="#path-10"></use>
            </g>
            <polygon id="Path-5" fill="#F15F27" points="647.533292 90.581917 849.853183 138.571289 949.622317 748.136886 770.289418 858.33173"></polygon>
        </g>
        <g id="Symbol_from_The_Incredibles_logo" transform="translate(307.818655, 883.567564) rotate(-10.000000) translate(-307.818655, -883.567564) translate(233.818655, 832.067564)">
            <path d="M72.9568197,100.14645 C112.91482,100.14645 145.570967,79.8534062 145.570967,55.1203905 C145.570967,30.3106146 112.91482,10.0943371 72.9568197,10.0943371 C32.9235386,10.0943371 0.265640451,30.3106146 0.265640451,55.1203905 C0.265640451,79.8534062 32.9235386,100.14645 72.9568197,100.14645 Z" id="path7" fill="#000000" fill-rule="nonzero"></path>
            <g id="path11">
                <use fill="#F15F27" fill-rule="evenodd" xlink:href="#path-11"></use>
                <use fill="black" fill-opacity="1" filter="url(#filter-12)" xlink:href="#path-11"></use>
            </g>
            <g id="path9">
                <use fill="#FDDB22" fill-rule="evenodd" xlink:href="#path-13"></use>
                <use fill="black" fill-opacity="1" filter="url(#filter-14)" xlink:href="#path-13"></use>
            </g>
            <path d="M71.2294336,8.76613487 C76.2441816,8.76613487 80.4890566,13.0347639 80.4890566,18.1574665 C80.4890566,23.3579778 76.2441816,27.6266069 71.2294336,27.6266069 C66.1373418,27.6266069 61.894225,23.3579778 61.894225,18.1574665 C61.894225,13.0347639 66.1355836,8.76613487 71.2294336,8.76613487 Z" id="path13" fill="#FFFFFF"></path>
        </g>
    </g>
</svg>