<svg xmlns="http://www.w3.org/2000/svg" xmlns:xlink="http://www.w3.org/1999/xlink" width="1024" height="1024" viewBox="0 0 1024 1024">
  <defs>
    <linearGradient id="things-c" x1="0%" y1="0%" y2="100%">
      <stop offset="0%" stop-color="#FFF" stop-opacity=".18"/>
      <stop offset="48.762%" stop-color="gray" stop-opacity=".08"/>
      <stop offset="100%" stop-opacity=".183"/>
    </linearGradient>
    <linearGradient id="things-d" x1="50%" x2="50%" y1="0%" y2="100%">
      <stop offset="0%" stop-color="#263F60"/>
      <stop offset="100%" stop-color="#15273D"/>
    </linearGradient>
    <linearGradient id="things-e" x1="50%" x2="50%" y1="0%" y2="100%">
      <stop offset="0%" stop-color="#4784F0"/>
      <stop offset="100%" stop-color="#1E4EA6"/>
    </linearGradient>
    <rect id="things-b" width="672.75" height="819.447" x="61.564" y="48.605" rx="21.448"/>
    <filter id="things-a" width="115.2%" height="112.4%" x="-8%" y="-5.9%" filterUnits="objectBoundingBox">
      <feMorphology in="SourceAlpha" operator="dilate" radius="32" result="shadowSpreadOuter1"/>
      <feOffset dx="-3" dy="3" in="shadowSpreadOuter1" result="shadowOffsetOuter1"/>
      <feGaussianBlur in="shadowOffsetOuter1" result="shadowBlurOuter1" stdDeviation="4.5"/>
      <feComposite in="shadowBlurOuter1" in2="SourceAlpha" operator="out" result="shadowBlurOuter1"/>
      <feColorMatrix in="shadowBlurOuter1" values="0 0 0 0 0   0 0 0 0 0   0 0 0 0 0  0 0 0 0.12 0"/>
    </filter>
    <path id="things-f" d="M419.201748,213.853827 L478.206728,594.379666 C478.536746,596.507961 480.529602,597.965754 482.657897,597.635737 C483.200306,597.55163 483.71885,597.353966 484.179614,597.055673 L566.89433,543.507043 C568.188626,542.66913 568.867705,541.147297 568.626873,539.624371 L520.685738,236.463751 C520.442219,234.923837 519.304922,233.676946 517.793842,233.293183 L424.01528,209.476593 C421.927818,208.946448 419.805828,210.208904 419.275683,212.296366 C419.146443,212.805249 419.121296,213.33499 419.201748,213.853827 Z"/>
    <linearGradient id="things-h" x1="5.234%" x2="50%" y1="3.683%" y2="50%">
      <stop offset="0%" stop-opacity=".09"/>
      <stop offset="100%" stop-opacity="0"/>
    </linearGradient>
    <path id="things-g" d="M566.745502,543.629908 L479.550162,600.220553 C478.196133,601.099332 476.440642,601.05306 475.134787,600.104172 L141.754051,357.855877 C140.011729,356.589833 139.625629,354.151071 140.891672,352.408749 C141.220894,351.955675 141.643844,351.578831 142.131746,351.303852 L172.254547,334.326844 C173.401438,333.680464 174.797042,333.656381 175.965552,334.262806 L566.418828,536.897464 C568.330457,537.889547 569.075895,540.243471 568.083812,542.155099 C567.772871,542.754246 567.31173,543.262421 566.745502,543.629908 Z"/>
    <path id="things-j" d="M519.530691,239.849369 L211.064806,553.445801 C210.214734,554.310013 209.011109,554.729762 207.807977,554.58158 L172.75762,550.264653 C170.620042,550.001382 169.100616,548.055108 169.363888,545.91753 C169.447109,545.241832 169.705775,544.599693 170.11416,544.054977 L419.850014,210.950261 C420.79459,209.690359 422.404205,209.12217 423.930391,209.509902 L517.710778,233.335113 C519.798197,233.865429 521.060479,235.987522 520.530164,238.074941 C520.360059,238.744505 520.015139,239.356864 519.530691,239.849369 Z"/>
    <filter id="things-i" width="117.6%" height="118%" x="-8.8%" y="-5.8%" filterUnits="objectBoundingBox">
      <feOffset dy="11" in="SourceAlpha" result="shadowOffsetOuter1"/>
      <feGaussianBlur in="shadowOffsetOuter1" result="shadowBlurOuter1" stdDeviation="8.5"/>
      <feColorMatrix in="shadowBlurOuter1" values="0 0 0 0 0   0 0 0 0 0   0 0 0 0 0  0 0 0 0.1 0"/>
    </filter>
    <linearGradient id="things-l" x1="100%" x2="50%" y1="0%" y2="5.905%">
      <stop offset="0%" stop-opacity=".3"/>
      <stop offset="100%" stop-opacity="0"/>
    </linearGradient>
    <polygon id="things-k" points="147.585 685.719 695.445 775.99 857.712 675.891"/>
  </defs>
  <g fill="none" fill-rule="evenodd" transform="translate(84 54)">
    <g transform="rotate(-9.2 397.939 458.328)">
      <use fill="#000" filter="url(#things-a)" xlink:href="#things-b"/>
      <use fill="#FFF" xlink:href="#things-b"/>
      <use fill="url(#things-c)" stroke="url(#things-d)" stroke-width="64" xlink:href="#things-b"/>
      <rect width="708.75" height="855.447" x="43.564" y="30.605" stroke="url(#things-e)" stroke-width="36" rx="21.448"/>
    </g>
    <use fill="#2B2B2B" xlink:href="#things-f"/>
    <use fill="#E0E0E0" xlink:href="#things-f" style="mix-blend-mode:multiply"/>
    <use fill="#363636" xlink:href="#things-g"/>
    <use fill="url(#things-h)" xlink:href="#things-g"/>
    <use fill="#000" filter="url(#things-i)" xlink:href="#things-j"/>
    <use fill="#363636" xlink:href="#things-j"/>
    <use fill="#323232" xlink:href="#things-k"/>
    <use fill="url(#things-l)" xlink:href="#things-k"/>
    <polygon fill="#323232" points="584.825 81.836 767.552 125.192 857.659 675.903 695.693 775.458"/>
  </g>
</svg>
