<svg xmlns="http://www.w3.org/2000/svg" xmlns:xlink="http://www.w3.org/1999/xlink" width="990" height="889" viewBox="0 0 990 889">
  <defs>
    <path id="vs_og--violet-b" d="M821.601307,58.7696019 L930,720.434258 L730.424837,840 L335.810142,554.792987 L141.830065,752.858866 L50.6535948,725.500603 L0,312.086852 L76.9934641,259.396864 L312.932023,386.918159 L604.803922,10.13269 L821.601307,58.7696019 Z M640.203697,243.98799 L435.396914,453.108618 L692.9295,592.301165 L640.203697,243.98799 Z M92.7215676,379.101187 L125.5344,628.83491 L237.776069,483.939049 L92.7215676,379.101187 Z"/>
    <filter id="vs_og--violet-a" width="113.8%" height="115.4%" x="-6.9%" y="-4.8%" filterUnits="objectBoundingBox">
      <feOffset dy="8" in="SourceAlpha" result="shadowOffsetOuter1"/>
      <feGaussianBlur in="shadowOffsetOuter1" result="shadowBlurOuter1" stdDeviation="4"/>
      <feColorMatrix in="shadowBlurOuter1" result="shadowMatrixOuter1" values="0 0 0 0 0   0 0 0 0 0   0 0 0 0 0  0 0 0 0.2 0"/>
      <feOffset dy="16" in="SourceAlpha" result="shadowOffsetOuter2"/>
      <feGaussianBlur in="shadowOffsetOuter2" result="shadowBlurOuter2" stdDeviation="16"/>
      <feColorMatrix in="shadowBlurOuter2" result="shadowMatrixOuter2" values="0 0 0 0 0   0 0 0 0 0   0 0 0 0 0  0 0 0 0.2 0"/>
      <feMerge>
        <feMergeNode in="shadowMatrixOuter1"/>
        <feMergeNode in="shadowMatrixOuter2"/>
      </feMerge>
    </filter>
    <linearGradient id="vs_og--violet-d" x1="39.434%" x2="61.329%" y1="0%" y2="106.716%">
      <stop offset="0%" stop-opacity="0"/>
      <stop offset="100%" stop-opacity=".5"/>
    </linearGradient>
    <radialGradient id="vs_og--violet-e" cx="38.344%" cy="20.513%" r="100%" fx="38.344%" fy="20.513%" gradientTransform="matrix(0 1 -.89233 0 .566 -.178)">
      <stop offset="0%" stop-color="#FFF" stop-opacity=".5"/>
      <stop offset="100%" stop-color="#FFF" stop-opacity="0"/>
    </radialGradient>
    <path id="vs_og--violet-c" d="M821.601307,48.6369119 L930,710.301568 L730.424837,829.86731 L335.810142,544.660297 L141.830065,742.726176 L50.6535948,715.367913 L0,301.954162 L76.9934641,249.264174 L312.932023,376.785469 L604.803922,0 L821.601307,48.6369119 Z M640.203697,233.8553 L435.396914,442.975928 L692.9295,582.168475 L640.203697,233.8553 Z M92.7215676,368.968497 L125.5344,618.70222 L237.776069,473.806359 L92.7215676,368.968497 Z"/>
    <linearGradient id="vs_og--violet-f" x1="13.535%" x2="35.085%" y1="87.722%" y2="56.207%">
      <stop offset="0%" stop-opacity="0"/>
      <stop offset="60.606%" stop-opacity=".5"/>
      <stop offset="66.667%"/>
      <stop offset="100%" stop-opacity="0"/>
    </linearGradient>
    <linearGradient id="vs_og--violet-h" x1=".728%" x2="76.089%" y1="1.984%" y2="98.276%">
      <stop offset="0%"/>
      <stop offset="100%" stop-opacity="0"/>
      <stop offset="100%" stop-opacity="0"/>
    </linearGradient>
    <path id="vs_og--violet-g" d="M1.130764,311.182991 L1.34471109,312.929139 L-2.84217094e-14,311.957013 L1.130764,311.182991 Z M94.1761894,380.039413 L92.7047484,368.840488 L730.424837,829.864818 L921.10845,715.597918 L930,720.404851 L730.424837,840 L94.1761894,380.039413 Z"/>
  </defs>
  <g fill="none" fill-rule="evenodd" transform="translate(30 4)">
    <use fill="#000" filter="url(#vs_og--violet-a)" xlink:href="#vs_og--violet-b"/>
    <path fill="#6A1B9A" d="M0.0155188709,312.21351 L0,312.21351 L0,302.08082 L14.621355,302.08082 L76.9934641,259.396864 L312.932023,386.918159 L604.803922,10.13269 L821.601307,58.7696019 L928.339989,710.301568 L930,710.301568 L930,720.434258 L730.424837,840 L335.810142,554.792987 L141.830065,752.858866 L50.6535948,725.500603 L0.0155188709,312.21351 Z M640.203697,243.98799 L435.396914,453.108618 L692.9295,592.301165 L640.203697,243.98799 Z M92.7215676,379.101187 L125.5344,628.83491 L237.776069,483.939049 L92.7215676,379.101187 Z"/>
    <use fill="#6A1B9A" xlink:href="#vs_og--violet-c"/>
    <use fill="url(#vs_og--violet-d)" style="mix-blend-mode:soft-light" xlink:href="#vs_og--violet-c"/>
    <use fill="url(#vs_og--violet-e)" fill-opacity=".8" style="mix-blend-mode:overlay" xlink:href="#vs_og--violet-c"/>
    <path fill="url(#vs_og--violet-f)" d="M237.776069,473.806359 L335.810142,544.660297 L141.830065,742.726176 L50.6535948,715.367913 L237.776069,473.806359 Z M312.932023,376.785469 L604.803922,0 L821.601307,48.6369119 L435.396914,442.975928 L312.932023,376.785469 Z" opacity=".4" style="mix-blend-mode:hard-light"/>
    <g>
      <use fill="#6A1B9A" xlink:href="#vs_og--violet-g"/>
      <use fill="url(#vs_og--violet-h)" fill-opacity=".6" style="mix-blend-mode:soft-light" xlink:href="#vs_og--violet-g"/>
    </g>
  </g>
</svg>
